<?xml version="1.0" standalone="no"?>
<svg xmlns="http://www.w3.org/2000/svg" width="24" height="24"><rect width="24" height="24" opacity="0"></rect><g><path d="M3.22 4.99Q2.93 4.9 2.6 4.99Q2.28 5.09 2.05 5.35Q1.82 5.62 1.82 6.02L1.82 18.24Q1.82 18.74 2.12 19.16Q2.42 19.58 2.9 19.75L10.94 22.56Q11.86 22.87 12.72 22.54L20.59 19.75Q21.07 19.58 21.37 19.16Q21.67 18.74 21.67 18.24L21.67 6.02Q21.67 5.71 21.48 5.42Q21.29 5.14 20.96 5Q20.64 4.87 20.26 4.99L12.43 7.56Q12.14 7.66 11.84 7.66Q11.54 7.66 11.23 7.56L3.22 4.99ZM11.76 10.58Q12.1 10.58 12.32 10.81Q12.55 11.04 12.55 11.38L12.55 18.36Q12.55 18.7 12.32 18.94Q12.1 19.18 11.76 19.18Q11.42 19.18 11.18 18.94Q10.94 18.7 10.94 18.36L10.94 11.38Q10.94 11.04 11.18 10.81Q11.42 10.58 11.76 10.58Z" fill="rgba(0,0,0,0.9019607843137255)"></path></g><g><path d="M18.55 2.74Q14.18 3.46 11.76 7.1Q10.37 5.16 8.69 4.13Q7.01 3.1 4.92 2.74L4.92 5.64L11.23 7.68L11.4 7.73Q11.9 7.82 12.43 7.68L18.55 5.66L18.55 2.74Z" fill="rgba(0,0,0,0.45098039215686275)"></path></g></svg>