<?xml version="1.0" standalone="no"?><!DOCTYPE svg PUBLIC "-//W3C//DTD SVG 1.1//EN" "http://www.w3.org/Graphics/SVG/1.1/DTD/svg11.dtd"><svg t="1737076872704" class="icon" viewBox="0 0 1142 1024" version="1.1" xmlns="http://www.w3.org/2000/svg" p-id="1187" xmlns:xlink="http://www.w3.org/1999/xlink" width="223.046875" height="200"><path d="M595.895182 29.363769c-244.676836 0-443.733333 199.056498-443.733333 443.733333s199.056498 443.733333 443.733333 443.733334 443.733333-199.056498 443.733334-443.733334-199.056498-443.733333-443.733334-443.733333z" fill="#CFB9A3" p-id="1188"></path><path d="M653.152711 156.198684c-66.500836 0-120.604444 54.099058-120.604444 120.604445 0 66.500836 54.103609 120.604444 120.604444 120.604444 66.496284 0 120.604444-54.103609 120.604445-120.604444s-54.10816-120.604444-120.604445-120.604445z" fill="#B8A491" p-id="1189"></path><path d="M118.12864 88.746667m-52.337778 0a52.337778 52.337778 0 1 0 104.675556 0 52.337778 52.337778 0 1 0-104.675556 0Z" fill="#BCC4B7" opacity=".52" p-id="1190"></path><path d="M1019.635484 940.163982m-69.986986 0a69.986987 69.986987 0 1 0 139.973973 0 69.986987 69.986987 0 1 0-139.973973 0Z" fill="#BCC4B7" opacity=".62" p-id="1191"></path><path d="M389.89824 380.586667m-42.097778 0a42.097778 42.097778 0 1 0 84.195556 0 42.097778 42.097778 0 1 0-84.195556 0Z" fill="#B8A491" p-id="1192"></path><path d="M565.885156 538.127929m-58.067627 0a58.067627 58.067627 0 1 0 116.135253 0 58.067627 58.067627 0 1 0-116.135253 0Z" fill="#B8A491" p-id="1193"></path><path d="M878.760391 180.123876c102.623004-17.658311 174.175573-7.991751 191.424285 25.863964 34.679467 68.098276-131.527111 248.317724-425.483378 398.031076-218.999467 111.556836-439.41888 167.535502-536.025316 136.123733-18.181689-5.911893-30.328604-14.668231-36.113066-26.018702-19.33312-37.965369 26.036907-112.649102 118.401706-194.914987a22.755556 22.755556 0 0 0-30.273991-33.987698C47.222329 586.283236 1.520071 674.916124 32.007964 734.776889c11.459698 22.500693 32.52224 38.866489 62.595983 48.642275 108.858027 35.371236 338.229476-20.416284 570.750293-138.868053 261.465884-133.174613 506.411236-339.380907 445.376284-459.238969-27.971129-54.922809-110.846862-72.235236-239.688817-50.062222a22.769209 22.769209 0 0 0 7.718684 44.873956z" fill="#B8A491" p-id="1194"></path></svg>