<svg xmlns="http://www.w3.org/2000/svg" viewBox="0 0 750 500"><g id="freepik--background-complete--inject-59"><path d="M687.37,201.55a27,27,0,0,1,6.72-2.92l1.38-6.65,11.24-.2,1.61,6.6a27.41,27.41,0,0,1,6.82,2.68l5.68-3.72,8.08,7.8L725.39,211a27.52,27.52,0,0,1,2.91,6.72l6.65,1.38.2,11.24-6.6,1.62a27.5,27.5,0,0,1-2.68,6.81l3.72,5.68-7.8,8.09L716,249a27.77,27.77,0,0,1-6.72,2.92l-1.38,6.65-11.24.19L695,252.14a27.44,27.44,0,0,1-6.82-2.69l-5.68,3.73-8.08-7.81,3.52-5.81a27.11,27.11,0,0,1-2.92-6.71l-6.65-1.39-.2-11.23,6.6-1.62a27.41,27.41,0,0,1,2.68-6.82l-3.72-5.68,7.8-8.08,5.81,3.52Zm6,15a12.05,12.05,0,1,0,17-.3A12,12,0,0,0,693.36,216.52Z" style="fill:#e0e0e0"></path><path d="M693.36,216.52a9.09,9.09,0,0,1,2.24-2,12.17,12.17,0,0,1,13.21,0,12.33,12.33,0,0,1,4.33,4.87,11.85,11.85,0,0,1,1.09,3.38,11.52,11.52,0,0,1,.07,3.71,12.31,12.31,0,0,1-10.18,10.54,11.28,11.28,0,0,1-3.71.06,11.51,11.51,0,0,1-3.42-1,12.38,12.38,0,0,1-5-4.15,12.14,12.14,0,0,1-2.08-5.28,12,12,0,0,1,1.58-7.92,9,9,0,0,1,1.89-2.31A27.53,27.53,0,0,0,691.7,219a12,12,0,0,0-1.33,7.72,11.64,11.64,0,0,0,2.07,5,11.84,11.84,0,0,0,4.81,3.9,11.79,11.79,0,0,0,6.76.82,11.66,11.66,0,0,0,9.62-10,11.15,11.15,0,0,0,0-3.51,10.76,10.76,0,0,0-1-3.21,11.73,11.73,0,0,0-9.15-6.57,12.07,12.07,0,0,0-7.67,1.6A28.76,28.76,0,0,0,693.36,216.52Z" style="fill:#e0e0e0"></path><path d="M687.37,201.55l-.38-.2-1.11-.64-4.38-2.59.14,0-7.76,8.13,0-.21c1.14,1.71,2.4,3.62,3.75,5.66l.07.1-.06.11a26.9,26.9,0,0,0-2.64,6.77l0,.13-.13,0-6.59,1.63.19-.24q.1,5.31.22,11.24l-.22-.27,6.65,1.38.17,0,.05.17a27.38,27.38,0,0,0,2.9,6.64l.09.15-.09.16-3.51,5.81-.05-.38,8.09,7.79-.4,0,5.68-3.73.17-.11.17.1a27.68,27.68,0,0,0,6.74,2.64l.19.05.05.2c.51,2.06,1.06,4.32,1.62,6.59l-.33-.26,11.23-.2-.33.28c.44-2.11.91-4.37,1.39-6.65l0-.21.2-.06a27.06,27.06,0,0,0,6.63-2.88h0l.18-.11.17.11,5.81,3.52-.43.06,7.81-8.09,0,.43-3.72-5.68-.11-.17.1-.18a27.25,27.25,0,0,0,2.65-6.73l0-.2.2,0,6.59-1.61-.25.32c-.06-3.83-.12-7.58-.18-11.23l.25.3L728.24,218l-.18,0,0-.18a27.7,27.7,0,0,0-2.88-6.65L725,211l.09-.16,3.53-5.8,0,.36-8.06-7.82.33,0c-2,1.3-3.88,2.53-5.69,3.71l-.13.08-.13-.07a27,27,0,0,0-6.75-2.68l-.13,0,0-.13-1.59-6.6.2.15-11.24.15.15-.12c-.57,2.65-1,4.83-1.42,6.64l0,.07h-.06a28.75,28.75,0,0,0-5.14,2l-1.21.63-.4.21a3.49,3.49,0,0,1,.37-.26c.26-.16.65-.39,1.19-.68a26.36,26.36,0,0,1,5.13-2.09l-.08.08c.36-1.81.8-4,1.34-6.65l0-.13h.13l11.23-.24h.17l0,.16c.5,2,1,4.2,1.63,6.59l-.16-.16a27.94,27.94,0,0,1,6.88,2.68H715l5.67-3.73.17-.12.15.15,8.1,7.79.17.15-.12.2-3.51,5.81v-.31a27.57,27.57,0,0,1,3,6.79l-.23-.22,6.65,1.38.25,0v.26c.07,3.65.14,7.4.21,11.23v.26l-.26.07-6.6,1.62.25-.24a28,28,0,0,1-2.71,6.9v-.35l3.72,5.67.15.23-.19.2c-2.56,2.66-5.17,5.35-7.8,8.09l-.19.19-.24-.14-5.8-3.52h.35a27.88,27.88,0,0,1-6.8,2.95l.24-.26c-.47,2.28-1,4.55-1.38,6.65l-.06.26h-.27l-11.24.19h-.27l-.06-.27c-.56-2.27-1.11-4.53-1.62-6.6l.25.25a27.66,27.66,0,0,1-6.9-2.72h.34l-5.68,3.71-.22.15-.18-.18-8.08-7.82-.17-.17.12-.21,3.53-5.8v.31a27.78,27.78,0,0,1-2.94-6.8l.22.2-6.65-1.39-.21,0v-.21c-.06-3.95-.11-7.7-.17-11.24V220l.19,0,6.6-1.6-.16.16a27.91,27.91,0,0,1,2.72-6.86v.21l-3.7-5.69-.08-.12.1-.1,7.85-8,.06-.06.08,0q2.77,1.74,4.28,2.66l1.1.7A3.49,3.49,0,0,1,687.37,201.55Z" style="fill:#e0e0e0"></path><path d="M635.09,97.91a11.57,11.57,0,0,1,2.71-1.17l.55-2.68,4.53-.08.65,2.66a10.71,10.71,0,0,1,2.74,1.08l2.29-1.5,3.26,3.14-1.42,2.34a10.79,10.79,0,0,1,1.17,2.71l2.68.55.08,4.53-2.65.65a11.49,11.49,0,0,1-1.08,2.74l1.49,2.29L649,118.43,646.61,117a11,11,0,0,1-2.7,1.18l-.56,2.67-4.52.08-.66-2.65a11.66,11.66,0,0,1-2.74-1.08l-2.29,1.49-3.25-3.14,1.41-2.34a10.93,10.93,0,0,1-1.17-2.7l-2.68-.56-.08-4.52,2.66-.66a10.86,10.86,0,0,1,1.08-2.74l-1.5-2.29,3.14-3.25,2.34,1.41Zm2.41,6a4.86,4.86,0,1,0,6.87-.12A4.86,4.86,0,0,0,637.5,103.94Z" style="fill:#e0e0e0"></path><path d="M637.5,103.94a3.7,3.7,0,0,1,.91-.79,4.77,4.77,0,0,1,3.16-.75,4.93,4.93,0,0,1,2.16.76,5.08,5.08,0,0,1,1.74,2,4.72,4.72,0,0,1,.44,1.36,4.65,4.65,0,0,1,0,1.49,5,5,0,0,1-4.1,4.25,4.72,4.72,0,0,1-1.5,0,4.65,4.65,0,0,1-1.38-.39,4.92,4.92,0,0,1-2.86-3.8,4.86,4.86,0,0,1,.64-3.19,3.72,3.72,0,0,1,.76-.93s-.29.32-.67,1a4.83,4.83,0,0,0-.53,3.1,4.76,4.76,0,0,0,.83,2,4.82,4.82,0,0,0,1.94,1.57,4.7,4.7,0,0,0,1.31.36,4.46,4.46,0,0,0,1.41,0,4.68,4.68,0,0,0,3.87-4,4.23,4.23,0,0,0,0-1.42,4.53,4.53,0,0,0-.41-1.29,4.72,4.72,0,0,0-1.64-1.88,4.61,4.61,0,0,0-2.05-.76,4.84,4.84,0,0,0-3.09.64C637.81,103.64,637.52,104,637.5,103.94Z" style="fill:#e0e0e0"></path><path d="M635.09,97.91s-.05,0-.15-.08l-.45-.25-1.76-1h0l-3.12,3.27v-.09c.45.69,1,1.46,1.51,2.28l0,.05,0,0a10.56,10.56,0,0,0-1.06,2.73l0,0h-.05l-2.66.66.08-.1q0,2.14.09,4.53l-.09-.11,2.68.56h.07l0,.07a11.08,11.08,0,0,0,1.17,2.67l0,.06,0,.07c-.44.72-.93,1.52-1.42,2.34l0-.16,3.26,3.14h-.16l2.29-1.5.06,0,.07,0a10.79,10.79,0,0,0,2.72,1.07h.08v.08l.66,2.66-.14-.1,4.53-.08-.14.11c.18-.85.37-1.76.56-2.68l0-.09.08,0a10.93,10.93,0,0,0,2.67-1.16h0l.07,0,.08,0,2.33,1.42-.17,0,3.15-3.25,0,.17c-.51-.77-1-1.54-1.5-2.29l0-.07,0-.07a11,11,0,0,0,1.06-2.71l0-.08.08,0,2.66-.65-.1.13c0-1.54-.05-3-.08-4.52l.11.12-2.68-.56-.07,0,0-.07a11.49,11.49,0,0,0-1.16-2.68l0-.06,0-.06,1.42-2.34,0,.15-3.25-3.15h.13l-2.29,1.49-.05,0,0,0a11,11,0,0,0-2.72-1.07l-.06,0v0c-.23-1-.44-1.84-.64-2.66l.08.06-4.53.06.06-.05c-.23,1.07-.41,2-.57,2.68v0h0a11.35,11.35,0,0,0-2.07.8l-.49.25c-.11.06-.16.09-.16.08l.15-.1c.1-.06.26-.16.48-.27a10.44,10.44,0,0,1,2.06-.84l0,0c.15-.73.33-1.61.54-2.68v0h.05l4.53-.1h.06l0,.06c.2.82.42,1.69.66,2.66l-.07-.07a11.24,11.24,0,0,1,2.77,1.08h-.1c.73-.47,1.48-1,2.28-1.5l.07,0,.07.06,3.26,3.14.06.06,0,.08-1.42,2.34v-.12a10.61,10.61,0,0,1,1.19,2.73l-.09-.09,2.68.56.1,0v.1c0,1.47.06,3,.08,4.53v.1l-.11,0-2.65.65.1-.1a11,11,0,0,1-1.1,2.78v-.14l1.5,2.29.06.09-.08.08-3.14,3.25-.08.08-.09,0-2.34-1.42h.14a11.27,11.27,0,0,1-2.73,1.19l.09-.11c-.19.92-.38,1.84-.55,2.68l0,.11h-.11l-4.52.08h-.11l0-.1c-.22-.92-.44-1.83-.65-2.66l.1.1a11.44,11.44,0,0,1-2.78-1.1h.14l-2.29,1.49-.08.06-.08-.07-3.25-3.15-.07-.07,0-.08c.49-.82,1-1.61,1.42-2.34v.13a11.34,11.34,0,0,1-1.18-2.74l.08.08-2.67-.56-.09,0V110c0-1.59-.05-3.1-.07-4.52v-.08l.08,0,2.66-.64-.07.06A10.83,10.83,0,0,1,631,102v.08l-1.49-2.29,0-.05,0,0,3.16-3.23,0,0,0,0,1.73,1.07.44.28Z" style="fill:#e0e0e0"></path><path d="M599.86,138.16a18.21,18.21,0,0,1,4.33-1.88l.89-4.29,7.25-.12,1,4.25a17.38,17.38,0,0,1,4.39,1.73l3.66-2.4,5.21,5-2.26,3.74a18.21,18.21,0,0,1,1.88,4.33l4.28.9.13,7.24-4.25,1a17.38,17.38,0,0,1-1.73,4.39l2.4,3.67-5,5.21-3.74-2.27a17.72,17.72,0,0,1-4.34,1.88l-.89,4.29-7.24.12-1-4.25a17.59,17.59,0,0,1-4.4-1.73l-3.66,2.4-5.21-5,2.27-3.74a17.82,17.82,0,0,1-1.88-4.33l-4.29-.9-.12-7.24,4.25-1a17.38,17.38,0,0,1,1.73-4.39l-2.4-3.67,5-5.21,3.74,2.27Zm3.86,9.65a7.77,7.77,0,1,0,11-.19A7.77,7.77,0,0,0,603.72,147.81Z" style="fill:#f5f5f5"></path><path d="M603.72,147.81a6,6,0,0,1,1.45-1.27,7.72,7.72,0,0,1,5.07-1.2,7.84,7.84,0,0,1,3.44,1.23,7.93,7.93,0,0,1,2.79,3.14,7.44,7.44,0,0,1,.71,2.18,7.36,7.36,0,0,1,0,2.39,8,8,0,0,1-2.16,4.48,7.91,7.91,0,0,1-4.4,2.31,7.11,7.11,0,0,1-2.39,0,7.41,7.41,0,0,1-2.21-.63,7.9,7.9,0,0,1-4.58-6.07,7.83,7.83,0,0,1,1-5.11,6,6,0,0,1,1.22-1.49s-.47.51-1.07,1.58a7.74,7.74,0,0,0-.85,5,7.55,7.55,0,0,0,1.33,3.24,7.68,7.68,0,0,0,3.1,2.51,7.05,7.05,0,0,0,2.09.58,6.93,6.93,0,0,0,2.27-.05,7.53,7.53,0,0,0,6.2-6.42,7.53,7.53,0,0,0-.69-4.33,7.53,7.53,0,0,0-5.9-4.23,7.76,7.76,0,0,0-4.94,1A17.9,17.9,0,0,0,603.72,147.81Z" style="fill:#f5f5f5"></path><path d="M599.86,138.16a1,1,0,0,1-.24-.12l-.72-.42L596.08,136h.09l-5,5.24V141l2.42,3.65,0,.07,0,.07a17.68,17.68,0,0,0-1.7,4.36l0,.09-.09,0-4.25,1.06.12-.16c.05,2.28.1,4.7.15,7.24l-.14-.17,4.29.89.11,0,0,.11a17.48,17.48,0,0,0,1.87,4.28l.06.1-.06.1-2.27,3.74,0-.24,5.22,5-.26,0,3.66-2.41.1-.07.12.07a17.45,17.45,0,0,0,4.34,1.7l.13,0,0,.13c.32,1.33.68,2.78,1,4.25l-.21-.16,7.24-.14-.21.18c.28-1.35.58-2.81.89-4.29l0-.13.13,0a17.82,17.82,0,0,0,4.28-1.86h0l.12-.07.11.07,3.74,2.27-.27,0,5-5.21,0,.28q-1.2-1.86-2.39-3.67l-.08-.11.07-.11a17.66,17.66,0,0,0,1.71-4.34l0-.13.13,0,4.25-1-.16.21c0-2.47-.08-4.89-.12-7.24l.16.2-4.28-.9-.12,0,0-.11a17.74,17.74,0,0,0-1.86-4.29l-.06-.1.06-.1,2.28-3.74,0,.23c-1.83-1.77-3.56-3.44-5.2-5l.21,0L617.85,138l-.08.05-.08,0a17.67,17.67,0,0,0-4.36-1.73l-.08,0,0-.09c-.38-1.54-.71-2.94-1-4.25l.13.1-7.24.09.09-.08c-.37,1.71-.67,3.12-.92,4.29v0h0a19.11,19.11,0,0,0-3.31,1.27l-.78.41a1.12,1.12,0,0,1-.26.13l.24-.16c.17-.1.42-.26.77-.44a16.65,16.65,0,0,1,3.3-1.35l0,.06L605,132v-.07h.08l7.24-.15h.11l0,.11c.33,1.31.68,2.7,1.06,4.24l-.11-.1a17.79,17.79,0,0,1,4.44,1.73h-.16l3.65-2.4.11-.08.1.1q2.48,2.37,5.22,5l.11.1-.08.13q-1.1,1.81-2.26,3.74v-.2a18.12,18.12,0,0,1,1.91,4.38l-.15-.14,4.29.88.16,0v.16c0,2.36.09,4.77.13,7.24v.17l-.17,0-4.25,1.05.16-.16a18,18,0,0,1-1.75,4.45V162q1.2,1.81,2.4,3.66l.1.15-.12.13-5,5.21-.12.13-.16-.09-3.74-2.27h.23a18,18,0,0,1-4.38,1.9l.15-.17c-.3,1.48-.61,2.94-.89,4.29l0,.17h-.17l-7.25.12h-.17l0-.16c-.36-1.47-.72-2.93-1-4.26l.16.16a18.35,18.35,0,0,1-4.45-1.75h.22l-3.66,2.39-.14.1-.12-.12-5.21-5-.11-.11.08-.13,2.28-3.74v.2a17.69,17.69,0,0,1-1.9-4.38l.14.13-4.28-.9-.14,0v-.14q-.06-3.81-.11-7.25v-.12l.13,0,4.25-1-.1.1a17.65,17.65,0,0,1,1.75-4.42v.14c-.86-1.33-1.66-2.56-2.39-3.67l0-.08L591,141l5.06-5.19,0,0,0,0,2.75,1.72.71.45Z" style="fill:#f5f5f5"></path><path d="M572.79,435.81v0l-3.3-13.46a55.88,55.88,0,0,1-13.9-5.47L544,424.47h0l-16.53-16v0l7.18-11.84a56.54,56.54,0,0,1-6-13.7l-13.59-2.83v0l-.4-23h0l13.46-3.3a56.58,56.58,0,0,1,5.47-13.9L526,328.31h0l16-16.53h0L553.87,319a56.21,56.21,0,0,1,13.7-5.95l2.82-13.59h0l23-.4v0l3.3,13.46a56.24,56.24,0,0,1,13.9,5.46l11.6-7.6h0l16.52,16v0l-7.18,11.84a56.24,56.24,0,0,1,6,13.7l13.58,2.83v0l.41,23h0L638,381a56.19,56.19,0,0,1-5.47,13.91l7.6,11.6h0l-16,16.53h0l-11.85-7.18a56.21,56.21,0,0,1-13.7,5.95l-2.83,13.59h0Zm-17.21-19h0a56.13,56.13,0,0,0,13.91,5.48h0v0l3.3,13.45,22.91-.4,2.83-13.58h0a56.37,56.37,0,0,0,13.72-6h0L624.17,423l15.91-16.49-7.6-11.59h0A56.41,56.41,0,0,0,638,381v0h0l13.46-3.3L651,354.76l-13.57-2.82v0a56.16,56.16,0,0,0-6-13.72h0l7.18-11.84-16.48-15.92-11.6,7.6h0a56.41,56.41,0,0,0-13.92-5.47h0v0l-3.3-13.45-22.9.4-2.83,13.58h0a56.37,56.37,0,0,0-13.72,6h0L542,311.83,526.1,328.32l7.6,11.59h0a56.35,56.35,0,0,0-5.48,13.92v0h0l-13.45,3.3.4,22.91,13.58,2.82v0a56.71,56.71,0,0,0,6,13.72h0l-7.17,11.84L544,424.41Zm28.22-25.5a24.63,24.63,0,0,1-17.72-41.76h0a24.31,24.31,0,0,1,8.06-5.56,24.61,24.61,0,0,1,9.24-2h.44a24.64,24.64,0,0,1,23,33.52,24.78,24.78,0,0,1-13.32,13.8,24.61,24.61,0,0,1-9.24,2Zm0-49.24h-.44a24.47,24.47,0,0,0-17.26,7.51,24.53,24.53,0,0,0-6.9,17.52,24.74,24.74,0,0,0,2,9.22,24.57,24.57,0,0,0,22.62,14.94h.44a24.6,24.6,0,0,0-.42-49.19Z" style="fill:#e0e0e0"></path><path d="M566.1,349.56a18.77,18.77,0,0,1,4.58-4,24.48,24.48,0,0,1,16.07-3.8,24.83,24.83,0,0,1,10.91,3.88,25.1,25.1,0,0,1,8.83,9.95,25.25,25.25,0,0,1,2.38,14.49,25.13,25.13,0,0,1-20.78,21.53,23.85,23.85,0,0,1-7.58.13,23.59,23.59,0,0,1-7-2,25.19,25.19,0,0,1-10.25-8.47,24.88,24.88,0,0,1-1-27,18.57,18.57,0,0,1,3.86-4.72c.13.12-1.49,1.62-3.38,5A24.53,24.53,0,0,0,560,370.32a24,24,0,0,0,14.06,18.21,22.56,22.56,0,0,0,6.63,1.85,22.17,22.17,0,0,0,7.17-.16,23.85,23.85,0,0,0,19.65-20.35,24.06,24.06,0,0,0-2.18-13.73,24.07,24.07,0,0,0-18.69-13.41A24.53,24.53,0,0,0,571,346C567.66,348,566.22,349.69,566.1,349.56Z" style="fill:#e0e0e0"></path><path d="M553.86,319a7.67,7.67,0,0,1-.76-.4l-2.27-1.32L541.89,312l.28,0-15.85,16.6,0-.44L534,339.68l.14.21-.12.22A55.88,55.88,0,0,0,528.64,354l-.07.27-.27.07-13.47,3.34.39-.5c.14,7.23.29,14.9.45,22.95l-.44-.54,13.59,2.8.34.07.1.35a55.88,55.88,0,0,0,5.92,13.56l.19.32-.19.31L528,408.82l-.1-.78L544.44,424l-.81-.08,11.59-7.62.34-.22.35.2a55.9,55.9,0,0,0,13.76,5.4l.4.1.1.4c1,4.22,2.17,8.82,3.31,13.47l-.68-.52,23-.42-.68.56c.9-4.29,1.86-8.92,2.83-13.58l.08-.42.41-.11a55.55,55.55,0,0,0,13.54-5.89h0l.37-.22.36.22,11.85,7.19-.87.11,16-16.51-.08.87-7.6-11.6-.23-.35.2-.37a55.52,55.52,0,0,0,5.42-13.75l.1-.4.4-.1L651.3,377l-.51.66q-.19-11.74-.38-22.95l.52.63-13.58-2.85-.38-.07-.1-.37A55.63,55.63,0,0,0,631,338.51l-.19-.32.19-.32L638.2,326l.09.73-16.48-16,.68.06-11.62,7.58-.26.16-.27-.14A55.54,55.54,0,0,0,596.56,313l-.28-.07-.06-.27c-1.19-4.91-2.25-9.32-3.26-13.49l.41.32-23,.3.3-.25c-1.16,5.42-2.11,9.86-2.91,13.56l0,.14-.13,0a58.19,58.19,0,0,0-10.49,4l-2.47,1.29a5.05,5.05,0,0,1-.83.42,8.83,8.83,0,0,1,.77-.52c.52-.32,1.32-.81,2.42-1.39a53.67,53.67,0,0,1,10.48-4.27l-.16.17c.74-3.71,1.64-8.17,2.74-13.6l0-.25h.26l23-.51h.33l.08.32c1,4.17,2.13,8.57,3.35,13.46l-.34-.34a56.92,56.92,0,0,1,14.06,5.49l-.53,0,11.58-7.63.36-.24.32.3,16.54,15.91.34.33-.25.4L632,338.51v-.63a56.53,56.53,0,0,1,6,13.86l-.47-.44,13.58,2.81.51.1v.52q.21,11.19.42,22.95v.54l-.52.12-13.47,3.32.5-.5a56.51,56.51,0,0,1-5.54,14.09l0-.71,7.6,11.59.31.47-.39.4-15.93,16.52-.39.4-.49-.29L612,416.44h.71a56.92,56.92,0,0,1-13.88,6l.5-.53c-1,4.66-1.94,9.29-2.83,13.58l-.12.55h-.56l-22.95.39h-.55l-.13-.54c-1.14-4.65-2.26-9.25-3.29-13.47l.5.5a57.2,57.2,0,0,1-14.09-5.56l.69,0L544.35,425l-.44.29-.38-.37L527,409l-.36-.35.26-.43,7.2-11.85V397a56.69,56.69,0,0,1-6-13.88l.44.41L515,380.63l-.43-.09v-.44c-.12-8.06-.24-15.73-.35-23v-.4l.39-.1,13.49-3.27-.34.34a57.07,57.07,0,0,1,5.56-14l0,.43-7.56-11.63-.15-.24.2-.21c6.53-6.68,11.93-12.21,16-16.42l.13-.13.15.1,8.74,5.43,2.24,1.43A5.68,5.68,0,0,1,553.86,319Z" style="fill:#e0e0e0"></path><path d="M179.47,82.33a29.53,29.53,0,0,1,7.24-3.14L188.2,72l12.1-.21,1.74,7.1a29.66,29.66,0,0,1,7.34,2.89l6.11-4,8.71,8.41-3.79,6.25a29.46,29.46,0,0,1,3.14,7.23l7.16,1.49.21,12.1-7.1,1.74a29.36,29.36,0,0,1-2.89,7.34l4,6.12-8.4,8.7-6.26-3.79a29.49,29.49,0,0,1-7.23,3.15l-1.49,7.16-12.1.21-1.74-7.1a29.75,29.75,0,0,1-7.34-2.89l-6.12,4-8.7-8.41,3.79-6.25A29.56,29.56,0,0,1,166.2,116L159,114.54l-.21-12.09,7.1-1.75a30.06,30.06,0,0,1,2.89-7.34l-4-6.11,8.41-8.71,6.25,3.79Zm6.45,16.12a13,13,0,1,0,18.36-.32A13,13,0,0,0,185.92,98.45Z" style="fill:#e0e0e0"></path><path d="M185.92,98.45a9.73,9.73,0,0,1,2.42-2.12,12.89,12.89,0,0,1,8.47-2,13,13,0,0,1,5.75,2,13.35,13.35,0,0,1,4.66,5.25,13.27,13.27,0,0,1,1.25,7.64,13.24,13.24,0,0,1-11,11.35,13.22,13.22,0,0,1-7.68-1,13.28,13.28,0,0,1-5.4-4.46,13.11,13.11,0,0,1-2.25-5.69,12.91,12.91,0,0,1,1.71-8.53,9.76,9.76,0,0,1,2-2.49c.07.06-.78.85-1.78,2.64a13,13,0,0,0-1.44,8.31,12.7,12.7,0,0,0,7.41,9.6,12.76,12.76,0,0,0,7.28.89,12.6,12.6,0,0,0,10.36-10.73,12,12,0,0,0-.05-3.78,11.77,11.77,0,0,0-1.1-3.46,12.71,12.71,0,0,0-9.85-7.07,13,13,0,0,0-8.26,1.73C186.74,97.64,186,98.52,185.92,98.45Z" style="fill:#e0e0e0"></path><path d="M179.47,82.33a3.08,3.08,0,0,1-.4-.21l-1.2-.69-4.71-2.79h.14L165,87.38l0-.23,4,6.09.08.11-.07.12a29.68,29.68,0,0,0-2.84,7.29l0,.15-.15,0-7.1,1.76.21-.26q.1,5.72.24,12.1l-.24-.28,7.17,1.47.18,0,.05.18a29.06,29.06,0,0,0,3.12,7.15l.1.17-.1.17c-1.17,1.94-2.46,4.08-3.78,6.25l-.05-.41,8.71,8.4-.43,0,6.11-4,.18-.11.19.1a29.38,29.38,0,0,0,7.25,2.85l.22,0,0,.21c.54,2.23,1.14,4.65,1.74,7.1l-.36-.27,12.1-.22-.35.29c.47-2.26,1-4.7,1.49-7.16l0-.22.22-.06a29.51,29.51,0,0,0,7.14-3.1h0l.2-.12.19.12,6.25,3.79-.46.06,8.41-8.71-.05.46-4-6.12-.12-.18.1-.19a29.35,29.35,0,0,0,2.86-7.25l.05-.22.22,0,7.1-1.73-.27.35q-.1-6.2-.2-12.1l.27.33-7.16-1.5-.19,0-.06-.2a29.22,29.22,0,0,0-3.1-7.16l-.1-.16.1-.17c1.31-2.14,2.57-4.22,3.8-6.25l0,.39c-3-3-5.94-5.76-8.69-8.43l.36,0-6.13,4-.13.09-.14-.08A29.72,29.72,0,0,0,202,79.16l-.15,0,0-.14c-.62-2.59-1.19-4.91-1.72-7.11l.22.17-12.1.16.16-.14c-.61,2.86-1.12,5.2-1.54,7.15v.08h-.07a31.67,31.67,0,0,0-5.53,2.13l-1.31.68a3,3,0,0,1-.43.22,4.69,4.69,0,0,1,.4-.27c.28-.17.7-.43,1.28-.74a29.31,29.31,0,0,1,5.52-2.25l-.08.09c.39-2,.87-4.3,1.44-7.17l0-.13h.13l12.1-.26h.18l0,.17c.54,2.2,1.12,4.52,1.76,7.1l-.17-.18a30.42,30.42,0,0,1,7.41,2.89h-.28l6.11-4,.19-.12.16.16L224.41,86l.18.17-.13.22q-1.83,3-3.78,6.25v-.33a29.78,29.78,0,0,1,3.19,7.31l-.25-.23,7.16,1.48.27.05v.28q.12,5.89.23,12.09v.29l-.28.07-7.1,1.74.26-.26a29.83,29.83,0,0,1-2.92,7.43v-.38l4,6.12.16.24-.2.21-8.41,8.71-.2.22-.26-.16-6.25-3.79h.38a30.61,30.61,0,0,1-7.32,3.18l.26-.29-1.49,7.16-.06.29h-.29l-12.1.21h-.3l-.06-.28c-.6-2.45-1.2-4.88-1.74-7.11l.26.27a30.47,30.47,0,0,1-7.42-2.93l.36,0-6.12,4-.23.15-.2-.19-8.69-8.42-.19-.18.13-.23c1.33-2.17,2.63-4.31,3.8-6.25v.34a30.08,30.08,0,0,1-3.16-7.32l.23.22L159,114.83l-.23,0v-.23q-.1-6.37-.19-12.1v-.21l.21,0,7.11-1.72-.18.18a29.84,29.84,0,0,1,2.93-7.39v.22c-1.44-2.21-2.78-4.27-4-6.13l-.09-.13.11-.1,8.45-8.66.07-.07.08,0,4.61,2.87,1.18.75A3.22,3.22,0,0,1,179.47,82.33Z" style="fill:#e0e0e0"></path><path d="M58.72,218.71a21.14,21.14,0,0,1,5.22-2.27L65,211.27l8.73-.15L75,216.24a21.43,21.43,0,0,1,5.3,2.09l4.41-2.9L91,221.5,88.26,226a21.49,21.49,0,0,1,2.26,5.22l5.17,1.07.15,8.73-5.12,1.26a21.43,21.43,0,0,1-2.09,5.3l2.9,4.41-6.07,6.28L81,255.55a21.49,21.49,0,0,1-5.22,2.26L74.66,263l-8.73.15L64.67,258a21.43,21.43,0,0,1-5.3-2.09L55,258.82l-6.28-6.07,2.73-4.51A21.49,21.49,0,0,1,49.15,243L44,242l-.15-8.73L49,232a21.43,21.43,0,0,1,2.09-5.3l-2.9-4.41L54.21,216l4.51,2.74Zm4.65,11.62a9.37,9.37,0,1,0,13.25-.23A9.37,9.37,0,0,0,63.37,230.33Z" style="fill:#e0e0e0"></path><path d="M63.37,230.33a7.06,7.06,0,0,1,1.75-1.53,9.31,9.31,0,0,1,6.11-1.44,9.48,9.48,0,0,1,7.51,5.26,9.59,9.59,0,0,1,.9,5.51,9.55,9.55,0,0,1-2.6,5.4,9.67,9.67,0,0,1-5.3,2.79,9.56,9.56,0,0,1-5.54-.71,9.52,9.52,0,0,1-3.9-3.22,9.49,9.49,0,0,1-.4-10.26,7.32,7.32,0,0,1,1.47-1.8c.05,0-.56.62-1.28,1.9a9.31,9.31,0,0,0-1,6,9.16,9.16,0,0,0,5.35,6.93,8.48,8.48,0,0,0,2.52.7,8.65,8.65,0,0,0,2.73-.06,9.13,9.13,0,0,0,5-2.64,9.22,9.22,0,0,0,2.46-5.1,9.16,9.16,0,0,0-.83-5.22,9.11,9.11,0,0,0-7.11-5.1,9.3,9.3,0,0,0-6,1.24C64,229.75,63.42,230.38,63.37,230.33Z" style="fill:#e0e0e0"></path><path d="M58.72,218.7a1.36,1.36,0,0,1-.29-.15l-.87-.5-3.4-2h.11l-6,6.32,0-.17,2.91,4.4,0,.08,0,.08A21.91,21.91,0,0,0,49.12,232l0,.11-.11,0-5.12,1.27.15-.19c0,2.75.11,5.67.17,8.73l-.17-.2,5.17,1.06.13,0,0,.13a21.25,21.25,0,0,0,2.25,5.16l.08.12-.08.12-2.73,4.52,0-.3,6.28,6.06-.31,0c1.38-.9,2.89-1.89,4.41-2.9l.13-.08.14.07a21.52,21.52,0,0,0,5.23,2.06l.15,0,0,.16c.4,1.6.83,3.35,1.26,5.12l-.26-.2,8.73-.16-.26.22c.34-1.64.71-3.4,1.08-5.17l0-.16.16,0a21.3,21.3,0,0,0,5.15-2.24h0l.14-.09.14.09c1.52.91,3,1.83,4.51,2.73l-.33,0,6.07-6.28,0,.33-2.89-4.41-.08-.13.07-.14a21.28,21.28,0,0,0,2.07-5.23l0-.15.16,0,5.12-1.25-.19.25q-.07-4.47-.15-8.73l.2.24-5.16-1.08-.15,0,0-.14a21,21,0,0,0-2.23-5.17L88,226l.08-.12,2.74-4.51,0,.28-6.27-6.08.25,0-4.42,2.88-.09.06-.11-.06A21.66,21.66,0,0,0,75,216.41l-.11,0,0-.11c-.45-1.86-.86-3.54-1.24-5.13l.16.13-8.73.11.11-.1c-.44,2.07-.8,3.76-1.11,5.16v.06H64a22.56,22.56,0,0,0-4,1.54l-.94.49a1.73,1.73,0,0,1-.31.15l.29-.19c.2-.13.5-.31.92-.53a20.56,20.56,0,0,1,4-1.63l-.07.07c.29-1.41.63-3.11,1.05-5.17l0-.1H65l8.73-.19h.13l0,.13,1.27,5.12-.13-.13a21.61,21.61,0,0,1,5.35,2.09h-.2l4.41-2.9.13-.09.12.12,6.3,6.05.12.12-.09.15c-.88,1.47-1.79,3-2.73,4.52v-.24a21.51,21.51,0,0,1,2.31,5.27l-.19-.17,5.17,1.07.19,0v.2q.07,4.26.16,8.73v.2l-.19.05-5.13,1.26.19-.19a21.94,21.94,0,0,1-2.1,5.37v-.28q1.42,2.19,2.89,4.41l.12.18-.15.15c-2,2.07-4,4.16-6.06,6.29l-.15.15-.19-.11c-1.49-.9-3-1.82-4.51-2.73h.28a22,22,0,0,1-5.29,2.29l.19-.2c-.37,1.77-.73,3.53-1.07,5.17l0,.2h-.21l-8.73.15h-.21l0-.2-1.25-5.13.19.19a21.87,21.87,0,0,1-5.36-2.11h.26L55.1,259l-.17.11-.14-.14-6.28-6.08-.13-.13.1-.16,2.74-4.51v.24a22,22,0,0,1-2.29-5.28l.17.16-5.16-1.09-.17,0V242c-.05-3.06-.09-6-.13-8.73v-.15l.15,0,5.13-1.24-.13.13a21.57,21.57,0,0,1,2.12-5.33v.16L48,222.33l-.06-.1.08-.07,6.1-6.25,0,0,.06,0L57.58,218l.85.55Z" style="fill:#e0e0e0"></path><path d="M136,34.51a17.82,17.82,0,0,1,4.33-1.88l.9-4.29,7.24-.13,1,4.26a17.59,17.59,0,0,1,4.4,1.73l3.66-2.4,5.21,5-2.27,3.74a17.82,17.82,0,0,1,1.88,4.33l4.29.89.12,7.25-4.25,1a17.52,17.52,0,0,1-1.73,4.39l2.4,3.66-5,5.21-3.74-2.26A18.21,18.21,0,0,1,150.15,67l-.89,4.28-7.25.13-1-4.25a17.76,17.76,0,0,1-4.39-1.73l-3.66,2.4-5.22-5L130,59a18.11,18.11,0,0,1-1.88-4.34l-4.29-.89-.12-7.24,4.25-1a17.59,17.59,0,0,1,1.73-4.4l-2.4-3.66,5-5.21L136,34.51Zm3.86,9.65a7.77,7.77,0,1,0,11-.19A7.77,7.77,0,0,0,139.89,44.16Z" style="fill:#f5f5f5"></path><path d="M139.89,44.16a6,6,0,0,1,1.45-1.27,7.74,7.74,0,0,1,5.07-1.2,7.84,7.84,0,0,1,6.23,4.36,7.64,7.64,0,0,1,.71,2.18,7.42,7.42,0,0,1,0,2.4,7.9,7.9,0,0,1-6.56,6.79,7.38,7.38,0,0,1-2.39,0,7.26,7.26,0,0,1-2.2-.63A8,8,0,0,1,139,54.16a7.84,7.84,0,0,1-1.34-3.4,7.68,7.68,0,0,1,1-5.11,5.82,5.82,0,0,1,1.21-1.49c.05,0-.46.51-1.06,1.58a7.65,7.65,0,0,0,3.57,10.72,7.34,7.34,0,0,0,2.1.58,7.16,7.16,0,0,0,2.26,0,7.55,7.55,0,0,0,4.16-2.19,7.64,7.64,0,0,0,2-4.23,7.55,7.55,0,0,0-.69-4.34A7.66,7.66,0,0,0,141.43,43C140.39,43.67,139.93,44.2,139.89,44.16Z" style="fill:#f5f5f5"></path><path d="M136,34.51a1.55,1.55,0,0,1-.24-.13l-.72-.41-2.82-1.67h.09l-5,5.24v-.14L129.77,41l0,.07,0,.07a17.53,17.53,0,0,0-1.7,4.36l0,.09-.08,0-4.25,1.05.12-.15c0,2.28.09,4.7.14,7.24l-.14-.17,4.29.88.11,0,0,.1a17.76,17.76,0,0,0,1.87,4.29l.06.1-.06.1-2.27,3.74,0-.25,5.22,5-.26,0,3.66-2.41.11-.07.11.06A17.62,17.62,0,0,0,141,66.91l.13,0,0,.13c.33,1.33.68,2.78,1,4.25l-.21-.17,7.24-.13-.21.18c.28-1.36.58-2.82.89-4.29l0-.13.13,0a17.49,17.49,0,0,0,4.27-1.85h0l.12-.06.11.06,3.75,2.27-.28,0,5-5.21,0,.27-2.4-3.66-.07-.11.06-.11A17.66,17.66,0,0,0,162.37,54l0-.13.13,0,4.25-1-.16.21c0-2.47-.08-4.89-.12-7.24l.17.19-4.29-.89-.12,0,0-.11a17.74,17.74,0,0,0-1.86-4.29l-.06-.1.06-.1,2.28-3.74,0,.23-5.2-5,.21,0L154,34.33l-.08.05-.08,0a17.61,17.61,0,0,0-4.35-1.73l-.09,0,0-.09c-.37-1.55-.71-2.94-1-4.25l.13.1-7.24.09.09-.08c-.36,1.71-.66,3.11-.92,4.28v0h-.05A18.32,18.32,0,0,0,137.07,34l-.78.41a1.56,1.56,0,0,1-.26.13l.24-.16c.17-.11.42-.26.77-.44a16.91,16.91,0,0,1,3.3-1.35l-.05,0c.24-1.17.52-2.57.87-4.29v-.08h.08l7.25-.16h.1l0,.1c.32,1.32.67,2.71,1.05,4.25l-.1-.11A17.92,17.92,0,0,1,154,34.06h-.16l3.65-2.41.12-.07.09.09,5.23,5,.1.11-.07.12-2.27,3.75v-.2a18,18,0,0,1,1.91,4.38l-.15-.14,4.29.88.16,0v.16c.05,2.35.09,4.77.14,7.24v.17l-.17,0-4.25,1,.16-.16A18,18,0,0,1,161,58.58v-.23l2.4,3.66.09.15-.12.13-5,5.21-.12.13-.15-.1-3.75-2.26h.23a17.85,17.85,0,0,1-4.38,1.9l.15-.17c-.3,1.47-.61,2.94-.89,4.29l0,.17h-.18l-7.24.12h-.18l0-.17c-.36-1.46-.71-2.92-1-4.25l.16.16a18,18,0,0,1-4.45-1.76h.22L133,68l-.14.09-.12-.11-5.2-5-.12-.11.08-.14c.8-1.3,1.57-2.58,2.28-3.73v.19a18.47,18.47,0,0,1-1.9-4.38l.14.13-4.28-.9-.14,0V53.8q-.06-3.82-.11-7.25v-.12l.12,0,4.26-1-.11.11a18,18,0,0,1,1.75-4.42v.13l-2.38-3.67,0-.07.06-.07,5.06-5.18,0,0,.05,0,2.75,1.72.71.45Z" style="fill:#f5f5f5"></path><path d="M97.44,202.29v0l-2.8-11.43a47.93,47.93,0,0,1-11.81-4.65L73,192.65h0L58.9,179.08l0,0L65,169A47.6,47.6,0,0,1,60,157.36L48.41,155v0l-.34-19.52h0l11.43-2.81a48.09,48.09,0,0,1,4.65-11.81l-6.46-9.86h0l13.56-14h0L81.36,103A48.2,48.2,0,0,1,93,97.92l2.41-11.54h0L115,86v0l2.81,11.44a47.7,47.7,0,0,1,11.81,4.65l9.86-6.47v0l14.05,13.56v0l-6.1,10.06A48.2,48.2,0,0,1,152.44,131l11.54,2.4v0l.35,19.53h0l-11.44,2.8a47.39,47.39,0,0,1-4.65,11.81l6.47,9.86,0,0-13.56,14.05h0L131,185.34a47.43,47.43,0,0,1-11.64,5.06L117,202h0ZM82.82,186.13h0a47.77,47.77,0,0,0,11.82,4.65h0l2.8,11.43L117,201.9l2.4-11.54h0A48,48,0,0,0,131,185.29h0l10,6.1,13.52-14-6.45-9.85v0a47.79,47.79,0,0,0,4.66-11.82v0h0l11.44-2.8-.35-19.47L152.4,131h0a48,48,0,0,0-5.06-11.66h0v0l6.1-10-14-13.52-9.85,6.45h0a47.71,47.71,0,0,0-11.83-4.66h0l-2.8-11.44-19.46.35L93.05,98h0A47.72,47.72,0,0,0,81.38,103h0l-10.06-6.1-13.52,14,6.46,9.85h0a48,48,0,0,0-4.65,11.83h0l-11.43,2.8.34,19.46L60,157.31v0A47.6,47.6,0,0,0,65.07,169h0L59,179.07l14,13.52Zm24-21.66a20.95,20.95,0,0,1-.36-41.89h.38a20.95,20.95,0,0,1,.36,41.89ZM91.76,129l0,0a20.89,20.89,0,0,0,15,35.41h.38a20.9,20.9,0,0,0-.36-41.79h-.37A20.75,20.75,0,0,0,91.78,129Z" style="fill:#e0e0e0"></path><path d="M91.76,129a15.76,15.76,0,0,1,3.9-3.42,21.15,21.15,0,0,1,22.92.07,21.51,21.51,0,0,1,7.51,8.45A20.37,20.37,0,0,1,128,140a20.12,20.12,0,0,1,.12,6.44,21.37,21.37,0,0,1-17.66,18.3,21.6,21.6,0,0,1-12.38-1.59,21.21,21.21,0,0,1-12.34-16.36A20.87,20.87,0,0,1,88.48,133a15.92,15.92,0,0,1,3.28-4c.11.1-1.26,1.38-2.88,4.25a20.89,20.89,0,0,0-2.31,13.39,20.43,20.43,0,0,0,12,15.48,20.44,20.44,0,0,0,11.73,1.44,20.26,20.26,0,0,0,16.69-17.3,18.83,18.83,0,0,0-.08-6.09,19.26,19.26,0,0,0-1.77-5.58,20.4,20.4,0,0,0-15.88-11.39A20.82,20.82,0,0,0,95.9,126C93.09,127.68,91.86,129.1,91.76,129Z" style="fill:#e0e0e0"></path><path d="M81.36,103a4.94,4.94,0,0,1-.65-.34l-1.93-1.12-7.59-4.48.23,0L58,111.15l0-.38,6.5,9.83.12.17-.1.19a47.3,47.3,0,0,0-4.58,11.76l-.06.23-.23.06-11.45,2.84.33-.43c.12,6.14.25,12.66.39,19.5l-.38-.45,11.55,2.38.29.06.08.29a47.77,47.77,0,0,0,5,11.53l.16.27-.16.27-6.1,10.08-.08-.66,14,13.53-.7-.07c3.07-2,6.44-4.22,9.85-6.47l.29-.19.3.17a47.16,47.16,0,0,0,11.7,4.59l.34.09.08.34L98,202.13l-.58-.45,19.51-.35-.58.47c.76-3.64,1.58-7.58,2.4-11.54l.08-.36.34-.09a47.51,47.51,0,0,0,11.51-5h0l.32-.18.3.18,10.08,6.11-.74.1,13.55-14-.07.74-6.46-9.86-.19-.3.17-.31a47.51,47.51,0,0,0,4.61-11.69l.08-.34.34-.08,11.45-2.8-.43.57q-.16-10-.32-19.51l.44.53-11.54-2.41-.32-.07-.09-.31a47,47,0,0,0-5-11.54l-.16-.27.16-.27C149,115.61,151,112.26,153,109l.08.62c-4.93-4.77-9.58-9.28-14-13.58l.57.06-9.87,6.43-.22.15-.23-.13a47.74,47.74,0,0,0-11.72-4.65l-.23-.06-.06-.23c-1-4.16-1.91-7.91-2.76-11.46l.35.27-19.51.26.26-.21c-1,4.6-1.8,8.38-2.48,11.52l0,.12-.11,0a49.5,49.5,0,0,0-8.92,3.43l-2.1,1.1a3.7,3.7,0,0,1-.7.35s.23-.17.65-.44,1.13-.69,2.06-1.19A46.64,46.64,0,0,1,93,97.76l-.13.14c.63-3.15,1.39-6.94,2.32-11.55l0-.21h.21l19.5-.43h.29l.06.28c.88,3.53,1.81,7.28,2.85,11.44l-.29-.29a47.83,47.83,0,0,1,12,4.66h-.45l9.84-6.48.31-.2.26.25,14.06,13.52.29.28-.21.34c-2,3.28-4,6.63-6.09,10.09v-.54a48.08,48.08,0,0,1,5.14,11.78l-.4-.37,11.54,2.38.43.09v.45q.18,9.51.36,19.5v.45l-.44.11L153,156.27l.42-.43a48.06,48.06,0,0,1-4.7,12l0-.61,6.46,9.86.26.39-.33.34-13.54,14-.33.34-.41-.24-10.08-6.11h.61a48,48,0,0,1-11.8,5.13l.42-.46c-.82,4-1.64,7.9-2.4,11.55l-.1.46H117l-19.51.33H97l-.11-.45c-1-4-1.92-7.87-2.8-11.46l.43.43a48.67,48.67,0,0,1-12-4.72l.59,0-9.87,6.45-.37.24-.32-.31-14-13.56-.31-.3.22-.36,6.12-10.07v.54a48.73,48.73,0,0,1-5.1-11.8l.38.35-11.54-2.43-.37-.07v-.38c-.1-6.84-.2-13.36-.29-19.5v-.34L48,135l11.46-2.78-.29.29a48.31,48.31,0,0,1,4.73-11.91V121l-6.42-9.88-.13-.2.17-.18,13.63-14,.11-.11.12.08,7.43,4.62,1.91,1.21A7.24,7.24,0,0,1,81.36,103Z" style="fill:#e0e0e0"></path></g><g id="freepik--Device--inject-59"><path d="M514.4,117.53H120.07a12.31,12.31,0,0,0-12.31,12.31V408.37a12.31,12.31,0,0,0,12.31,12.31H271.41s9.63,29.76-20.21,45.17H392.71s-33.69-11.55-25-45.17H514.4a12.31,12.31,0,0,0,12.31-12.31V129.84A12.31,12.31,0,0,0,514.4,117.53Z" style="fill:#455a64"></path><path d="M322.5,391.38c5.36,7.67-3,16.06-10.7,10.7a3,3,0,0,1-.66-.66c-5.35-7.66,3-16.05,10.7-10.7A3,3,0,0,1,322.5,391.38Z" style="fill:#263238"></path><path d="M124.25,122.63h386a9.7,9.7,0,0,1,9.7,9.7V369.72a0,0,0,0,1,0,0H114.55a0,0,0,0,1,0,0V132.33a9.7,9.7,0,0,1,9.7-9.7Z" style="fill:#fff"></path><path d="M443.9,420.71c0,.14-56.11.24-125.32.24s-125.33-.1-125.33-.24,56.11-.23,125.33-.23S443.9,420.58,443.9,420.71Z" style="fill:#263238"></path><rect x="123.49" y="132.8" width="387.48" height="236.92" style="fill:#263238"></rect><path d="M153.14,369.64c-.2,0-.37-46.59-.37-104s.17-104,.37-104,.38,46.57.38,104S153.35,369.64,153.14,369.64Z" style="fill:#e0e0e0"></path><path d="M153.14,369.87c-.1,0-.16,0-.21-.29h0c-.09-.63-.11-2.5-.16-8.1,0-5.24-.08-12.74-.11-22.29-.08-19.65-.11-45.77-.11-73.56s0-53.93.11-73.57c0-9.56.07-17.06.11-22.3.05-5.59.07-7.47.16-8.09v0h0c0-.3.11-.3.21-.3s.17,0,.22.3h0v0c.09.63.11,2.5.15,8.09,0,5.24.09,12.74.12,22.3.07,19.66.11,45.78.11,73.57s0,53.9-.11,73.56c0,9.55-.07,17.05-.12,22.29,0,5.6-.06,7.47-.15,8.1h0C153.31,369.87,153.25,369.87,153.14,369.87Zm0-185.39c-.08,19.14-.14,48.52-.14,81.13s.06,62,.14,81.12c.09-19.15.14-48.52.14-81.12S153.23,203.62,153.14,184.48Z" style="fill:#e0e0e0"></path><path d="M145.11,170.34c0,.21-2.9.38-6.48.38s-6.47-.17-6.47-.38,2.9-.37,6.47-.37S145.11,170.14,145.11,170.34Z" style="fill:#e0e0e0"></path><path d="M138.63,171c-6.71,0-6.71-.39-6.71-.61s0-.61,6.71-.61,6.71.4,6.71.61S145.34,171,138.63,171Zm-5-.61c1.06.08,2.76.14,5,.14s4-.06,5.05-.14c-1.06-.07-2.76-.14-5.05-.14S134.64,170.27,133.58,170.34Z" style="fill:#e0e0e0"></path><path d="M145.11,184.05c0,.21-2.9.38-6.48.38s-6.47-.17-6.47-.38,2.9-.37,6.47-.37S145.11,183.85,145.11,184.05Z" style="fill:#e0e0e0"></path><path d="M138.63,184.66c-6.71,0-6.71-.39-6.71-.61s0-.61,6.71-.61,6.71.4,6.71.61S145.34,184.66,138.63,184.66Zm-5-.61c1.06.08,2.76.14,5,.14s4-.06,5.05-.14c-1.06-.07-2.76-.14-5.05-.14S134.64,184,133.58,184.05Z" style="fill:#e0e0e0"></path><path d="M145.11,197.76c0,.21-2.9.38-6.48.38s-6.47-.17-6.47-.38,2.9-.37,6.47-.37S145.11,197.56,145.11,197.76Z" style="fill:#e0e0e0"></path><path d="M138.63,198.37c-6.71,0-6.71-.39-6.71-.61s0-.6,6.71-.6,6.71.39,6.71.6S145.34,198.37,138.63,198.37Zm-5-.61c1.06.08,2.75.14,5,.14s4-.06,5.05-.14c-1.06-.07-2.76-.14-5.05-.14S134.65,197.69,133.59,197.76Z" style="fill:#e0e0e0"></path><path d="M145.11,211.47c0,.21-2.9.38-6.48.38s-6.47-.17-6.47-.38,2.9-.37,6.47-.37S145.11,211.27,145.11,211.47Z" style="fill:#e0e0e0"></path><path d="M138.63,212.08c-6.71,0-6.71-.39-6.71-.61s0-.61,6.71-.61,6.71.4,6.71.61S145.34,212.08,138.63,212.08Zm-5-.6c1.06.07,2.75.13,5,.13s4-.06,5-.13c-1.09-.08-2.82-.15-5-.15S134.69,211.4,133.6,211.48Z" style="fill:#e0e0e0"></path><path d="M145.11,225.18c0,.21-2.9.38-6.48.38s-6.47-.17-6.47-.38,2.9-.37,6.47-.37S145.11,225,145.11,225.18Z" style="fill:#e0e0e0"></path><path d="M138.63,225.79c-6.71,0-6.71-.39-6.71-.61s0-.6,6.71-.6,6.71.39,6.71.6S145.34,225.79,138.63,225.79Zm-5-.61c1.06.08,2.75.14,5,.14s4-.06,5.05-.14c-1.06-.07-2.76-.14-5.05-.14S134.65,225.11,133.59,225.18Z" style="fill:#e0e0e0"></path><path d="M145.11,238.89c0,.21-2.9.38-6.48.38s-6.47-.17-6.47-.38,2.9-.37,6.47-.37S145.11,238.69,145.11,238.89Z" style="fill:#e0e0e0"></path><path d="M138.63,239.5c-6.71,0-6.71-.39-6.71-.61s0-.6,6.71-.6,6.71.39,6.71.6S145.34,239.5,138.63,239.5Zm-5-.61c1.06.08,2.75.14,5,.14s4-.06,5.05-.14c-1.06-.07-2.76-.13-5.05-.13S134.65,238.82,133.59,238.89Z" style="fill:#e0e0e0"></path><path d="M145.11,252.6c0,.21-2.9.38-6.48.38s-6.47-.17-6.47-.38,2.9-.37,6.47-.37S145.11,252.4,145.11,252.6Z" style="fill:#e0e0e0"></path><path d="M138.63,253.21c-6.71,0-6.71-.39-6.71-.61s0-.6,6.71-.6,6.71.39,6.71.6S145.34,253.21,138.63,253.21Zm-5-.61c1.06.08,2.76.15,5,.15s4-.07,5.05-.15c-1.06-.07-2.76-.14-5.05-.14S134.64,252.53,133.58,252.6Z" style="fill:#e0e0e0"></path><path d="M145.11,266.32c0,.2-2.9.37-6.48.37s-6.47-.17-6.47-.37,2.9-.38,6.47-.38S145.11,266.11,145.11,266.32Z" style="fill:#e0e0e0"></path><path d="M138.63,266.92c-6.71,0-6.71-.39-6.71-.6s0-.61,6.71-.61,6.71.39,6.71.61S145.34,266.92,138.63,266.92Zm-5-.6c1.06.07,2.75.13,5,.13s4-.06,5.05-.13c-1.06-.08-2.76-.14-5.05-.14S134.65,266.24,133.59,266.32Z" style="fill:#e0e0e0"></path><path d="M145.11,280c0,.2-2.9.37-6.48.37s-6.47-.17-6.47-.37,2.9-.38,6.47-.38S145.11,279.82,145.11,280Z" style="fill:#e0e0e0"></path><path d="M138.63,280.63c-6.71,0-6.71-.39-6.71-.6s0-.61,6.71-.61,6.71.39,6.71.61S145.34,280.63,138.63,280.63Zm-5-.6c1.06.07,2.75.14,5,.14s4-.07,5-.14c-1.09-.08-2.82-.14-5-.14S134.69,280,133.6,280Z" style="fill:#e0e0e0"></path><path d="M145.11,293.74c0,.2-2.9.37-6.48.37s-6.47-.17-6.47-.37,2.9-.38,6.47-.38S145.11,293.53,145.11,293.74Z" style="fill:#e0e0e0"></path><path d="M138.63,294.34c-6.71,0-6.71-.39-6.71-.6s0-.61,6.71-.61,6.71.39,6.71.61S145.34,294.34,138.63,294.34Zm-5-.61c1.09.08,2.81.15,5,.15s4-.07,5-.15c-1.06-.07-2.76-.13-5-.13S134.66,293.66,133.6,293.73Z" style="fill:#e0e0e0"></path><path d="M145.11,307.45c0,.2-2.9.37-6.48.37s-6.47-.17-6.47-.37,2.9-.38,6.47-.38S145.11,307.24,145.11,307.45Z" style="fill:#e0e0e0"></path><path d="M138.63,308.05c-6.71,0-6.71-.39-6.71-.6s0-.61,6.71-.61,6.71.39,6.71.61S145.34,308.05,138.63,308.05Zm-5-.6c1.06.07,2.75.14,5,.14s4-.07,5.05-.14c-1.06-.08-2.76-.14-5.05-.14S134.65,307.37,133.59,307.45Z" style="fill:#e0e0e0"></path><path d="M145.11,321.16c0,.2-2.9.37-6.48.37s-6.47-.17-6.47-.37,2.9-.38,6.47-.38S145.11,321,145.11,321.16Z" style="fill:#e0e0e0"></path><path d="M138.63,321.77c-6.71,0-6.71-.4-6.71-.61s0-.61,6.71-.61,6.71.39,6.71.61S145.34,321.77,138.63,321.77Zm-5-.61c1.06.07,2.75.14,5,.14s4-.07,5-.14c-1.09-.08-2.82-.14-5-.14S134.69,321.08,133.6,321.16Z" style="fill:#e0e0e0"></path><path d="M145.11,334.87c0,.2-2.9.37-6.48.37s-6.47-.17-6.47-.37,2.9-.38,6.47-.38S145.11,334.66,145.11,334.87Z" style="fill:#e0e0e0"></path><path d="M138.63,335.47c-6.71,0-6.71-.39-6.71-.6s0-.61,6.71-.61,6.71.39,6.71.61S145.34,335.47,138.63,335.47Zm-5-.6c1.06.07,2.75.14,5,.14s4-.07,5.05-.14c-1.06-.08-2.76-.14-5.05-.14S134.65,334.79,133.59,334.87Z" style="fill:#e0e0e0"></path><path d="M145.11,348.58c0,.2-2.9.37-6.48.37s-6.47-.17-6.47-.37,2.9-.38,6.47-.38S145.11,348.37,145.11,348.58Z" style="fill:#e0e0e0"></path><path d="M138.63,349.19c-6.71,0-6.71-.4-6.71-.61s0-.61,6.71-.61,6.71.39,6.71.61S145.34,349.19,138.63,349.19Zm-5-.61c1.06.07,2.75.14,5,.14s4-.07,5.05-.14c-1.06-.08-2.76-.14-5.05-.14S134.65,348.5,133.59,348.58Z" style="fill:#e0e0e0"></path><path d="M145.11,362.29c0,.2-2.9.37-6.48.37s-6.47-.17-6.47-.37,2.9-.38,6.47-.38S145.11,362.08,145.11,362.29Z" style="fill:#e0e0e0"></path><path d="M138.63,362.9c-6.71,0-6.71-.4-6.71-.61s0-.61,6.71-.61,6.71.39,6.71.61S145.34,362.9,138.63,362.9Zm-5-.61c1.06.07,2.76.14,5,.14s4-.07,5.05-.14c-1.06-.08-2.76-.14-5.05-.14S134.64,362.21,133.58,362.29Z" style="fill:#e0e0e0"></path><path d="M197,169.54c0,.2-7.52.37-16.8.37s-16.8-.17-16.8-.37,7.52-.38,16.8-.38S197,169.33,197,169.54Z" style="fill:#FF725E"></path><path d="M180.2,170.14c-4.49,0-8.71,0-11.89-.11-5.15-.11-5.15-.2-5.15-.49s0-.39,5.15-.5c3.18-.07,7.4-.11,11.89-.11s8.71,0,11.88.11c5.15.11,5.15.2,5.15.5s0,.38-5.15.49C188.91,170.11,184.69,170.14,180.2,170.14Zm-13.12-.6c2.93.08,7.49.14,13.12.14s10.19-.06,13.12-.14c-2.93-.09-7.49-.14-13.12-.14S170,169.45,167.08,169.54Z" style="fill:#FF725E"></path><path d="M197,362.29c0,.2-7.52.37-16.8.37s-16.8-.17-16.8-.37,7.52-.38,16.8-.38S197,362.08,197,362.29Z" style="fill:#FF725E"></path><path d="M180.2,362.9c-4.49,0-8.71,0-11.89-.11-5.15-.12-5.15-.21-5.15-.5s0-.39,5.15-.5c3.18-.07,7.4-.11,11.89-.11s8.71,0,11.88.11c5.15.11,5.15.2,5.15.5s0,.38-5.15.5C188.91,362.86,184.69,362.9,180.2,362.9Zm-13.12-.61c2.93.08,7.48.14,13.12.14s10.19-.06,13.12-.14c-2.93-.09-7.48-.14-13.12-.14S170,362.2,167.08,362.29Z" style="fill:#FF725E"></path><path d="M243.79,197.76c0,.21-14.07.38-31.43.38s-31.43-.17-31.43-.38,14.07-.37,31.43-.37S243.79,197.56,243.79,197.76Z" style="fill:#FF725E"></path><path d="M212.36,198.37c-8.4,0-16.29,0-22.23-.11-9.44-.11-9.44-.18-9.44-.5s0-.38,9.44-.49c5.94-.08,13.84-.11,22.23-.11s16.29,0,22.23.11c9.44.11,9.44.17,9.44.49s0,.39-9.44.5C228.65,198.33,220.76,198.37,212.36,198.37Zm-24.49-.61c5.47.09,13.94.14,24.49.14s19-.05,24.5-.14c-5.47-.08-14-.14-24.5-.14S193.34,197.68,187.87,197.76Z" style="fill:#FF725E"></path><path d="M316.49,197.76c0,.21-14.08.38-31.43.38s-31.44-.17-31.44-.38,14.07-.37,31.44-.37S316.49,197.56,316.49,197.76Z" style="fill:#e0e0e0"></path><path d="M285.06,198.37c-8.4,0-16.3,0-22.24-.11-9.43-.11-9.43-.18-9.43-.5s0-.38,9.43-.49c5.95-.08,13.84-.11,22.24-.11s16.28,0,22.22.11c9.44.11,9.44.17,9.44.49s0,.39-9.44.5C301.35,198.33,293.45,198.37,285.06,198.37Zm-24.5-.61c5.47.09,13.95.14,24.5.14s19-.05,24.49-.14c-5.47-.08-13.95-.14-24.49-.14S266,197.68,260.56,197.76Z" style="fill:#e0e0e0"></path><path d="M288.71,211.47c0,.21-20.75.38-46.33.38s-46.32-.17-46.32-.38,20.73-.37,46.32-.37S288.71,211.27,288.71,211.47Z" style="fill:#e0e0e0"></path><path d="M242.38,212.08c-12.38,0-24,0-32.76-.11-13.8-.11-13.8-.17-13.8-.5s0-.38,13.8-.5c8.76-.07,20.4-.11,32.76-.11s24,0,32.76.11c13.8.12,13.8.18,13.8.5s0,.39-13.8.5C266.39,212,254.76,212.08,242.38,212.08Zm-36.1-.61c8.05.09,20.53.14,36.1.14s28.05-.05,36.1-.14c-8.05-.08-20.52-.14-36.1-.14S214.33,211.39,206.28,211.47Z" style="fill:#e0e0e0"></path><path d="M288.71,225.18c0,.21-20.75.38-46.33.38s-46.32-.17-46.32-.38,20.73-.37,46.32-.37S288.71,225,288.71,225.18Z" style="fill:#e0e0e0"></path><path d="M242.38,225.79c-12.37,0-24,0-32.76-.11-13.8-.11-13.8-.17-13.8-.5s0-.38,13.8-.49c8.75-.08,20.38-.11,32.76-.11s24,0,32.76.11c13.8.11,13.8.17,13.8.49s0,.39-13.8.5C266.38,225.75,254.75,225.79,242.38,225.79Zm-36.08-.61c8.06.09,20.52.14,36.08.14s28,0,36.08-.14c-8-.08-20.52-.14-36.08-.14S214.36,225.1,206.3,225.18Z" style="fill:#e0e0e0"></path><path d="M352.48,266.32c0,.2-20.74.37-46.32.37s-46.33-.17-46.33-.37,20.74-.38,46.33-.38S352.48,266.11,352.48,266.32Z" style="fill:#e0e0e0"></path><path d="M306.16,266.92c-12.37,0-24,0-32.76-.11-13.8-.11-13.8-.17-13.8-.49s0-.39,13.8-.5c8.75-.07,20.38-.11,32.76-.11s24,0,32.75.11c13.81.11,13.81.17,13.81.5s0,.38-13.81.49C330.16,266.89,318.53,266.92,306.16,266.92Zm-36.08-.6c8.05.08,20.52.13,36.08.13s28-.05,36.07-.13c-8.05-.09-20.51-.14-36.07-.14S278.13,266.23,270.08,266.32Z" style="fill:#e0e0e0"></path><path d="M325,238.89c0,.21-20.74.38-46.32.38s-46.33-.17-46.33-.38,20.74-.37,46.33-.37S325,238.69,325,238.89Z" style="fill:#e0e0e0"></path><path d="M278.64,239.5c-12.38,0-24,0-32.76-.11-13.8-.11-13.8-.17-13.8-.5s0-.38,13.8-.49c8.75-.08,20.39-.11,32.76-.11s24,0,32.75.11c13.81.11,13.81.17,13.81.49s0,.39-13.81.5C302.64,239.46,291,239.5,278.64,239.5Zm-36.08-.61c8.05.09,20.52.14,36.08.14s28-.05,36.07-.14c-8-.08-20.51-.13-36.07-.13S250.61,238.81,242.56,238.89Z" style="fill:#e0e0e0"></path><path d="M438.18,238.89c0,.21-20.74.38-46.32.38s-46.33-.17-46.33-.38,20.74-.37,46.33-.37S438.18,238.69,438.18,238.89Z" style="fill:#e0e0e0"></path><path d="M391.86,239.5c-12.38,0-24,0-32.76-.11-13.8-.11-13.8-.17-13.8-.5s0-.38,13.8-.49c8.75-.08,20.39-.11,32.76-.11s24,0,32.75.11c13.8.11,13.8.17,13.8.49s0,.39-13.8.5C415.86,239.46,404.23,239.5,391.86,239.5Zm-36.08-.61c8.05.09,20.52.14,36.08.14s28-.05,36.07-.14c-8.05-.08-20.51-.13-36.07-.13S363.83,238.81,355.78,238.89Z" style="fill:#e0e0e0"></path><path d="M398.81,211.47c0,.21-20.75.38-46.33.38s-46.32-.17-46.32-.38,20.73-.37,46.32-.37S398.81,211.27,398.81,211.47Z" style="fill:#e0e0e0"></path><path d="M352.48,212.08c-12.38,0-24,0-32.76-.11-13.8-.11-13.8-.17-13.8-.5s0-.38,13.8-.5c8.76-.07,20.4-.11,32.76-.11s24,0,32.76.11c13.8.12,13.8.18,13.8.5s0,.39-13.8.5C376.49,212,364.86,212.08,352.48,212.08Zm-36.1-.61c8.05.09,20.52.14,36.1.14s28-.05,36.11-.14c-8.06-.08-20.53-.14-36.11-.14S324.43,211.39,316.38,211.47Z" style="fill:#e0e0e0"></path><path d="M462.8,266.32c0,.2-20.74.37-46.32.37s-46.33-.17-46.33-.37,20.74-.38,46.33-.38S462.8,266.11,462.8,266.32Z" style="fill:#e0e0e0"></path><path d="M416.48,266.92c-12.37,0-24,0-32.76-.11-13.8-.11-13.8-.17-13.8-.49s0-.39,13.8-.5c8.75-.07,20.38-.11,32.76-.11s24,0,32.76.11c13.8.11,13.8.17,13.8.5s0,.38-13.8.49C440.48,266.89,428.85,266.92,416.48,266.92Zm-36.08-.6c8.06.08,20.52.13,36.08.13s28-.05,36.08-.13c-8.05-.09-20.52-.14-36.08-.14S388.46,266.23,380.4,266.32Z" style="fill:#e0e0e0"></path><path d="M450,225.18c0,.21-32.2.38-71.93.38s-71.93-.17-71.93-.38,32.2-.37,71.93-.37S450,225,450,225.18Z" style="fill:#e0e0e0"></path><path d="M378.09,225.79c-19.21,0-37.27,0-50.87-.11-15.76-.08-19.86-.13-20.92-.28h-.07v0c-.3,0-.3-.11-.3-.2s0-.14.3-.19v0h.06c1.07-.15,5.16-.2,20.93-.28,13.59-.08,31.65-.11,50.87-.11s37.28,0,50.87.11c15.77.08,19.86.13,20.93.28H450v0c.3,0,.3.11.3.19s0,.15-.3.2v0h-.06c-1.07.15-5.17.2-20.93.28C415.36,225.75,397.3,225.79,378.09,225.79ZM322,225.18c13.25.09,33.59.14,56.12.14s42.87,0,56.12-.14c-13.25-.08-33.59-.14-56.12-.14S335.22,225.1,322,225.18Z" style="fill:#e0e0e0"></path><path d="M197,184.05c0,.21-7.52.38-16.8.38s-16.8-.17-16.8-.38,7.52-.37,16.8-.37S197,183.85,197,184.05Z" style="fill:#e0e0e0"></path><path d="M180.2,184.66c-4.49,0-8.71,0-11.89-.11-5.15-.11-5.15-.2-5.15-.5s0-.38,5.15-.5c3.18-.07,7.4-.11,11.89-.11s8.71,0,11.88.11c5.15.12,5.15.21,5.15.5s0,.39-5.15.5C188.91,184.62,184.69,184.66,180.2,184.66Zm-13.12-.61c2.93.09,7.48.14,13.12.14s10.19-.05,13.12-.14c-2.93-.08-7.48-.14-13.12-.14S170,184,167.08,184.05Z" style="fill:#e0e0e0"></path><path d="M197,348.58c0,.2-7.52.37-16.8.37s-16.8-.17-16.8-.37,7.52-.38,16.8-.38S197,348.37,197,348.58Z" style="fill:#e0e0e0"></path><path d="M180.2,349.19c-4.49,0-8.71,0-11.89-.11-5.15-.12-5.15-.21-5.15-.5s0-.39,5.15-.5c3.18-.07,7.4-.11,11.89-.11s8.71,0,11.88.11c5.15.11,5.15.2,5.15.5s0,.38-5.15.5C188.91,349.15,184.69,349.19,180.2,349.19Zm-13.11-.61c2.93.08,7.48.14,13.11.14s10.18-.06,13.11-.14c-2.93-.08-7.48-.14-13.11-.14S170,348.5,167.09,348.58Z" style="fill:#e0e0e0"></path><path d="M213.65,238.89c0,.21-7.53.38-16.8.38s-16.8-.17-16.8-.38,7.52-.37,16.8-.37S213.65,238.69,213.65,238.89Z" style="fill:#e0e0e0"></path><path d="M196.85,239.5c-4.49,0-8.72,0-11.89-.11-5.15-.11-5.15-.2-5.15-.5s0-.38,5.15-.49c3.18-.07,7.4-.11,11.89-.11s8.7,0,11.88.11c5.15.11,5.15.2,5.15.49s0,.39-5.15.5C205.56,239.46,201.34,239.5,196.85,239.5Zm-13.11-.61c2.92.09,7.48.14,13.11.14S207,239,210,238.89c-2.92-.08-7.48-.13-13.1-.13S186.66,238.81,183.74,238.89Z" style="fill:#e0e0e0"></path><path d="M482.94,238.89c0,.21-7.52.38-16.79.38s-16.81-.17-16.81-.38,7.52-.37,16.81-.37S482.94,238.69,482.94,238.89Z" style="fill:#e0e0e0"></path><path d="M466.15,239.5c-4.49,0-8.72,0-11.89-.11-5.15-.11-5.15-.2-5.15-.5s0-.38,5.15-.49c3.18-.07,7.4-.11,11.89-.11s8.7,0,11.88.11c5.15.11,5.15.2,5.15.49s0,.39-5.15.5C474.85,239.46,470.63,239.5,466.15,239.5ZM453,238.89c2.92.09,7.48.14,13.11.14s10.18-.05,13.1-.14c-2.92-.08-7.48-.13-13.1-.13S456,238.81,453,238.89Z" style="fill:#e0e0e0"></path><path d="M243.79,293.65c0,.21-14.07.38-31.43.38s-31.43-.17-31.43-.38,14.07-.37,31.43-.37S243.79,293.45,243.79,293.65Z" style="fill:#FF725E"></path><path d="M212.36,294.26c-8.39,0-16.28,0-22.23-.11-9.44-.11-9.44-.18-9.44-.5s0-.38,9.44-.49c5.94-.07,13.83-.11,22.23-.11s16.29,0,22.23.11c9.44.11,9.44.17,9.44.49s0,.39-9.44.5C228.64,294.22,220.75,294.26,212.36,294.26Zm-24.51-.61c5.47.09,14,.15,24.51.15s19-.06,24.51-.15c-5.47-.08-14-.14-24.51-.14S193.32,293.57,187.85,293.65Z" style="fill:#FF725E"></path><path d="M316.49,293.65c0,.21-14.08.38-31.43.38s-31.44-.17-31.44-.38,14.07-.37,31.44-.37S316.49,293.45,316.49,293.65Z" style="fill:#e0e0e0"></path><path d="M285.06,294.26c-8.39,0-16.29,0-22.24-.11-9.43-.11-9.43-.18-9.43-.5s0-.38,9.43-.49c5.94-.07,13.84-.11,22.24-.11s16.29,0,22.22.11c9.44.11,9.44.17,9.44.49s0,.39-9.44.5C301.34,294.22,293.44,294.26,285.06,294.26Zm-24.52-.61c5.47.09,14,.15,24.52.15s19-.06,24.51-.15c-5.47-.08-13.95-.14-24.51-.14S266,293.57,260.54,293.65Z" style="fill:#e0e0e0"></path><path d="M288.71,307.36c0,.21-20.75.38-46.33.38s-46.32-.17-46.32-.38,20.73-.37,46.32-.37S288.71,307.16,288.71,307.36Z" style="fill:#e0e0e0"></path><path d="M242.38,308c-12.37,0-24,0-32.76-.11-13.8-.11-13.8-.17-13.8-.49s0-.39,13.8-.5c8.75-.07,20.38-.11,32.76-.11s24,0,32.76.11c13.8.11,13.8.17,13.8.5s0,.38-13.8.49C266.38,307.94,254.75,308,242.38,308Zm-36.08-.6c8.06.08,20.52.13,36.08.13s28-.05,36.08-.13c-8-.09-20.52-.14-36.08-.14S214.36,307.28,206.3,307.37Z" style="fill:#e0e0e0"></path><path d="M288.71,321.08c0,.2-20.75.37-46.33.37s-46.32-.17-46.32-.37,20.73-.38,46.32-.38S288.71,320.87,288.71,321.08Z" style="fill:#e0e0e0"></path><path d="M242.38,321.68c-12.38,0-24,0-32.76-.11-13.8-.11-13.8-.17-13.8-.49s0-.39,13.8-.5c8.76-.07,20.4-.11,32.76-.11s24,0,32.76.11c13.8.11,13.8.17,13.8.5s0,.38-13.8.49C266.39,321.65,254.76,321.68,242.38,321.68Zm-36.1-.6c8.05.08,20.53.14,36.1.14s28.05-.06,36.1-.14c-8.05-.09-20.52-.15-36.1-.15S214.33,321,206.28,321.08Z" style="fill:#e0e0e0"></path><path d="M325,334.79c0,.2-20.74.37-46.32.37s-46.33-.17-46.33-.37,20.74-.38,46.33-.38S325,334.58,325,334.79Z" style="fill:#e0e0e0"></path><path d="M278.64,335.4c-12.37,0-24,0-32.76-.11-13.8-.12-13.8-.18-13.8-.5s0-.39,13.8-.5c8.74-.07,20.38-.11,32.76-.11s24,0,32.75.11c13.81.11,13.81.17,13.81.5s0,.38-13.81.5C302.63,335.36,291,335.4,278.64,335.4Zm-36.11-.61c8.05.08,20.53.14,36.11.14s28.05-.06,36.1-.14c-8.05-.09-20.53-.14-36.1-.14S250.58,334.7,242.53,334.79Z" style="fill:#e0e0e0"></path><path d="M438.18,334.79c0,.2-20.74.37-46.32.37s-46.33-.17-46.33-.37,20.74-.38,46.33-.38S438.18,334.58,438.18,334.79Z" style="fill:#e0e0e0"></path><path d="M391.86,335.4c-12.37,0-24,0-32.76-.11-13.8-.12-13.8-.18-13.8-.5s0-.39,13.8-.5c8.74-.07,20.38-.11,32.76-.11s24,0,32.75.11c13.8.11,13.8.17,13.8.5s0,.38-13.8.5C415.85,335.36,404.22,335.4,391.86,335.4Zm-36.11-.61c8.05.08,20.53.14,36.11.14s28.05-.06,36.1-.14c-8-.09-20.53-.14-36.1-.14S363.8,334.7,355.75,334.79Z" style="fill:#e0e0e0"></path><path d="M398.81,307.36c0,.21-20.75.38-46.33.38s-46.32-.17-46.32-.38,20.73-.37,46.32-.37S398.81,307.16,398.81,307.36Z" style="fill:#e0e0e0"></path><path d="M352.48,308c-12.37,0-24,0-32.76-.11-13.8-.11-13.8-.17-13.8-.49s0-.39,13.8-.5c8.75-.07,20.38-.11,32.76-.11s24,0,32.76.11c13.8.11,13.8.17,13.8.5s0,.38-13.8.49C376.48,307.94,364.85,308,352.48,308Zm-36.08-.6c8.06.08,20.52.13,36.08.13s28-.05,36.08-.13c-8.06-.09-20.52-.14-36.08-.14S324.46,307.28,316.4,307.37Z" style="fill:#e0e0e0"></path><path d="M450,321.08c0,.2-32.2.37-71.93.37s-71.93-.17-71.93-.37,32.2-.38,71.93-.38S450,320.87,450,321.08Z" style="fill:#e0e0e0"></path><path d="M378.09,321.68c-19.22,0-37.28,0-50.87-.11-15.77-.08-19.86-.13-20.93-.28h-.06v0c-.3,0-.3-.11-.3-.19s0-.15.3-.2v0h.06c1.07-.15,5.17-.2,20.93-.28,13.61-.07,31.67-.11,50.87-.11s37.26,0,50.87.11c15.76.08,19.86.13,20.93.28H450v0c.3.05.3.11.3.2s0,.14-.3.19v0h-.07c-1.07.15-5.16.2-20.93.28C415.37,321.65,397.31,321.68,378.09,321.68Zm-56.16-.6c13.25.08,33.61.14,56.16.14s42.92-.06,56.16-.14c-13.25-.09-33.61-.15-56.16-.15S335.18,321,321.93,321.08Z" style="fill:#e0e0e0"></path><path d="M213.65,334.79c0,.2-7.53.37-16.8.37s-16.8-.17-16.8-.37,7.52-.38,16.8-.38S213.65,334.58,213.65,334.79Z" style="fill:#e0e0e0"></path><path d="M196.85,335.4c-4.49,0-8.71,0-11.89-.11-5.15-.12-5.15-.21-5.15-.5s0-.39,5.15-.5c3.17-.07,7.4-.11,11.89-.11s8.71,0,11.88.11c5.15.11,5.15.2,5.15.5s0,.38-5.15.5C205.55,335.36,201.33,335.4,196.85,335.4Zm-13.12-.61c2.92.08,7.48.14,13.12.14s10.19-.06,13.11-.14c-2.92-.09-7.48-.14-13.11-.14S186.65,334.7,183.73,334.79Z" style="fill:#e0e0e0"></path><path d="M482.94,334.79c0,.2-7.52.37-16.79.37s-16.81-.17-16.81-.37,7.52-.38,16.81-.38S482.94,334.58,482.94,334.79Z" style="fill:#e0e0e0"></path><path d="M466.15,335.4c-4.49,0-8.71,0-11.89-.11-5.15-.12-5.15-.21-5.15-.5s0-.39,5.15-.5c3.17-.07,7.4-.11,11.89-.11s8.7,0,11.88.11c5.15.11,5.15.2,5.15.5s0,.38-5.15.5C474.85,335.36,470.63,335.4,466.15,335.4ZM453,334.79c2.92.08,7.48.14,13.12.14s10.19-.06,13.11-.14c-2.92-.09-7.48-.14-13.11-.14S456,334.7,453,334.79Z" style="fill:#e0e0e0"></path></g><g id="freepik--Window--inject-59"><rect x="203.22" y="79.73" width="376.92" height="212.68" style="fill:#fff"></rect><path d="M580.14,292.4c0-1.6-.08-82-.2-212.67l.2.2L203.25,80h0l.26-.26c0,75.22,0,147.15,0,212.67l-.24-.24,376.92.24-376.92.25H203v-.25c0-65.52,0-137.45,0-212.67v-.26h.29l376.89.06h.2v.2C580.21,210.37,580.14,290.8,580.14,292.4Z" style="fill:#263238"></path><path d="M580.14,102.3c0,.14-84.44.26-188.58.26S203,102.44,203,102.3s84.42-.26,188.59-.26S580.14,102.15,580.14,102.3Z" style="fill:#263238"></path><path d="M220.94,91.62a3,3,0,1,1-3-3A3,3,0,0,1,220.94,91.62Z" style="fill:#263238"></path><path d="M232.35,91.62a3,3,0,1,1-3-3A3,3,0,0,1,232.35,91.62Z" style="fill:#263238"></path><path d="M243.76,91.62a3,3,0,1,1-3-3A3,3,0,0,1,243.76,91.62Z" style="fill:#263238"></path><path d="M513.29,136.3c0,.14-22.38.26-50,.26s-50-.12-50-.26,22.38-.27,50-.27S513.29,136.15,513.29,136.3Z" style="fill:#FF725E"></path><path d="M550.39,161c0,.14-31.16.26-69.61.26s-69.61-.12-69.61-.26,31.16-.26,69.61-.26S550.39,160.89,550.39,161Z" style="fill:#263238"></path><path d="M550.39,173c0,.14-31.16.26-69.61.26s-69.61-.12-69.61-.26,31.16-.26,69.61-.26S550.39,172.82,550.39,173Z" style="fill:#263238"></path><path d="M460.77,212.88H421.09a11,11,0,0,1-11-11h0a11,11,0,0,1,11-11h39.68a11,11,0,0,1,11,11h0A11,11,0,0,1,460.77,212.88Z" style="fill:#FF725E"></path><rect x="226.94" y="128.07" width="125.31" height="94.19" transform="translate(-0.62 1.03) rotate(-0.2)" style="fill:#FF725E"></rect><polygon points="227.11 222.48 270.67 163.78 297.91 200.31 316.23 180.66 352.42 222.03 227.11 222.48" style="fill:#FF725E"></polygon><path d="M309.27,156.47a9.87,9.87,0,1,1-9.9-9.83A9.87,9.87,0,0,1,309.27,156.47Z" style="fill:#FF725E"></path><g style="opacity:0.2"><polygon points="227.11 222.48 270.67 163.78 297.91 200.31 316.23 180.66 352.42 222.03 227.11 222.48"></polygon></g><g style="opacity:0.2"><path d="M309.27,156.47a9.87,9.87,0,1,1-9.9-9.83A9.87,9.87,0,0,1,309.27,156.47Z"></path></g><rect x="358.93" y="127.99" width="37.02" height="27.82" transform="translate(-0.5 1.34) rotate(-0.2)" style="fill:#FF725E"></rect><polygon points="358.98 155.87 371.85 138.53 379.89 149.33 385.3 143.52 395.99 155.74 358.98 155.87" style="fill:#FF725E"></polygon><path d="M383.25,136.38a2.92,2.92,0,1,1-2.93-2.91A2.91,2.91,0,0,1,383.25,136.38Z" style="fill:#FF725E"></path><g style="opacity:0.2"><polygon points="358.98 155.87 371.85 138.53 379.89 149.33 385.3 143.52 395.99 155.74 358.98 155.87"></polygon></g><g style="opacity:0.2"><path d="M383.25,136.38a2.92,2.92,0,1,1-2.93-2.91A2.91,2.91,0,0,1,383.25,136.38Z"></path></g><rect x="358.93" y="161.31" width="37.02" height="27.82" transform="translate(-0.62 1.34) rotate(-0.2)" style="fill:#FF725E"></rect><polygon points="358.98 189.2 371.85 171.86 379.89 182.65 385.3 176.84 395.99 189.06 358.98 189.2" style="fill:#FF725E"></polygon><path d="M383.25,169.7a2.92,2.92,0,1,1-2.93-2.91A2.91,2.91,0,0,1,383.25,169.7Z" style="fill:#FF725E"></path><g style="opacity:0.2"><polygon points="358.98 189.2 371.85 171.86 379.89 182.65 385.3 176.84 395.99 189.06 358.98 189.2"></polygon></g><g style="opacity:0.2"><path d="M383.25,169.7a2.92,2.92,0,1,1-2.93-2.91A2.91,2.91,0,0,1,383.25,169.7Z"></path></g><rect x="358.93" y="194.84" width="37.02" height="27.82" transform="translate(-0.74 1.34) rotate(-0.2)" style="fill:#FF725E"></rect><polygon points="358.98 222.72 371.85 205.38 379.89 216.18 385.3 210.37 395.99 222.59 358.98 222.72" style="fill:#FF725E"></polygon><path d="M383.25,203.22a2.93,2.93,0,0,1-2.91,2.93,2.92,2.92,0,1,1,2.91-2.93Z" style="fill:#FF725E"></path><g style="opacity:0.2"><polygon points="358.98 222.72 371.85 205.38 379.89 216.18 385.3 210.37 395.99 222.59 358.98 222.72"></polygon></g><g style="opacity:0.2"><path d="M383.25,203.22a2.93,2.93,0,0,1-2.91,2.93,2.92,2.92,0,1,1,2.91-2.93Z"></path></g><circle cx="278.31" cy="233.82" r="2.54" style="fill:#263238"></circle><circle cx="289.77" cy="233.82" r="2.54" style="fill:#e0e0e0"></circle><circle cx="301.22" cy="233.82" r="2.54" style="fill:#e0e0e0"></circle><path d="M465.94,255.82c0,.14-54.47.26-121.65.26s-121.65-.12-121.65-.26,54.45-.26,121.65-.26S465.94,255.67,465.94,255.82Z" style="fill:#263238"></path><path d="M465.94,269.48c0,.15-54.47.26-121.65.26s-121.65-.11-121.65-.26,54.45-.26,121.65-.26S465.94,269.34,465.94,269.48Z" style="fill:#263238"></path></g><g id="freepik--Character--inject-59"><path d="M521.8,267.75A54.49,54.49,0,1,1,553.66,169h0a54.49,54.49,0,0,1-31.86,98.76Zm.14-105.32A50.79,50.79,0,1,0,551.53,172,50.8,50.8,0,0,0,521.94,162.43Z" style="fill:#263238"></path><path d="M630.44,282h0a6.78,6.78,0,0,1-9.37,2l-57-36.81a1.16,1.16,0,0,1-.34-1.61l4.84-7.5a1.17,1.17,0,0,1,1.58-.37l58.09,34.79A6.78,6.78,0,0,1,630.44,282Z" style="fill:#263238"></path><path d="M521.8,264.7a54.49,54.49,0,1,1,31.86-98.76h0A54.49,54.49,0,0,1,521.8,264.7Zm.14-105.31a50.79,50.79,0,1,0,29.59,9.52A50.8,50.8,0,0,0,521.94,159.39Z" style="fill:#455a64"></path><path d="M593.05,221.07h11.22a0,0,0,0,1,0,0v72a5.49,5.49,0,0,1-5.49,5.49h-.24a5.49,5.49,0,0,1-5.49-5.49v-72A0,0,0,0,1,593.05,221.07Z" transform="translate(55.64 621.76) rotate(-57.15)" style="fill:#455a64"></path><path d="M503.26,215.08a41.63,41.63,0,0,1-6.52.26h-.11l.16-.06a41.4,41.4,0,0,1-5.15,3.82,39.4,39.4,0,0,1,4.83-4.23l.07-.06h.2A39.49,39.49,0,0,1,503.26,215.08Z" style="fill:#263238"></path><path d="M507.43,228.23a10,10,0,0,1-1.91,1.2c-1.21.69-2.9,1.6-4.78,2.58l-1.14.59.11-.12a44.87,44.87,0,0,1-3.06,5.63,43.94,43.94,0,0,1,2.6-5.85l0-.08.07,0,1.14-.59c1.88-1,3.59-1.84,4.85-2.44A10.17,10.17,0,0,1,507.43,228.23Z" style="fill:#263238"></path><path d="M534.67,203.29a9.56,9.56,0,0,1,2.06-.91c1.29-.51,3.09-1.17,5.08-1.87l.64-.22-.11.07c1.29-1.48,2.45-2.78,3.31-3.7a8,8,0,0,1,1.46-1.41,8.44,8.44,0,0,1-1.19,1.64c-.79,1-1.91,2.32-3.19,3.81l-.05.05-.06,0L542,201c-2,.7-3.82,1.31-5.14,1.72A9.36,9.36,0,0,1,534.67,203.29Z" style="fill:#263238"></path><path d="M538.84,215.08a39.49,39.49,0,0,1,6.52-.27h.2l.07.06a39.4,39.4,0,0,1,4.83,4.23,40.56,40.56,0,0,1-5.15-3.82l.16.06h-.11A41.63,41.63,0,0,1,538.84,215.08Z" style="fill:#263238"></path><path d="M534.67,228.23a10.17,10.17,0,0,1,2.08.88c1.26.6,3,1.46,4.85,2.44l1.14.59.07,0,0,.08a43.94,43.94,0,0,1,2.6,5.85,44.87,44.87,0,0,1-3.06-5.63l.11.12-1.14-.59c-1.88-1-3.57-1.89-4.78-2.58A10,10,0,0,1,534.67,228.23Z" style="fill:#263238"></path><circle cx="522.47" cy="194.89" r="10.61" style="fill:#263238"></circle><circle cx="521.78" cy="215.08" r="19.47" style="fill:#FF725E"></circle><circle cx="521.78" cy="215.08" r="19.47" style="fill:#FF725E"></circle><path d="M516.19,186.44a9.32,9.32,0,0,1-2.35-2,9.52,9.52,0,0,1-2-2.35,8.66,8.66,0,0,1,2.35,2A9.32,9.32,0,0,1,516.19,186.44Z" style="fill:#263238"></path><path d="M528.74,186.64a9.11,9.11,0,0,1,2-2.34,8.85,8.85,0,0,1,2.36-2,18,18,0,0,1-4.35,4.31Z" style="fill:#263238"></path><path d="M522.25,234.88c-.15,0-.27-8.79-.27-19.64s.12-19.63.27-19.63.26,8.79.26,19.63S522.39,234.88,522.25,234.88Z" style="fill:#263238"></path><path d="M519,232.3a3.44,3.44,0,0,1-1-.06,12.73,12.73,0,0,1-2.75-.74,16.31,16.31,0,0,1-7.26-5.83,21.3,21.3,0,0,1-3.59-11.53,3.57,3.57,0,0,1,.06-1c.09,0,.11,1.48.54,3.81a21.71,21.71,0,0,0,3.42,8.46,16.9,16.9,0,0,0,7,5.79A25.88,25.88,0,0,0,519,232.3Z" style="fill:#fff"></path><path d="M505.54,208.18c.14,0,0,.8-.19,1.7s-.34,1.65-.49,1.64-.21-.8,0-1.74S505.41,208.13,505.54,208.18Z" style="fill:#fff"></path><path d="M479.58,216a10.42,10.42,0,0,1-.45-1.65,13.82,13.82,0,0,1-.38-2,25.14,25.14,0,0,1-.32-2.64c0-.5-.07-1-.1-1.55s0-1.1,0-1.68c0-1.16.11-2.4.21-3.7a38.75,38.75,0,0,1,5.42-16A35.39,35.39,0,0,1,486,183.8c.36-.46.68-.92,1-1.33l1-1.17a26.19,26.19,0,0,1,1.86-1.9,14.52,14.52,0,0,1,1.51-1.33,9.51,9.51,0,0,1,1.36-1,12,12,0,0,1-1.23,1.18,16.24,16.24,0,0,0-1.43,1.39c-.54.57-1.18,1.17-1.79,1.94l-1,1.17c-.34.41-.65.88-1,1.33-.71.91-1.33,2-2,3.06a42.86,42.86,0,0,0-3.51,7.61,43.92,43.92,0,0,0-1.85,8.17c-.12,1.29-.26,2.51-.26,3.66,0,.57,0,1.13,0,1.66s0,1,.07,1.53a26.39,26.39,0,0,0,.24,2.63,15.84,15.84,0,0,0,.29,2A12.3,12.3,0,0,1,479.58,216Z" style="fill:#e0e0e0"></path><path d="M632.12,243.38h0a8.63,8.63,0,0,1-9.31-8.26c-.2-4.7-.37-9.45-.37-9.45s-7.13-.65-7.67-7.7-.35-23.34-.35-23.34h0a24.58,24.58,0,0,1,24.85,1.53L638.9,221l0,13.36C638.91,238.82,636.59,243,632.12,243.38Z" style="fill:#ffbe9d"></path><path d="M623.69,213.19s0,.13.1.31a1.12,1.12,0,0,0,.79.39,2,2,0,0,0,1.82-2,2,2,0,0,0-.52-1.49,2.11,2.11,0,0,0-1.11-.63c-.72-.15-1.14.12-1.11.17s.43,0,1,.17a1.78,1.78,0,0,1,1.22,1.76,1.65,1.65,0,0,1-1.32,1.62C624,213.57,623.75,213.15,623.69,213.19Z" style="fill:#eb996e"></path><path d="M580.24,258s-1.94-5.26-2.94-5.81-3.49-2.27-4.31-3.85c-.55-1.05-1.35-.65-1.35-.65h0a2.06,2.06,0,0,0,.2,2.1l1.51,2.05-8.63-4.62a2.81,2.81,0,0,0,.58,2.49c1,1.23.67,1.13.67,1.13s-1,.65-.43,1.53a20.36,20.36,0,0,0,1.45,1.94,2.64,2.64,0,0,0-.45,2.22,4.58,4.58,0,0,0,0,2.22c.28,1.28,2.72,3.61,2.72,3.61l10,5.64,5-7.43Z" style="fill:#ffbe9d"></path><path d="M570.45,250.26a29.37,29.37,0,0,0,5.14,2.86,29.37,29.37,0,0,0-5.14-2.86Z" style="fill:#eb996e"></path><path d="M565.8,250.33a15.76,15.76,0,0,0,2.27,2.24,17.59,17.59,0,0,0,2.47,2,17.84,17.84,0,0,0-2.27-2.24A18.28,18.28,0,0,0,565.8,250.33Z" style="fill:#eb996e"></path><path d="M566.58,253.88a5.3,5.3,0,0,0,1.08,1.37,5.23,5.23,0,0,0,1.3,1.17,5.21,5.21,0,0,0-1.08-1.37A5.49,5.49,0,0,0,566.58,253.88Z" style="fill:#eb996e"></path><path d="M566.48,256.3c-.06.06.22.44.57.89s.64.81.71.77-.12-.48-.48-.95S566.54,256.25,566.48,256.3Z" style="fill:#eb996e"></path><polygon points="662.04 413.26 664.27 454.67 649.27 458.29 646.29 417.84 662.04 413.26" style="fill:#ffbe9d"></polygon><polygon points="664.72 454.32 667.27 465.55 650.01 465.55 649.27 458.24 664.72 454.32" style="fill:#FF725E"></polygon><path d="M649.66,463.92a11.76,11.76,0,0,0,2.52.15c1.55,0,3.7,0,6.06-.12l6.06-.25a16.17,16.17,0,0,0,2.51-.2,11.45,11.45,0,0,0-2.52-.14c-1.55,0-3.7,0-6.07.12l-6.05.25A14.26,14.26,0,0,0,649.66,463.92Z" style="fill:#263238"></path><path d="M657,456.51a28,28,0,0,0,.49,7.24,14.17,14.17,0,0,0,0-3.64A13.56,13.56,0,0,0,657,456.51Z" style="fill:#263238"></path><g style="opacity:0.6000000000000001"><polyline points="667.27 465.55 650.01 465.55 649.85 463.92 666.96 463.5 667.27 465.36" style="fill:#fff"></polyline></g><polygon points="605.09 433.39 601.45 460.83 588.17 459.91 590.96 434.75 605.09 433.39" style="fill:#ffbe9d"></polygon><path d="M588,456.93h0s-14.91,5-15.16,7.76l28.52.83.26-7.46-1,.21A21.25,21.25,0,0,1,588,456.93Z" style="fill:#FF725E"></path><g style="opacity:0.6000000000000001"><path d="M598.31,459.36a1.18,1.18,0,0,1,.77,1.36,1.12,1.12,0,0,1-1.34.77,1.22,1.22,0,0,1-.8-1.44,1.18,1.18,0,0,1,1.48-.65" style="fill:#fff"></path></g><g style="opacity:0.6000000000000001"><path d="M601.39,465.52v-2.31l-27.34.06s-1.29.52-1.17,1.42Z" style="fill:#fff"></path></g><path d="M587.58,456.77c0,.14.69.22,1.36.69s1,1.07,1.15,1-.05-.86-.88-1.41S587.55,456.64,587.58,456.77Z" style="fill:#263238"></path><path d="M584.55,457.92c0,.13.56.39,1,1s.58,1.23.72,1.23.25-.79-.33-1.53S584.55,457.79,584.55,457.92Z" style="fill:#263238"></path><path d="M582.74,461.45c.13,0,.34-.66,0-1.43s-1-1.09-1-1,.33.53.59,1.17S582.61,461.43,582.74,461.45Z" style="fill:#263238"></path><path d="M587.89,456.7a2.61,2.61,0,0,0,1.43,0,6.29,6.29,0,0,0,1.5-.41,6.49,6.49,0,0,0,.84-.41,1.68,1.68,0,0,0,.44-.33.59.59,0,0,0,.08-.74.76.76,0,0,0-.6-.33,1.68,1.68,0,0,0-.53.06,4.12,4.12,0,0,0-.9.28,5,5,0,0,0-1.34.82c-.68.59-.92,1.11-.88,1.14s.4-.38,1.09-.87a5.74,5.74,0,0,1,1.29-.68,6.7,6.7,0,0,1,.83-.23c.3-.07.56-.06.63.07s0,.08,0,.16a1.34,1.34,0,0,1-.33.24,7.07,7.07,0,0,1-.76.41,9.11,9.11,0,0,1-1.4.49A8.74,8.74,0,0,0,587.89,456.7Z" style="fill:#263238"></path><path d="M588.06,456.9c.05,0,.34-.46.42-1.36a4.45,4.45,0,0,0-.15-1.57,4.55,4.55,0,0,0-.34-.88,1.18,1.18,0,0,0-.89-.75.67.67,0,0,0-.61.38,2,2,0,0,0-.16.52,3.28,3.28,0,0,0,.54,2.46c.54.75,1.11.93,1.13.89a10.11,10.11,0,0,1-.84-1.08,3.25,3.25,0,0,1-.41-1.35,2.92,2.92,0,0,1,0-.83c.05-.3.17-.54.29-.51s.37.24.48.49a4.34,4.34,0,0,1,.33.78,5,5,0,0,1,.24,1.44C588.15,456.36,588,456.88,588.06,456.9Z" style="fill:#263238"></path><path d="M651,294.51s7.72,13.08,8.95,28.48l4.17,127.77-16.64,4L634.74,329.5S604,455.05,603,455.05s-16.12-2.71-16.12-2.71l23-157.26Z" style="fill:#263238"></path><path d="M644.66,327.31s.22.93,0,0c0,.24-.15-.38-.1,0,.14.85.33,2.06.58,3.61.51,3.13,1.23,7.67,2.07,13.29,1.69,11.2,3.8,26.76,5.57,44s2.85,32.9,3.47,44.24c.31,5.67.53,10.26.66,13.44.07,1.56.13,2.79.17,3.65,0,.4,0,.71.06.95a1.34,1.34,0,0,0,0,.32,1.57,1.57,0,0,0,0-.32c0-.24,0-.56,0-.95,0-.87,0-2.09-.08-3.66-.08-3.18-.25-7.77-.52-13.45-.53-11.34-1.57-27-3.33-44.27s-3.93-32.8-5.71-44c-.89-5.61-1.65-10.15-2.22-13.27-.28-1.54-.5-2.75-.65-3.6-.08-.39,0,.23,0,0Z" style="fill:#455a64"></path><path d="M618.06,328.18c-.12,0-5.2,28.1-11.33,62.81s-11,62.87-10.88,62.89,5.19-28.1,11.33-62.81S618.19,328.2,618.06,328.18Z" style="fill:#455a64"></path><path d="M635.33,329.29a1.45,1.45,0,0,0,.18-.32l.42-1a32.66,32.66,0,0,0,1.23-3.62,36.48,36.48,0,0,0,1.19-12.5c-.08-1.24-.25-2.43-.44-3.58s-.5-2.23-.79-3.26c-.59-2.05-1.2-3.87-1.72-5.39s-1-2.74-1.3-3.58l-.38-1c-.1-.22-.15-.33-.17-.33a1.36,1.36,0,0,0,.09.35c.08.27.19.6.31,1l1.18,3.62c.49,1.53,1.07,3.36,1.63,5.4.28,1,.56,2.1.76,3.23a35.32,35.32,0,0,1,.43,3.54,38.75,38.75,0,0,1-1.06,12.4c-.39,1.56-.82,2.78-1.11,3.63A10.92,10.92,0,0,0,635.33,329.29Z" style="fill:#455a64"></path><path d="M630.62,307.76a1.41,1.41,0,0,0,0,.25c0,.19,0,.41,0,.68,0,.63-.07,1.47-.11,2.53-.08,2.2-.18,5.26-.31,8.91l.1-.15-6.4,2.61H624l-5.2-3.17a3.79,3.79,0,0,1-.34-.2l.09.15c-.39-4.23-.76-8.2-1.07-11.63l-.18.19,9.57-.09,2.73-.05.74,0a.87.87,0,0,0,.26,0s-.31,0-.92,0l-2.69,0-9.69-.09h-.19v.19c.31,3.43.66,7.41,1,11.64v.1l.09.05.34.21,5.2,3.15.09.06.09,0,6.38-2.65.11-.05v-.11c.06-3.7.11-6.8.14-9,0-1,0-1.87,0-2.49A7.83,7.83,0,0,0,630.62,307.76Z" style="fill:#455a64"></path><path d="M654.7,304.38a8.52,8.52,0,0,0,.11.86l.36,2.35c.33,2,.79,4.86,1.33,8.24l.07-.17-4.84,3.59.17,0L646,317.58l-.3-.09.14.14-3.09-10.54-.13.22,8.68-2.07,2.48-.61a8.32,8.32,0,0,0,.9-.25l-.85.15-2.45.51L642.56,307l-.18,0,0,.18c.9,3.11,1.94,6.72,3,10.55l0,.11.1,0,.3.09,5.89,1.62.09,0,.08-.05,4.81-3.62.08-.07,0-.1c-.62-3.41-1.15-6.27-1.53-8.32-.18-.95-.33-1.72-.44-2.29A6.36,6.36,0,0,0,654.7,304.38Z" style="fill:#455a64"></path><path d="M621.1,326.8a133.44,133.44,0,0,0,14.24,3.09,65.65,65.65,0,0,0-7.08-1.74A64.16,64.16,0,0,0,621.1,326.8Z" style="fill:#455a64"></path><path d="M641.78,327.36a6.53,6.53,0,0,0,1.82,0,30.71,30.71,0,0,0,8.51-2,6.43,6.43,0,0,0,1.64-.8,11.74,11.74,0,0,0-1.73.53c-1.06.34-2.53.78-4.19,1.15s-3.16.64-4.26.79A11.27,11.27,0,0,0,641.78,327.36Z" style="fill:#455a64"></path><polyline points="621.14 232.12 622.98 228.34 638.91 227.74 641.41 232.64 621.4 232.64" style="fill:#FF725E"></polyline><polygon points="582.81 258.93 576.77 267.44 594.26 282.41 600.16 268.51 582.81 258.93" style="fill:#FF725E"></polygon><polygon points="660.42 279.71 645.08 273.62 648.51 260.91 661.01 265.16 660.42 279.71" style="fill:#FF725E"></polygon><path d="M595.42,283.14c-3.82-1.9-4.8-6.46-2.93-10.3l15.89-34a6.21,6.21,0,0,1,1.6-2.19,18,18,0,0,1,13.15-4.51l16.57-.43s13,0,17.91,10.26c.35.75,7.92,15.76,12.91,25.65a8.56,8.56,0,0,1-4.69,11.89h0A8.56,8.56,0,0,1,655.07,275l-5.42-12.09-3.41,17.32,4.91,14.26-41.09.57L613.22,276l1-13.61-8.33,17.19a7.78,7.78,0,0,1-10.46,3.57Z" style="fill:#FF725E"></path><g style="opacity:0.2"><path d="M644.85,279.91c-3.11,2.33-7.69,1.56-11.53.92a16.66,16.66,0,0,1-10-5.44,6.77,6.77,0,0,1-1.86-4.74c.15-1.74,1.69-3.42,3.42-3.21,2,.24,2.94,2.46,3.9,4.22a15.4,15.4,0,0,0,16,7.53S645.41,279.5,644.85,279.91Z"></path></g><g style="opacity:0.2"><path d="M619.48,253.17c-1,7.82-.54,7.22-2.17,14.93-.8,3.79-1.78,7.75-4.39,10.61l1.29-16.33Z"></path></g><polygon points="651.15 294.51 652.33 291.08 649.27 289.04 611.57 285.93 608.91 290.93 610.05 295.08 651.15 294.51" style="fill:#FF725E"></polygon><path d="M649.75,264.59a10.61,10.61,0,0,0,.84,1.93c.57,1.17,1.41,2.75,2.42,4.46s2,3.2,2.74,4.26A10.73,10.73,0,0,0,657,276.9a10.65,10.65,0,0,0-1-1.81c-.68-1.1-1.63-2.62-2.64-4.32s-1.87-3.25-2.51-4.38A11.13,11.13,0,0,0,649.75,264.59Z" style="fill:#263238"></path><path d="M653.37,271.11a6.59,6.59,0,0,0,1.7,5.31c.1-.07-.59-1.13-1.06-2.59S653.49,271.11,653.37,271.11Z" style="fill:#263238"></path><path d="M612.74,236.92c0,.07.69.32,1.71,1a10.85,10.85,0,0,1,3.34,3.24,11,11,0,0,1,1.65,4.35c.17,1.19.12,1.95.19,1.95a5.07,5.07,0,0,0,.09-2,10,10,0,0,0-1.59-4.53,10.17,10.17,0,0,0-3.53-3.27A5.15,5.15,0,0,0,612.74,236.92Z" style="fill:#263238"></path><path d="M646.29,280.42c.11,0,2-7.86,4.13-17.59s3.84-17.65,3.73-17.68-2,7.85-4.13,17.59S646.18,280.39,646.29,280.42Z" style="fill:#263238"></path><path d="M591.72,270.25a13,13,0,0,0,1.82-1.71,12.86,12.86,0,0,0,1.76-1.76,8.88,8.88,0,0,0-3.58,3.47Z" style="fill:#263238"></path><path d="M605.53,280.2a6.35,6.35,0,0,0,.64-1c.38-.68.92-1.68,1.57-2.92,1.3-2.48,3-5.94,4.92-9.76s3.63-7.28,4.92-9.77c.61-1.19,1.13-2.18,1.52-2.94a6.13,6.13,0,0,0,.52-1.1,7.34,7.34,0,0,0-.66,1c-.4.67-1,1.65-1.64,2.88-1.35,2.45-3.13,5.89-5,9.72s-3.55,7.24-4.82,9.81l-1.45,3A8.51,8.51,0,0,0,605.53,280.2Z" style="fill:#263238"></path><path d="M620.35,269.69s0,.1,0,.27a5.47,5.47,0,0,0,.13.76,10,10,0,0,0,1,2.66,15,15,0,0,0,6.94,6.16,30.49,30.49,0,0,0,9.06,2.26c1.19.13,2.15.21,2.82.25a4.61,4.61,0,0,0,1,0,5.2,5.2,0,0,0-1-.18l-2.79-.38a33.24,33.24,0,0,1-8.93-2.35,15.33,15.33,0,0,1-6.86-5.93A14.61,14.61,0,0,1,620.35,269.69Z" style="fill:#263238"></path><path d="M628.62,289.63c0,.11,5.09.56,11.38,1s11.41.71,11.42.6-5.09-.56-11.39-1S628.62,289.52,628.62,289.63Z" style="fill:#263238"></path><path d="M622,286.57a12.75,12.75,0,0,0-.82,3.86,12.41,12.41,0,0,0,0,3.95c.12,0,.17-1.76.4-3.91A38.45,38.45,0,0,0,622,286.57Z" style="fill:#263238"></path><path d="M619.4,284.11a5.07,5.07,0,0,0-.34,1.56,19.13,19.13,0,0,0-.11,3.84,19.58,19.58,0,0,0,.64,3.8,4.94,4.94,0,0,0,.56,1.49c.12,0-.6-2.35-.8-5.31S619.52,284.13,619.4,284.11Z" style="fill:#263238"></path><path d="M621.1,232.39c0,.11,3.69,0,8.22-.26a81,81,0,0,0,8.2-.67c0-.11-3.68,0-8.22.26S621.1,232.28,621.1,232.39Z" style="fill:#263238"></path><path d="M622.07,232.12a2.76,2.76,0,0,1-.54.09l-1.54.23-2.42.43a10.59,10.59,0,0,0-3.07.94,15.28,15.28,0,0,0-3.25,2.14,12.76,12.76,0,0,0-2.8,3.46c-1.4,2.83-2.86,6.05-4.44,9.37-3.15,6.64-6,12.65-8.08,17-1,2.14-1.88,3.89-2.48,5.15l-.7,1.39a2.53,2.53,0,0,1-.26.47,2,2,0,0,1,.19-.5c.16-.37.37-.84.62-1.43l2.37-5.2c2-4.4,4.83-10.44,8-17.1,1.59-3.33,3-6.51,4.48-9.38a13.26,13.26,0,0,1,2.9-3.54,15.91,15.91,0,0,1,3.35-2.14,10.89,10.89,0,0,1,3.16-.9c.94-.15,1.76-.28,2.43-.36s1.2-.14,1.55-.16A2.3,2.3,0,0,1,622.07,232.12Z" style="fill:#263238"></path><path d="M610,273.34s-.06,0-.17,0l-.48-.07c-.42-.06-1-.16-1.76-.3a24.33,24.33,0,0,1-5.66-1.67,12,12,0,0,1-4.62-3.62,6.91,6.91,0,0,1-1.13-2.16s.1.21.29.59a8.9,8.9,0,0,0,.94,1.5,12.08,12.08,0,0,0,4.59,3.54,25.82,25.82,0,0,0,5.61,1.71l1.75.35.47.1Z" style="fill:#fafafa"></path><path d="M592.25,264.23a2,2,0,0,1-.45.14,11.14,11.14,0,0,0-1.19.37,13.81,13.81,0,0,0-3.62,2,13.55,13.55,0,0,0-2.85,3c-.31.44-.53.8-.68,1.06a2.37,2.37,0,0,1-.24.39,2.1,2.1,0,0,1,.19-.42,8.36,8.36,0,0,1,.63-1.09,12.72,12.72,0,0,1,6.53-5,9.8,9.8,0,0,1,1.22-.32A2.73,2.73,0,0,1,592.25,264.23Z" style="fill:#fafafa"></path><path d="M618.21,254.27h-.15l-.43,0c-.38,0-.93-.1-1.6-.22a25.07,25.07,0,0,1-5.1-1.43,26.39,26.39,0,0,1-4.7-2.45c-.57-.38-1-.7-1.31-.94l-.34-.28-.11-.1s0,0,.13.08l.36.25c.31.22.76.53,1.33.89a27.88,27.88,0,0,0,9.76,3.87c.67.13,1.21.22,1.58.26l.43.07Z" style="fill:#fafafa"></path><path d="M653.13,237s-.51-.09-1.45-.13a18,18,0,0,0-3.93.26c-1.65.26-3.58.76-5.75,1.21a27.9,27.9,0,0,1-7.17.57c-2.55-.11-5-.41-7.17-.61a50.92,50.92,0,0,0-5.86-.28,24.68,24.68,0,0,0-3.93.41l-1,.25-.37.08.36-.11,1-.28a23.71,23.71,0,0,1,3.94-.46,48.13,48.13,0,0,1,5.87.24c2.21.2,4.62.49,7.17.6a27.67,27.67,0,0,0,7.13-.56c2.17-.44,4.1-.93,5.76-1.17a17.24,17.24,0,0,1,4-.22,10,10,0,0,1,1.07.13Z" style="fill:#fafafa"></path><path d="M651.27,256.82l-.33,0-1,.07-3.57.25c-3,.19-7.2.53-11.82.63a61.22,61.22,0,0,1-11.8-.77,31.36,31.36,0,0,1-4.76-1.19l.33.08.95.25c.81.21,2,.49,3.5.75a65,65,0,0,0,11.78.72c4.61-.1,8.79-.42,11.81-.58l3.58-.2,1,0Z" style="fill:#fafafa"></path><path d="M665.79,258.71s0,.05-.1.13l-.32.35a17.52,17.52,0,0,1-1.27,1.23,23.94,23.94,0,0,1-10.19,5.4c-.72.18-1.32.29-1.73.35l-.47.07h-.17l.16,0,.47-.1c.41-.08,1-.21,1.71-.4A25.65,25.65,0,0,0,664,260.34c.56-.49,1-.9,1.29-1.19l.34-.33C665.74,258.74,665.79,258.7,665.79,258.71Z" style="fill:#fafafa"></path><path d="M659,246.76a1.13,1.13,0,0,1-.18.2,7.1,7.1,0,0,1-.57.5,10.17,10.17,0,0,1-2.12,1.32,10.45,10.45,0,0,1-2.37.78,6.33,6.33,0,0,1-.74.11.86.86,0,0,1-.28,0s.38-.08,1-.23a12.63,12.63,0,0,0,2.32-.82,12.32,12.32,0,0,0,2.12-1.26C658.68,247,659,246.74,659,246.76Z" style="fill:#fafafa"></path><path d="M671.24,271.16a11.48,11.48,0,0,1-1.54,1.8,16,16,0,0,1-2,1.62,15.1,15.1,0,0,1-5.81,2.37,14,14,0,0,1-2.57.24A11.86,11.86,0,0,1,657,277h.17l.47,0a15.74,15.74,0,0,0,7.26-1.11,16,16,0,0,0,4.77-3.05,11.47,11.47,0,0,0,1.19-1.24l.31-.35Z" style="fill:#fafafa"></path><path d="M640.17,229.33H640l-.53,0-2-.08c-1.65,0-3.94,0-6.46.1s-4.79.44-6.43.7l-1.93.32-.53.09-.18,0s.06,0,.17-.05l.52-.12c.46-.1,1.12-.23,1.93-.37a59.81,59.81,0,0,1,6.44-.75,62.1,62.1,0,0,1,6.48,0c.82,0,1.49.09,2,.13l.53.05Z" style="fill:#fafafa"></path><path d="M620.43,273.15a.91.91,0,0,1-.29,0,7.09,7.09,0,0,1-.78-.11,12.12,12.12,0,0,1-2.5-.76,12,12,0,0,1-2.29-1.26,7,7,0,0,1-.63-.48c-.15-.12-.22-.19-.21-.2s.34.23.9.59a15.23,15.23,0,0,0,2.29,1.2,14.64,14.64,0,0,0,2.46.8A8.93,8.93,0,0,1,620.43,273.15Z" style="fill:#fafafa"></path><path d="M647,276.19l-.23,0-.66.08c-.57.07-1.4.15-2.43.24-2.06.18-4.9.36-8,.44s-6,0-8.07-.07c-1,0-1.86-.08-2.44-.13l-.66,0-.23,0a.82.82,0,0,1,.23,0l.66,0,2.45.08c2.06.05,4.91.09,8.05,0s6-.24,8-.39l2.44-.19.66-.05Z" style="fill:#fafafa"></path><path d="M618.8,291l-.39.1c-.25.05-.61.11-1.06.17a25.53,25.53,0,0,1-3.54.24,24.76,24.76,0,0,1-3.54-.28c-.45-.07-.81-.14-1.06-.19a2.16,2.16,0,0,1-.38-.1,1.62,1.62,0,0,1,.39,0l1.06.14a31.86,31.86,0,0,0,3.53.22,30.72,30.72,0,0,0,3.53-.18l1.06-.13A2,2,0,0,1,618.8,291Z" style="fill:#fafafa"></path><path d="M621.29,289.41a2.82,2.82,0,0,0-2.26-.78,1.62,1.62,0,0,1,1.27,0A1.56,1.56,0,0,1,621.29,289.41Z" style="fill:#fafafa"></path><path d="M646.1,291.29l-.25.06-.71.14c-.62.12-1.52.27-2.64.44-2.23.33-5.34.68-8.78.84s-6.58.08-8.83,0c-1.13-.07-2-.14-2.67-.2l-.72-.07-.25,0a1.54,1.54,0,0,1,.25,0l.73,0c.63,0,1.54.1,2.66.15,2.26.1,5.38.15,8.82,0s6.54-.49,8.77-.8c1.12-.15,2-.28,2.65-.38l.72-.11A.79.79,0,0,1,646.1,291.29Z" style="fill:#fafafa"></path><path d="M655.38,209.21a8.11,8.11,0,0,0-4.76-9.14,1.79,1.79,0,0,1-.93-.57,2,2,0,0,1-.22-.85,6.69,6.69,0,0,0-4-5.26,6.45,6.45,0,0,0-3.16-.45,6.83,6.83,0,0,0-2.43-2.78,7.81,7.81,0,0,0-8.1,0c-1.66-.83-3.22-1.91-4.88-2.75-2.29-1.17-5.09-1.86-7.38-.7-1.65.83-2.75,2.48-4.35,3.4-2.27,1.3-5.38,1-6.48,4.37a5.73,5.73,0,0,0,0,3.59c1.56,4.56,7.22,6.38,11.28,4.39.09.78-.67,2.5.15,4.94.26.78.36,2,1.58,2a3.61,3.61,0,0,1,4.81-1.07,4.11,4.11,0,0,1,1.39,5.12,5.4,5.4,0,0,1-3.46,2.63,2.69,2.69,0,0,0-2.11,2.68,3.44,3.44,0,0,0-.1,1c-1.27-1.06-3.2.23-4,1.68a9.39,9.39,0,0,0-1.09,6.1,31.1,31.1,0,0,1,3.39,1.41,22.45,22.45,0,0,0,11.16,2.42,67.06,67.06,0,0,0,11.43-1.52c-.14-.9-.27-1.81-.41-2.72.82.42,1.22,1.4,2,1.88,1.06.66,2.43.23,3.59-.22,3.44-1.32,7.24-3,8.55-6.44a2.6,2.6,0,0,1-1.75-2.56c1.38.43,3.1.8,4.13-.22a4,4,0,0,0,.78-1.31c.88-2,1.76-4,2.63-6A11.7,11.7,0,0,0,655.38,209.21Z" style="fill:#263238"></path><path d="M624.4,207.51a9.87,9.87,0,0,1-2.69-9.82,21.62,21.62,0,0,0,.49,5.15A20.48,20.48,0,0,0,624.4,207.51Z" style="fill:#455a64"></path><path d="M622.65,229.84s-.22-.25-.45-.79a5.62,5.62,0,0,1-.44-2.44,7.21,7.21,0,0,1,.29-1.7,7,7,0,0,1,.79-1.83,8,8,0,0,1,3.39-3,3.76,3.76,0,0,1,2.4-.27c.4.1.75.31.89.22s.35-.4.47-.69a5,5,0,0,0-.1-3.38,5.51,5.51,0,0,0-1.24-2c-.41-.39-.7-.53-.67-.58a1.9,1.9,0,0,1,.8.43,5,5,0,0,1,1.45,2,5.18,5.18,0,0,1,.2,3.69,1.59,1.59,0,0,1-.72,1,1,1,0,0,1-.7,0,4.72,4.72,0,0,0-.5-.16,3.3,3.3,0,0,0-2.08.25,7.89,7.89,0,0,0-3.19,2.77,8,8,0,0,0-1.12,3.3,6.41,6.41,0,0,0,.27,2.35A4.22,4.22,0,0,1,622.65,229.84Z" style="fill:#455a64"></path><path d="M648.25,228a6,6,0,0,0,.65-1.1,6.68,6.68,0,0,0,.3-3.47,11.3,11.3,0,0,0-1.83-4.95,6.86,6.86,0,0,0-5.54-3h-.29l0-.29a12.69,12.69,0,0,0,.12-2.31,3.57,3.57,0,0,0-.75-2.12c-.92-1.09-2.5-1.18-3.89-1.42a9.11,9.11,0,0,1-3.88-1.58,13.64,13.64,0,0,1-2.73-2.61,16.25,16.25,0,0,1-1.82-2.74,10.75,10.75,0,0,1-1.28-4.55,4.45,4.45,0,0,1,.15-1.28,1.48,1.48,0,0,1,.18-.42,6.74,6.74,0,0,0-.13,1.7,11.28,11.28,0,0,0,1.41,4.38,15.75,15.75,0,0,0,4.49,5.12,8.73,8.73,0,0,0,3.69,1.48c.7.11,1.43.2,2.17.39a4,4,0,0,1,2,1.2,4.07,4.07,0,0,1,.87,2.42,12.65,12.65,0,0,1-.14,2.41l-.26-.29a7.28,7.28,0,0,1,5.92,3.3,11.34,11.34,0,0,1,1.79,5.16,6.5,6.5,0,0,1-.47,3.58,3.26,3.26,0,0,1-.55.81C648.35,228,648.26,228,648.25,228Z" style="fill:#455a64"></path><path d="M659.7,218.89a9.28,9.28,0,0,0-1-3.3,7.28,7.28,0,0,0-2.65-2.81,7.43,7.43,0,0,0-4.8-1l-.29,0,0-.29a11.32,11.32,0,0,0-.4-4.62,5.75,5.75,0,0,0-3.26-3.6,4,4,0,0,0-2.14-.25c-.35.05-.72.17-1.12.21a1.5,1.5,0,0,1-1.25-.32,2.58,2.58,0,0,1-.55-1.08c-.11-.34-.23-.68-.34-1-.23-.68-.44-1.33-.69-2a17.88,17.88,0,0,0-1.82-3.33,5.09,5.09,0,0,0-2.46-2,7.88,7.88,0,0,0-4.64-.66,3.65,3.65,0,0,0-1.56.75,1.68,1.68,0,0,1,.31-.35,5.08,5.08,0,0,1,.47-.33,3.61,3.61,0,0,1,.73-.27,7.82,7.82,0,0,1,4.84.53,7.07,7.07,0,0,1,1.44.79,4.71,4.71,0,0,1,1.22,1.33,17.41,17.41,0,0,1,1.91,3.39c.27.63.49,1.3.72,2l.35,1a2.16,2.16,0,0,0,.42.86c.4.4,1.18.12,1.94,0a4.43,4.43,0,0,1,2.41.28,6.22,6.22,0,0,1,3.55,3.92,11.68,11.68,0,0,1,.39,4.82l-.27-.25a7.71,7.71,0,0,1,5.07,1.13,7.46,7.46,0,0,1,3.43,5.51A2.83,2.83,0,0,1,659.7,218.89Z" style="fill:#455a64"></path><path d="M609.33,197.69s-.31-.22-.4-.84a3.4,3.4,0,0,1,.83-2.39,6.21,6.21,0,0,1,3.09-2.12,6.33,6.33,0,0,1,2.24-.26,2.6,2.6,0,0,0,1,0c.26-.1.46-.43.74-.75a4.35,4.35,0,0,1,2.09-1.28,6.92,6.92,0,0,1,2.23-.23,7.19,7.19,0,0,1,3.6,1.07,3.66,3.66,0,0,1,1.52,2c.16.59.08.92.05.92s0-.33-.24-.86a3.74,3.74,0,0,0-1.53-1.78,7.12,7.12,0,0,0-3.42-.89,4.91,4.91,0,0,0-3.9,1.37,3.07,3.07,0,0,1-.93.89,2.85,2.85,0,0,1-1.26,0,5.61,5.61,0,0,0-2.06.21,6.15,6.15,0,0,0-3,1.89,3.28,3.28,0,0,0-.9,2.14A3.17,3.17,0,0,0,609.33,197.69Z" style="fill:#455a64"></path><path d="M626.39,188c0-.06.4,0,.81.4a3.72,3.72,0,0,1,.88,2,4,4,0,0,1-.17,2.14c-.21.53-.49.76-.54.72s.09-.34.19-.83a5.05,5.05,0,0,0,0-2,4.58,4.58,0,0,0-.64-1.82C626.64,188.2,626.35,188,626.39,188Z" style="fill:#455a64"></path></g><g id="freepik--Plant--inject-59"><rect x="67.4" y="415.6" width="59.41" height="8.16" style="fill:#263238"></rect><path d="M126.92,423.87H67.3V415.5h59.62Zm-59.42-.2h59.21v-8H67.5Z" style="fill:#263238"></path><polygon points="72.91 421.05 81.46 463.24 113.1 463.24 121.37 423.77 72.91 421.05" style="fill:#263238"></polygon><polygon points="72.91 459.25 77.47 465.52 115.93 465.52 121.37 459.25 72.91 459.25" style="fill:#455a64"></polygon><path d="M94.88,422.28c-.12,0-.27-19.54-.34-43.65s0-43.65.09-43.65.27,19.54.34,43.65S95,422.28,94.88,422.28Z" style="fill:#263238"></path><path d="M108.11,373.37a2.2,2.2,0,0,1-.16.46c-.14.33-.31.75-.53,1.26L107,376l-.39,1.11c-.15.4-.3.83-.46,1.27s-.28.95-.44,1.46a59.38,59.38,0,0,0-1.66,7.27,88.22,88.22,0,0,0-.92,9.1,122.7,122.7,0,0,0,.47,16.61c.19,2.12.38,3.84.52,5,.06.56.11,1,.15,1.37a2.84,2.84,0,0,1,0,.48,1.89,1.89,0,0,1-.11-.47c-.06-.36-.14-.81-.23-1.36-.19-1.17-.43-2.89-.66-5a109.28,109.28,0,0,1-.59-16.66,83.47,83.47,0,0,1,1-9.14,57.8,57.8,0,0,1,1.76-7.3c.17-.51.31-1,.48-1.45s.33-.87.49-1.27.29-.76.43-1.1.29-.63.42-.91l.61-1.23A2.29,2.29,0,0,1,108.11,373.37Z" style="fill:#263238"></path><path d="M106.59,357.56a3,3,0,0,1-.19.65c-.15.45-.36,1.06-.62,1.81-.13.4-.28.84-.45,1.31l-.48,1.58c-.34,1.13-.75,2.42-1.11,3.87-.19.72-.38,1.47-.59,2.25s-.37,1.62-.56,2.48c-.41,1.7-.71,3.55-1.1,5.48-.65,3.88-1.23,8.17-1.63,12.7s-.53,8.86-.59,12.79,0,7.49.2,10.47c0,1.48.15,2.83.22,4s.15,2.2.22,3,.11,1.44.15,1.91,0,.67,0,.67a3.23,3.23,0,0,1-.11-.66c0-.47-.13-1.11-.22-1.91s-.2-1.84-.29-3-.22-2.53-.29-4c-.2-3-.28-6.53-.29-10.48s.19-8.29.56-12.83,1-8.84,1.67-12.73c.39-1.94.71-3.79,1.14-5.49.2-.85.39-1.68.58-2.47l.63-2.26c.37-1.45.8-2.73,1.17-3.86l.51-1.57.49-1.3.69-1.79C106.49,357.77,106.58,357.56,106.59,357.56Z" style="fill:#263238"></path><path d="M91.12,425.74a.72.72,0,0,1,0-.23c0-.17,0-.39-.06-.67,0-.62-.1-1.49-.18-2.59-.14-2.28-.34-5.52-.59-9.52-.52-8-1.26-19.14-2.62-31.35-.69-6.11-1.49-11.9-2.32-17.16-.44-2.62-.85-5.12-1.3-7.44s-.87-4.49-1.28-6.46-.83-3.74-1.18-5.31-.68-2.89-1-4-.46-1.92-.61-2.52l-.15-.66a1,1,0,0,1,0-.23,1,1,0,0,1,.08.22l.19.64.69,2.5c.31,1.09.66,2.42,1,4s.83,3.32,1.24,5.3.9,4.12,1.33,6.45.89,4.82,1.34,7.45c.86,5.26,1.67,11.06,2.37,17.17,1.35,12.23,2.05,23.34,2.49,31.38.22,4,.37,7.28.46,9.53,0,1.1.07,2,.09,2.6,0,.27,0,.49,0,.67A.82.82,0,0,1,91.12,425.74Z" style="fill:#263238"></path><path d="M94.39,344.37c-.26-2.77-3-4.85-5.84-4.88a9.18,9.18,0,0,0-7.07,3.84,21.92,21.92,0,0,0-3.4,7.56A51.19,51.19,0,0,0,76,371c.8,6.74,3.53,13.38,8.37,18.14.79.77,1.81,1.55,2.88,1.32a3.6,3.6,0,0,0,1.53-.94,45,45,0,0,0,14.61-34.24c-.08-2.56-.41-5.23-1.83-7.36s-4.73-4.4-7.15-3.55" style="fill:#FF725E"></path><path d="M73.63,322.19l-3.92,7.1c-.09.16-.21.35-.4.36s-.36-.17-.47-.35L58.48,313.41l2.39-1.35Z" style="fill:#FF725E"></path><g style="opacity:0.2"><path d="M73.63,322.19l-3.92,7.1c-.09.16-.21.35-.4.36s-.36-.17-.47-.35L58.48,313.41l2.39-1.35Z"></path></g><path d="M94.63,335,59.31,314.13a1.64,1.64,0,0,1-.86-.86,1.61,1.61,0,0,1,.63-1.42A24.33,24.33,0,0,1,78,304.43,21.6,21.6,0,0,1,95,315.05c3.41,6.09,3.52,14.14-.39,19.93" style="fill:#FF725E"></path><path d="M64.4,307.48l.46-.06c.31,0,.76-.07,1.34-.06a26.6,26.6,0,0,1,4.9.39,28.19,28.19,0,0,1,7,2.12,28.91,28.91,0,0,1,7.49,4.86A28.86,28.86,0,0,1,94,328.44a26.3,26.3,0,0,1,.88,4.83,9.34,9.34,0,0,1,0,1,1.73,1.73,0,0,1-.27.77,6.12,6.12,0,0,0,0-1.78,28.8,28.8,0,0,0-1-4.77A28.82,28.82,0,0,0,71,308a31.65,31.65,0,0,0-4.84-.52C65,307.5,64.4,307.52,64.4,307.48Z" style="fill:#263238"></path><path d="M89.85,320.59a8.56,8.56,0,0,1-1.79.81c-1.12.45-2.69,1-4.45,1.57s-3.37,1-4.55,1.29a8.72,8.72,0,0,1-1.93.37A9.53,9.53,0,0,1,79,324l4.5-1.4L88,321.12A9.33,9.33,0,0,1,89.85,320.59Z" style="fill:#263238"></path><path d="M84.29,305.65a24.54,24.54,0,0,1,.2,7.9,71,71,0,0,1-.2-7.9Z" style="fill:#263238"></path><path d="M59,313.74a14.65,14.65,0,0,1,2.57-.9c1.6-.5,3.84-1.13,6.33-1.73s4.76-1.06,6.42-1.35A15,15,0,0,1,77,309.4a19.62,19.62,0,0,1-2.63.66c-1.64.36-3.9.87-6.38,1.46s-4.73,1.18-6.35,1.6A19.33,19.33,0,0,1,59,313.74Z" style="fill:#263238"></path><path d="M79.73,338.37c-3-2.31-6.25-2.76-10.06-2.61a30.7,30.7,0,0,0-11,2.84c-5.95,2.61-11.55,6.45-15.11,11.9s-4.8,12.64-2.14,18.57a2.69,2.69,0,0,0,1.21,1.47,2.87,2.87,0,0,0,2-.15c6.78-2.21,13.6-4.45,19.83-7.91s11.9-8.27,15.24-14.56a12.72,12.72,0,0,0,1.61-4.83,6,6,0,0,0-1.56-4.72" style="fill:#FF725E"></path><path d="M79.79,337.65a2.62,2.62,0,0,1-.49.2l-1.42.49-1,.34c-.38.13-.77.3-1.2.47-.86.34-1.86.69-2.9,1.2l-1.67.76c-.57.26-1.15.59-1.76.9-1.22.6-2.47,1.37-3.79,2.15a66.7,66.7,0,0,0-8,5.95,65.92,65.92,0,0,0-6.92,7.2c-1,1.21-1.87,2.35-2.62,3.49-.39.56-.79,1.09-1.12,1.63l-1,1.55c-.63,1-1.1,1.92-1.56,2.72-.22.41-.43.78-.61,1.14s-.33.67-.47,1c-.28.55-.5,1-.67,1.35a2.83,2.83,0,0,1-.26.46,2.72,2.72,0,0,1,.18-.5c.16-.35.35-.81.6-1.38l.44-1c.17-.36.37-.74.58-1.15.44-.82.89-1.78,1.52-2.77l.94-1.58c.33-.54.73-1.08,1.11-1.65.74-1.16,1.66-2.31,2.6-3.53a57.82,57.82,0,0,1,15.05-13.24c1.33-.78,2.59-1.54,3.83-2.13.62-.31,1.2-.63,1.78-.89l1.69-.74c1.06-.49,2.07-.82,2.93-1.14.44-.16.84-.32,1.22-.44l1-.31,1.45-.41A3.19,3.19,0,0,1,79.79,337.65Z" style="fill:#263238"></path><path d="M56.06,350.5a72,72,0,0,1-7.39,2.38,71.33,71.33,0,0,1-7.51,2,71,71,0,0,1,7.39-2.38A69.94,69.94,0,0,1,56.06,350.5Z" style="fill:#263238"></path><path d="M55.75,366.81a12.9,12.9,0,0,1-.16-2.3c0-1.43,0-3.39,0-5.57s.17-4.13.29-5.55a12.68,12.68,0,0,1,.29-2.29,13.08,13.08,0,0,1,0,2.3c-.05,1.56-.11,3.46-.17,5.56s-.1,4-.14,5.55A13.15,13.15,0,0,1,55.75,366.81Z" style="fill:#263238"></path><path d="M69.72,359.69c-.11,0-.49-4-.83-8.93s-.52-8.95-.4-9,.48,4,.83,8.93S69.84,359.68,69.72,359.69Z" style="fill:#263238"></path><path d="M52.33,341.41a14.44,14.44,0,0,1,2.37-.07c1.46,0,3.48.06,5.71.13s4.24.16,5.69.25a13.25,13.25,0,0,1,2.36.23,12.92,12.92,0,0,1-2.36.07c-1.46,0-3.48,0-5.71-.13s-4.24-.16-5.7-.25A12.17,12.17,0,0,1,52.33,341.41Z" style="fill:#263238"></path><path d="M85.87,390.07a1.34,1.34,0,0,1-.05-.47c0-.36,0-.81-.07-1.36,0-1.18-.06-2.89,0-5s.18-4.63.44-7.41.67-5.83,1.24-9,1.29-6.17,2-8.88,1.5-5.1,2.21-7.1,1.31-3.6,1.78-4.69L94,344.9a2.07,2.07,0,0,1,.21-.43,2,2,0,0,1-.13.46l-.47,1.28c-.41,1.11-1,2.72-1.65,4.72s-1.39,4.41-2.11,7.11-1.39,5.69-2,8.85-1,6.2-1.27,9-.45,5.28-.53,7.38-.11,3.82-.11,5c0,.55,0,1,0,1.35A2.91,2.91,0,0,1,85.87,390.07Z" style="fill:#263238"></path><path d="M87.73,366.94a9.88,9.88,0,0,1-1.41,1.55c-.91.91-2.21,2.13-3.69,3.43s-2.87,2.43-3.89,3.21a9.7,9.7,0,0,1-1.72,1.2,11.78,11.78,0,0,1,1.53-1.43l3.8-3.3,3.77-3.33A11.49,11.49,0,0,1,87.73,366.94Z" style="fill:#263238"></path><path d="M98.91,376a16.86,16.86,0,0,1-1.5-2.08l-3.49-5.09-3.57-5a16.36,16.36,0,0,1-1.42-2.13,15,15,0,0,1,1.66,1.95c1,1.25,2.29,3,3.68,5s2.56,3.83,3.39,5.18A13.81,13.81,0,0,1,98.91,376Z" style="fill:#263238"></path><path d="M93.05,347.62c.07.1-3.65,2.6-8.29,5.59s-8.46,5.32-8.53,5.23,3.65-2.6,8.3-5.59S93,347.53,93.05,347.62Z" style="fill:#263238"></path><path d="M103.53,358.93a68,68,0,0,1-5.62-5.19,67.44,67.44,0,0,1-5.32-5.5,71,71,0,0,1,5.61,5.19A68.87,68.87,0,0,1,103.53,358.93Z" style="fill:#263238"></path><path d="M106.16,358.7l3.19-.26a15.9,15.9,0,0,0,6.44-2,24.05,24.05,0,0,1,3-1.51c3.94-1.58,8.34-1.3,12.58-1.51a52.13,52.13,0,0,0,20-5.12,2,2,0,0,0,.88-.79c.65-1.2-.57-2.26-1.61-2.9-5.37-3.31-10.84-6.67-16.93-8.31s-13-1.36-18.21,2.21c-6.1,4.2-8.32,12.83-9.35,20.16" style="fill:#FF725E"></path><path d="M152.33,347.14a2.12,2.12,0,0,1-.54-.25l-1.51-.79c-1.31-.69-3.2-1.71-5.59-2.85a51.64,51.64,0,0,0-8.64-3.33,28.5,28.5,0,0,0-11.19-.91,19.15,19.15,0,0,0-10.21,4.39,23,23,0,0,0-5.32,7.46,61.86,61.86,0,0,0-2.31,5.82c-.24.66-.42,1.2-.57,1.61a4,4,0,0,1-.22.55,2.86,2.86,0,0,1,.14-.58c.13-.41.29-1,.49-1.63a54.62,54.62,0,0,1,2.2-5.89,22.65,22.65,0,0,1,5.33-7.63,19.44,19.44,0,0,1,10.41-4.52,28.37,28.37,0,0,1,11.36,1,50.17,50.17,0,0,1,8.67,3.43c2.37,1.18,4.24,2.24,5.53,3l1.47.86A5.06,5.06,0,0,1,152.33,347.14Z" style="fill:#263238"></path><path d="M144.67,351.26c-.06.1-4.23-2.6-9.31-6s-9.14-6.27-9.08-6.37,4.24,2.6,9.31,6S144.74,351.16,144.67,351.26Z" style="fill:#263238"></path><path d="M140.22,338.64a10,10,0,0,1-3,.54,9.84,9.84,0,0,1-3.1,0,20.31,20.31,0,0,1,3.06-.31A20.79,20.79,0,0,1,140.22,338.64Z" style="fill:#263238"></path><path d="M122,336.26a8.06,8.06,0,0,1-1.37,2.14,9.67,9.67,0,0,1-1.73,2,7.89,7.89,0,0,1,1.37-2.14A9,9,0,0,1,122,336.26Z" style="fill:#263238"></path><path d="M125.71,353.71a10.3,10.3,0,0,1-2-1.08c-1.21-.73-2.83-1.81-4.57-3.07s-3.28-2.46-4.38-3.33a11.92,11.92,0,0,1-1.73-1.49,14,14,0,0,1,1.91,1.25l4.45,3.23c1.73,1.26,3.32,2.36,4.48,3.16A14.57,14.57,0,0,1,125.71,353.71Z" style="fill:#263238"></path><path d="M110.85,372.25c-3-.81-6.66,2.15-7.29,5.23s.53,6.24,1.88,9.08A46.34,46.34,0,0,0,118,403a31.1,31.1,0,0,0,19.23,7.08c-1.29-6,.34-12.21-.38-18.28A23.76,23.76,0,0,0,115.82,371c-1.95-.21-4.19-.52-5,1.28" style="fill:#FF725E"></path><path d="M137.25,410.09a2.43,2.43,0,0,1-.44-.2,7.33,7.33,0,0,1-1.13-.77,11.83,11.83,0,0,1-3-4c-.48-.94-1-2-1.55-3.1s-1.06-2.34-1.64-3.61a34.9,34.9,0,0,0-2-3.87,30.73,30.73,0,0,0-2.77-3.76c-2.08-2.45-4.31-4.56-6.25-6.58a45,45,0,0,1-4.77-5.72,21.12,21.12,0,0,1-2.32-4.45,12.43,12.43,0,0,1-.41-1.31,2.3,2.3,0,0,1-.1-.46s.21.62.66,1.71a23,23,0,0,0,2.42,4.34,45.93,45.93,0,0,0,4.8,5.61c2,2,4.19,4.11,6.3,6.58a29.73,29.73,0,0,1,2.79,3.82,34.12,34.12,0,0,1,2,3.93c.56,1.27,1.09,2.49,1.6,3.63s1,2.16,1.5,3.1a12.4,12.4,0,0,0,2.84,4C136.67,409.76,137.27,410.05,137.25,410.09Z" style="fill:#263238"></path><path d="M121.52,405.13a9.45,9.45,0,0,1,.28-2.05c.24-1.25.63-3,1.16-4.84s1.09-3.55,1.54-4.74a9.33,9.33,0,0,1,.83-1.89,10.72,10.72,0,0,1-.55,2c-.37,1.21-.89,2.89-1.42,4.75s-1,3.56-1.27,4.79A10.87,10.87,0,0,1,121.52,405.13Z" style="fill:#263238"></path><path d="M136.67,390.47a12.45,12.45,0,0,1-2.14-.49c-1.31-.35-3.12-.81-5.13-1.27s-3.85-.8-5.18-1.06a12.38,12.38,0,0,1-2.15-.47,10.6,10.6,0,0,1,2.19.18c1.35.18,3.2.48,5.23.94s3.83,1,5.12,1.39A10.83,10.83,0,0,1,136.67,390.47Z" style="fill:#263238"></path><path d="M110.24,394.73a11.75,11.75,0,0,1,.33-2.37c.26-1.45.69-3.45,1.26-5.63s1.17-4.13,1.65-5.53a11.29,11.29,0,0,1,.87-2.22,13.44,13.44,0,0,1-.59,2.31c-.4,1.42-1,3.38-1.52,5.55s-1,4.15-1.38,5.58A14.67,14.67,0,0,1,110.24,394.73Z" style="fill:#263238"></path><path d="M129.69,377.7c0,.11-3.8-.2-8.47-.69s-8.45-1-8.44-1.11,3.81.19,8.48.69A81.39,81.39,0,0,1,129.69,377.7Z" style="fill:#263238"></path><path d="M126.91,423.73c0,.12-13.34.22-29.8.22s-29.81-.1-29.81-.22,13.35-.21,29.81-.21S126.91,423.62,126.91,423.73Z" style="fill:#455a64"></path><path d="M117.63,440.91c0,.11-9,.21-20.08.21s-20.09-.1-20.09-.21,9-.21,20.09-.21S117.63,440.79,117.63,440.91Z" style="fill:#455a64"></path><path d="M117.28,443.36c0,.12-8.84.21-19.73.21s-19.73-.09-19.73-.21,8.83-.21,19.73-.21S117.28,443.25,117.28,443.36Z" style="fill:#455a64"></path><path d="M118,438.88c0,.12-9.3.22-20.77.22s-20.77-.1-20.77-.22,9.29-.21,20.77-.21S118,438.77,118,438.88Z" style="fill:#455a64"></path></g><g id="freepik--speech-bubble--inject-59"><path d="M644.34,183.32l5.5-12.66a32.13,32.13,0,1,1,8.56,7.7l0,0Z" style="fill:#fff"></path><path d="M644.34,183.32l14-5.07,0,.22v0l-.7-.72.86.52a31.92,31.92,0,0,0,15.9,4.7,28.71,28.71,0,0,0,5-.3c.86-.15,1.73-.26,2.6-.43l2.63-.7a32.09,32.09,0,0,0,18.32-14.79,31.54,31.54,0,0,0,4-12.74,32.34,32.34,0,0,0-1.87-14,31.18,31.18,0,0,0-8.13-12.22,31.77,31.77,0,0,0-13.05-7.37,32.33,32.33,0,0,0-14.34-.68A31.37,31.37,0,0,0,657,125a32.27,32.27,0,0,0-13.06,20,34.41,34.41,0,0,0-.31,10.42,31.89,31.89,0,0,0,6.31,15.23l0,.06,0,.06-5.62,12.61c.35-.81,2-4.67,5.39-12.71v.13a31.94,31.94,0,0,1-6.47-15.34,34.53,34.53,0,0,1,.28-10.54,32.4,32.4,0,0,1,4.34-11,32.73,32.73,0,0,1,8.83-9.35,31.85,31.85,0,0,1,12.74-5.29,32.77,32.77,0,0,1,14.57.67,32.26,32.26,0,0,1,13.26,7.49,31.68,31.68,0,0,1,8.26,12.42A32.6,32.6,0,0,1,707.44,154,32,32,0,0,1,703.35,167a32.37,32.37,0,0,1-18.61,14.95l-2.66.7c-.89.17-1.77.28-2.64.42a29.36,29.36,0,0,1-5.08.29,32.1,32.1,0,0,1-16-4.85l.16-.2v0l.14.14-.19.07Z" style="fill:#263238"></path><path d="M687,160.78l1.12-1.53,5.57,4a6,6,0,0,0-2.87-7,5.41,5.41,0,0,0-5.8-.27L669.78,144a5.46,5.46,0,0,0-2-5.67,6.1,6.1,0,0,0-7.56-.51l5.52,4-1,1.37h0l-1.11,1.53-5.58-4a6,6,0,0,0,2.88,7,5.41,5.41,0,0,0,5.8.27l0,0L681.92,160a5.46,5.46,0,0,0,2,5.71,6,6,0,0,0,7.56.51l-5.52-4,1-1.38Z" style="fill:#FF725E"></path></g><g id="freepik--Floor--inject-59"><path d="M717.76,465.85c0,.14-153.47.26-342.74.26S32.24,466,32.24,465.85s153.44-.26,342.78-.26S717.76,465.7,717.76,465.85Z" style="fill:#263238"></path></g></svg>