<svg xmlns="http://www.w3.org/2000/svg" viewBox="0 0 750 500"><g id="freepik--background-complete--inject-30"><path d="M636.51,409s0-.06,0-.16,0-.28,0-.47c0-.43,0-1,0-1.79,0-1.57,0-3.82-.06-6.66l.11.1-34.35.07.17-.17h0V409l-.18-.17,24.49.08,7.22.05,2,0h.69s0,0-.16,0l-.49,0-1.92,0-7.18.05-24.61.07H602v-9.24h0l.18-.18,34.35.07h.11v.11c0,2.87,0,5.14-.05,6.73,0,.75,0,1.34,0,1.76v.45C636.51,408.92,636.51,409,636.51,409Z" style="fill:#e0e0e0"></path><path d="M641.17,399.88a.83.83,0,0,1,0-.18c0-.13,0-.29,0-.48,0-.45,0-1.05,0-1.82,0-1.6,0-3.85-.07-6.61l.13.12-20.64,0,.17-.17h0v4.67c0,1.52,0,3,0,4.41l-.16-.17,14.76.08,4.3,0,1.16,0,.42,0-.38,0-1.12,0-4.27,0-14.87.08h-.17v-.16c0-1.42,0-2.89,0-4.41V390.8h0s.33-.33.18-.18l20.64.05h.12v.13c0,2.8,0,5.07-.07,6.68q0,1.14,0,1.8C641.18,399.68,641.17,399.88,641.17,399.88Z" style="fill:#e0e0e0"></path><rect x="44.54" y="391.79" width="34.35" height="9.09" style="fill:#ebebeb"></rect><path d="M64.36,410.45s0-.06,0-.16v-.47c0-.43,0-1,0-1.79,0-1.57,0-3.82-.06-6.67l.1.11L30,401.54l.18-.18h0v2.31c0,.77,0,1.53,0,2.29v4.47l-.17-.17,24.48.08,7.23.05,2,0h0l-1.91,0-7.19,0-24.6.08h-.17v-9.24h0l.17-.17,34.35.07h.11v.1c0,2.87,0,5.15-.06,6.73,0,.76,0,1.35,0,1.77,0,.18,0,.33,0,.45S64.37,410.45,64.36,410.45Z" style="fill:#e0e0e0"></path><path d="M162.88,277.28a3.37,3.37,0,0,1-.11.62c-.1.46-.23,1-.4,1.75-.35,1.51-.86,3.71-1.43,6.43-1.16,5.44-2.56,13-3.95,21.37s-2.55,15.92-3.44,21.47c-.44,2.7-.81,4.9-1.08,6.5l-.32,1.76a3,3,0,0,1-.15.61,2.9,2.9,0,0,1,0-.62c.06-.46.14-1.05.23-1.78.23-1.61.54-3.82.92-6.53.79-5.5,1.9-13.11,3.28-21.5s2.86-15.93,4.11-21.36c.62-2.71,1.18-4.9,1.6-6.4.2-.71.36-1.28.49-1.72A2.74,2.74,0,0,1,162.88,277.28Z" style="fill:#e0e0e0"></path><path d="M147.19,298.17a8.94,8.94,0,0,1,.14,1.56c0,1,.1,2.45.15,4.24.11,3.59.17,8.54.2,14s0,10.33,0,14c0,1.72,0,3.15,0,4.24a8.3,8.3,0,0,1-.07,1.56,9.75,9.75,0,0,1-.13-1.55c-.06-1-.11-2.45-.16-4.25-.1-3.58-.17-8.54-.2-14s0-10.33,0-14v-4.25A8.39,8.39,0,0,1,147.19,298.17Z" style="fill:#e0e0e0"></path><path d="M135.7,305.42a5.82,5.82,0,0,1,.52,1.21c.3.79.71,1.94,1.2,3.37,1,2.86,2.18,6.86,3.24,11.36s1.77,8.61,2.26,11.59c.25,1.49.43,2.7.54,3.53a5.81,5.81,0,0,1,.13,1.31,6.31,6.31,0,0,1-.32-1.27c-.19-.93-.43-2.1-.71-3.51-.59-3-1.36-7.05-2.41-11.53s-2.21-8.48-3.08-11.37c-.42-1.36-.77-2.51-1-3.42A7.35,7.35,0,0,1,135.7,305.42Z" style="fill:#e0e0e0"></path><polygon points="167.23 375.95 126.16 375.95 123.28 337.79 169.78 337.79 167.23 375.95" style="fill:#e0e0e0"></polygon><path d="M223.84,209c-1-4-6-5.22-10.07-5.43a94.13,94.13,0,0,0-43,8l-12.16,49.63c4.22,1.69,9.87,2.54,14,.73s7.56-4.81,10.92-7.78c13.08-11.54,26-23.4,37.1-36.83C222.54,214.93,224.57,212,223.84,209Z" style="fill:#ebebeb"></path><path d="M178.65,233.48s.11-.15.34-.39l1-1c.44-.45,1-1,1.7-1.57s1.45-1.28,2.36-2a73.51,73.51,0,0,1,6.53-4.6c2.55-1.58,5.43-3.2,8.53-4.77,6.21-3.1,12-5.44,16.27-7.07,2.12-.82,3.84-1.46,5-1.89l1.38-.48a1.9,1.9,0,0,1,.49-.13,2.54,2.54,0,0,1-.45.23l-1.35.57-5,2c-4.19,1.72-10,4.11-16.18,7.2-3.08,1.56-6,3.16-8.51,4.71s-4.78,3.09-6.56,4.49c-.92.66-1.7,1.32-2.39,1.89s-1.29,1.07-1.75,1.5l-1.1,1A1.9,1.9,0,0,1,178.65,233.48Z" style="fill:#e0e0e0"></path><path d="M120.21,205.47A74.53,74.53,0,0,0,76.39,184a78.69,78.69,0,0,0,37.2,50.63l27.46,15A74.5,74.5,0,0,0,120.21,205.47Z" style="fill:#f5f5f5"></path><path d="M141.05,249.6a4.93,4.93,0,0,1-.59-.67l-1.6-2c-1.39-1.72-3.44-4.19-6.06-7.16-5.21-6-12.73-13.94-21.25-22.51S95.09,201.14,89.3,195.73l-6.88-6.38-1.88-1.74a7.13,7.13,0,0,1-.63-.63,7.46,7.46,0,0,1,.7.55l1.94,1.66c1.67,1.46,4.07,3.59,7,6.27,5.86,5.34,13.82,12.87,22.37,21.44s16,16.59,21.16,22.64c2.59,3,4.59,5.51,5.94,7.28.64.86,1.15,1.54,1.52,2.05A6.34,6.34,0,0,1,141.05,249.6Z" style="fill:#e0e0e0"></path><path d="M196.51,265.16c-7.19-8.47-23.12-11.39-32.84-6l-.45,12.72a19.31,19.31,0,0,1,14.91,12.19c1.51,4.12,1.54,8.64,2.75,12.86s4.19,8.49,8.55,9c5.26.62,9.46-4.41,11.43-9.33C205,286.27,203.7,273.63,196.51,265.16Z" style="fill:#ebebeb"></path><path d="M153.46,242.21c-6.58.92-15.59-5.38-19.46-10.79s-5.63-12-7.32-18.42c-4.09-15.57-8.17-32.18-3.16-47.48,1.64-5,4.72-10.1,9.77-11.6,5.63-1.67,11.47,1.73,15.91,5.57,17.2,14.9,25.63,39.07,22.08,61.56-.78,5-2.16,10-5.11,14.09s-7.66,7.16-12.71,7.07" style="fill:#ebebeb"></path><path d="M156.71,276.68a1,1,0,0,1-.05-.3c0-.23,0-.52-.06-.89-.06-.82-.13-2-.22-3.43s-.19-3.3-.35-5.41-.3-4.52-.54-7.17c-.43-5.31-1.08-11.62-1.93-18.61s-2-14.65-3.39-22.65-3-15.59-4.54-22.46-3.13-13-4.53-18.15c-.68-2.57-1.36-4.88-1.94-6.92s-1.08-3.78-1.51-5.21-.74-2.5-1-3.29l-.24-.86a1.18,1.18,0,0,1-.06-.3s0,.09.11.28.17.5.29.85c.25.78.61,1.87,1.06,3.26s1,3.16,1.6,5.19,1.32,4.33,2,6.91c1.46,5.13,3,11.27,4.65,18.14s3.17,14.46,4.59,22.47,2.49,15.69,3.35,22.68,1.43,13.32,1.81,18.64c.23,2.66.34,5.07.47,7.18s.21,3.93.26,5.42.09,2.61.12,3.43c0,.37,0,.67,0,.9S156.71,276.68,156.71,276.68Z" style="fill:#e0e0e0"></path><path d="M120.91,229.44c-12.31-8.24-28.45-9.89-42.64-5.66-6.16,1.84-12.37,5.06-15.45,10.71-.89,1.63-1.46,3.69-.55,5.3,1.06,1.85,3.5,2.24,5.62,2.48a166.67,166.67,0,0,1,34.05,7.44c5.28,1.75,10.55,3.82,15,7.22s7.88,8.33,8.43,13.86l14.06-3.36C141,252.71,133.22,237.67,120.91,229.44Z" style="fill:#ebebeb"></path><path d="M183.76,213.52a11.51,11.51,0,0,0-8.7-6.55A19.84,19.84,0,0,0,164,208.6c-11.32,4.76-18.81,15.67-24.18,26.72-3.05,6.29-5.67,13-5.84,20s2.5,14.37,8.22,18.39h0c5.36.45,14.9,2.53,18.45-1.5s5.73-9.06,7.87-14q6.58-15.22,13.18-30.44C183.64,223.24,185.63,218.09,183.76,213.52Z" style="fill:#f5f5f5"></path><path d="M176,209.17a3.44,3.44,0,0,1-.27.65c-.23.46-.52,1.06-.88,1.8l-3.25,6.61c-2.73,5.6-6.37,13.39-10.07,22.13s-6.76,16.78-8.88,22.62c-1,2.89-1.88,5.25-2.48,6.94-.29.78-.51,1.41-.69,1.89a2.9,2.9,0,0,1-.27.64,5.5,5.5,0,0,1,.18-.68c.15-.48.34-1.12.58-1.91.52-1.66,1.31-4.06,2.33-7,2-5.88,5.05-14,8.75-22.71s7.41-16.52,10.22-22.08c1.4-2.78,2.57-5,3.4-6.54l1-1.76A4.87,4.87,0,0,1,176,209.17Z" style="fill:#e0e0e0"></path><path d="M164.51,270.62c-5.28-1.81-10.86,2.37-16.44,2-7.48-.53-13-9.07-20.48-8.35-4,.39-7.38,3.6-9,7.32s-1.78,7.9-1.69,11.95a108.72,108.72,0,0,0,5.28,31.23c1.08,3.31,2.45,6.76,5.26,8.82,3.21,2.36,7.7,2.35,11.4.87s6.73-4.23,9.5-7.08a99.49,99.49,0,0,0,16.47-22.66c2.53-3.92,5.12-8,5.68-12.63S168.92,272.14,164.51,270.62Z" style="fill:#ebebeb"></path><path d="M131.91,314.37a12,12,0,0,1,.13-1.76c.11-1.13.33-2.76.67-4.77A95.06,95.06,0,0,1,143.18,278c1-1.78,1.84-3.19,2.46-4.14a12,12,0,0,1,1-1.46,10.79,10.79,0,0,1-.83,1.56c-.57,1-1.36,2.42-2.3,4.21a111.3,111.3,0,0,0-6.33,14.51,109.49,109.49,0,0,0-4.11,15.28c-.38,2-.66,3.6-.83,4.73A10.69,10.69,0,0,1,131.91,314.37Z" style="fill:#e0e0e0"></path><path d="M134.83,262.92a4.84,4.84,0,0,1-.42-.74c-.28-.48-.59-1.23-1.15-2.12a40,40,0,0,0-5.25-7.15,46.71,46.71,0,0,0-10.16-8.31,55.67,55.67,0,0,0-14.79-6.28,73.69,73.69,0,0,0-16-2.22,102.83,102.83,0,0,0-13.19.46c-3.74.36-6.76.78-8.84,1.1l-2.4.36a5,5,0,0,1-.84.1,4.49,4.49,0,0,1,.83-.2c.54-.11,1.34-.28,2.38-.46,2.07-.38,5.09-.86,8.84-1.27a98.16,98.16,0,0,1,13.23-.57,72.31,72.31,0,0,1,16.08,2.2,55.37,55.37,0,0,1,14.91,6.37,46.22,46.22,0,0,1,10.18,8.47,37.13,37.13,0,0,1,5.15,7.3,24.11,24.11,0,0,1,1.07,2.18A6.93,6.93,0,0,1,134.83,262.92Z" style="fill:#e0e0e0"></path><path d="M194.8,291.42a14.39,14.39,0,0,1-.31-1.65,33.86,33.86,0,0,0-1.12-4.42,30.32,30.32,0,0,0-20.83-20,31.93,31.93,0,0,0-4.46-.93,13.78,13.78,0,0,1-1.67-.24,1.15,1.15,0,0,1,.44,0c.29,0,.71,0,1.25.06a27,27,0,0,1,4.54.78,29.58,29.58,0,0,1,21.08,20.19,27.11,27.11,0,0,1,1,4.5c.08.53.09,1,.11,1.24A1.23,1.23,0,0,1,194.8,291.42Z" style="fill:#e0e0e0"></path><path d="M161.32,300.76a10.84,10.84,0,0,1,.7-1.22c.47-.78,1.14-1.91,1.95-3.32s1.75-3.09,2.78-5,2.19-4,3.11-6.22a13.58,13.58,0,0,0,.87-6.73,9.69,9.69,0,0,0-2.25-5,8.62,8.62,0,0,0-3-2.26c-.82-.36-1.32-.45-1.31-.5s.13,0,.37,0a6.86,6.86,0,0,1,1,.28,8.35,8.35,0,0,1,3.19,2.2,9.85,9.85,0,0,1,2.45,5.2,13.79,13.79,0,0,1-.87,7,62.78,62.78,0,0,1-3.17,6.26c-1.06,1.87-2,3.54-2.89,4.93s-1.57,2.49-2.09,3.24A5.72,5.72,0,0,1,161.32,300.76Z" style="fill:#e0e0e0"></path><path d="M117.7,274.22a2,2,0,0,1,.14-.54c.11-.35.29-.86.53-1.51s.57-1.43,1-2.31a11.54,11.54,0,0,1,1.91-2.78,11.86,11.86,0,0,1,8-3.16,10.18,10.18,0,0,1,5,1.39,43,43,0,0,1,4.56,3.13,29.73,29.73,0,0,0,4.56,3,11.67,11.67,0,0,0,4.81,1.26,14.51,14.51,0,0,0,4.44-.94c1.38-.47,2.7-.82,3.9-1.12a19.24,19.24,0,0,1,5.84-.61,3.53,3.53,0,0,1,2.06.6s-.17-.08-.52-.18a7.45,7.45,0,0,0-1.55-.22,20.79,20.79,0,0,0-5.74.77c-1.19.32-2.48.69-3.85,1.17a14.72,14.72,0,0,1-4.58,1,12,12,0,0,1-5-1.28,30.48,30.48,0,0,1-4.64-3,43.68,43.68,0,0,0-4.5-3.1,9.66,9.66,0,0,0-4.74-1.36c-3.19.12-6.1,1.2-7.78,2.94a11.37,11.37,0,0,0-1.92,2.66c-.47.85-.81,1.62-1.09,2.25s-.46,1.08-.62,1.47A3.1,3.1,0,0,1,117.7,274.22Z" style="fill:#e0e0e0"></path><rect x="117.03" y="375.09" width="57.97" height="7.04" style="fill:#ebebeb"></rect><polygon points="128.94 382.13 125.7 437.93 129.7 437.93 138.46 382.13 128.94 382.13" style="fill:#ebebeb"></polygon><polygon points="165.48 382.13 155.97 382.13 164.72 437.93 168.72 437.93 165.48 382.13" style="fill:#ebebeb"></polygon><path d="M174.48,382.13c0,.15-12.89.26-28.78.26s-28.78-.11-28.78-.26,12.88-.26,28.78-.26S174.48,382,174.48,382.13Z" style="fill:#e0e0e0"></path><rect x="493.94" y="81.21" width="209.44" height="87.45" style="fill:#ebebeb"></rect><path d="M695.45,161.4H502.07v-75H695.45Zm-192.38-1H694.45v-73H503.07Z" style="fill:#e0e0e0"></path><path d="M602.11,161.23c-.15,0-.26-16.49-.26-36.83s.11-36.83.26-36.83.26,16.49.26,36.83S602.25,161.23,602.11,161.23Z" style="fill:#e0e0e0"></path><path d="M593.14,127.66a3.23,3.23,0,1,1-3.23-3.22A3.23,3.23,0,0,1,593.14,127.66Z" style="fill:#e0e0e0"></path><rect x="474.67" y="222.76" width="34.35" height="9.09" style="fill:#ebebeb"></rect><path d="M494.5,241.42s0-.06,0-.16v-.47c0-.43,0-1,0-1.79,0-1.57,0-3.82-.06-6.67l.11.11-34.35.07c.07-.08-.18.17.17-.18h0V237c0,1.52,0,3,0,4.47l-.17-.17,24.48.08,7.23,0,1.95,0h.7s-.05,0-.16,0h-.49l-1.92,0-7.19.05-24.6.07H460v-9.24h0c.35-.35.1-.09.18-.17l34.35.07h.1v.1c0,2.87,0,5.15-.06,6.74,0,.75,0,1.34,0,1.76,0,.18,0,.33,0,.45S494.5,241.43,494.5,241.42Z" style="fill:#e0e0e0"></path><rect x="542.78" y="43.4" width="34.35" height="9.09" style="fill:#ebebeb"></rect><path d="M562.61,62.06s0-.06,0-.16,0-.28,0-.47c0-.43,0-1,0-1.79,0-1.57,0-3.82-.06-6.67l.11.11-34.35.07c.07-.08-.18.17.17-.18h0v4.6c0,1.52,0,3,0,4.47l-.17-.17,24.48.08L560,62l1.95,0H562l-1.92,0-7.19,0-24.6.08h-.17V53h0c.35-.35.1-.09.18-.17l34.35.07h.1V53c0,2.87,0,5.15-.06,6.73,0,.76,0,1.35,0,1.77,0,.18,0,.33,0,.45S562.61,62.06,562.61,62.06Z" style="fill:#e0e0e0"></path><rect x="296.57" y="35.29" width="34.35" height="9.09" style="fill:#ebebeb"></rect><path d="M316.39,54s0-.06,0-.17,0-.27,0-.47c0-.42,0-1,0-1.78,0-1.57,0-3.83-.06-6.67l.1.1L282,45c.08-.08-.17.18.18-.17h0v2.31c0,.77,0,1.54,0,2.3V54l-.17-.18,24.48.08,7.23,0,1.95,0h.51l.18,0h-.65l-1.91,0-7.19,0-24.6.08h-.17V44.88h0c.35-.35.09-.1.17-.18l34.35.07h.11v.11c0,2.87,0,5.15-.06,6.73,0,.75,0,1.34,0,1.76,0,.19,0,.33,0,.45S316.4,54,316.39,54Z" style="fill:#e0e0e0"></path><path d="M642.32,211.63s0-.06,0-.17V211c0-.43,0-1,0-1.79,0-1.57,0-3.82-.06-6.67l.11.11-34.35.07c.07-.08-.18.17.17-.18h0v9.07l-.18-.17,24.49.08,7.22.05,2,0h0l-1.92,0-7.18.05L608,211.8h-.17v-9.24h0c.35-.35.1-.1.18-.17l34.35.07h.11v.1c0,2.87,0,5.15,0,6.73,0,.76,0,1.35,0,1.77,0,.18,0,.33,0,.45A.79.79,0,0,1,642.32,211.63Z" style="fill:#e0e0e0"></path><path d="M647,202.54s0-.06,0-.17,0-.29,0-.48q0-.67,0-1.83c0-1.59,0-3.84-.07-6.61l.13.13-20.64,0c-.16.15.21-.21.17-.18h0v4.66c0,1.53,0,3,0,4.41l-.16-.17,14.76.08,4.3.05,1.16,0,.42,0a1.59,1.59,0,0,1-.38,0l-1.12,0-4.27,0-14.87.08h-.17v-.17c0-1.41,0-2.88,0-4.41v-4.66h0s.33-.33.18-.17l20.64.05h.12v.12c0,2.8-.05,5.08-.07,6.69,0,.76,0,1.35,0,1.8S647,202.55,647,202.54Z" style="fill:#e0e0e0"></path><path d="M272.51,257.75a1.08,1.08,0,0,1,0-.16v-.47c0-.43,0-1,0-1.79,0-1.57,0-3.82-.06-6.66l.11.1-34.35.07.17-.17h0v9.07l-.17-.17,24.48.08,7.22,0,2,0h.53l-.49,0-1.92,0-7.18.05-24.6.07H238v-9.25h0l.18-.18,34.35.07h.11v.11c0,2.87-.05,5.14-.06,6.73,0,.75,0,1.34,0,1.76v.45A.55.55,0,0,1,272.51,257.75Z" style="fill:#e0e0e0"></path><path d="M277.17,248.67a.83.83,0,0,1,0-.18c0-.13,0-.29,0-.48,0-.45,0-1,0-1.82,0-1.59,0-3.85-.07-6.61l.13.12-20.64.05.17-.17h0v4.67c0,1.52,0,3,0,4.41l-.16-.17,14.76.08,4.3,0,1.16,0a2.08,2.08,0,0,1,.42,0l-.38,0-1.12,0-4.27,0-14.87.08h-.17v-.16c0-1.42,0-2.89,0-4.41v-4.67h0l.18-.18,20.64,0h.12v.13c0,2.8-.05,5.07-.07,6.69,0,.75,0,1.35,0,1.79S277.18,248.67,277.17,248.67Z" style="fill:#e0e0e0"></path><path d="M71.77,160.94a1.33,1.33,0,0,1,0-.17v-.47c0-.42,0-1,0-1.78,0-1.57,0-3.83-.06-6.67l.11.1L37.42,152l.17-.17h0v9.08l-.17-.18,24.48.08,7.22,0,2,0,.51,0h-.47l-1.92,0L62,161l-24.6.08h-.18v-9.25h0l.18-.18,34.35.07h.11v.11c0,2.87,0,5.15-.06,6.73,0,.75,0,1.34,0,1.76v.45A.85.85,0,0,1,71.77,160.94Z" style="fill:#e0e0e0"></path><path d="M76.43,151.85a.83.83,0,0,1,0-.18v-.48l0-1.82c0-1.59,0-3.84-.07-6.61l.13.13-20.64,0,.17-.17h0v4.66c0,1.52,0,3,0,4.41l-.16-.17,14.76.08,4.3.05,1.16,0a2.08,2.08,0,0,1,.42,0l-.38,0-1.12,0-4.27.05L55.79,152h-.17v-.17c0-1.41,0-2.89,0-4.41v-4.66h0l.18-.18,20.64,0h.12v.13c0,2.8,0,5.08-.07,6.69,0,.75,0,1.35,0,1.79S76.44,151.86,76.43,151.85Z" style="fill:#e0e0e0"></path></g><g id="freepik--Floor--inject-30"><path d="M730.46,437.93c0,.14-159.16.26-355.44.26s-355.48-.12-355.48-.26,159.13-.26,355.48-.26S730.46,437.79,730.46,437.93Z" style="fill:#263238"></path><path d="M561.57,475.16c0,.15-83.54.26-186.56.26s-186.58-.11-186.58-.26S272,474.9,375,474.9,561.57,475,561.57,475.16Z" style="fill:#263238"></path></g><g id="freepik--Lamps--inject-30"><rect x="412.13" y="135.32" width="19.67" height="42.12" style="fill:#263238"></rect><rect x="413.89" y="128.92" width="16.15" height="6.4" style="fill:#263238"></rect><path d="M422,10c.14,0,.26,27.35.26,61.08s-.12,61.08-.26,61.08-.26-27.34-.26-61.08S421.82,10,422,10Z" style="fill:#263238"></path><rect x="443.32" y="91.16" width="19.67" height="42.12" style="fill:#263238"></rect><rect x="445.08" y="84.77" width="16.15" height="6.4" style="fill:#263238"></rect><path d="M453.15,10a4,4,0,0,1,.06.79c0,.57,0,1.33,0,2.28,0,2,.05,4.87.09,8.35,0,7.11,0,16.83.07,27.58s-.05,20.47-.07,27.58c0,3.49-.07,6.33-.09,8.36,0,.94,0,1.7,0,2.27a4,4,0,0,1-.06.79,6.93,6.93,0,0,1,0-.79c0-.57,0-1.33-.05-2.27,0-2-.05-4.87-.08-8.36,0-7.11-.05-16.83-.08-27.58s.06-20.47.08-27.58c0-3.48.06-6.33.08-8.35,0-.95,0-1.71.05-2.28A6.93,6.93,0,0,1,453.15,10Z" style="fill:#263238"></path></g><g id="freepik--Armchair--inject-30"><path d="M118.72,387.35c0,.85,14.39,50.58,14.39,50.58h5.52l-11.84-51.85Z" style="fill:#8d4032"></path><path d="M177.56,381.24c.21.85,13,56.69,13,56.69h-5.46s-14.54-54.56-13.9-54.56S177.56,381.24,177.56,381.24Z" style="fill:#8d4032"></path><polygon points="99.31 437.93 109.95 394.77 118.72 393.89 103.56 437.93 99.31 437.93" style="fill:#8d4032"></polygon><path d="M39.58,337.82s30.33-4,37.7-3.43,8.49,3.41,11.64,9.39,6,12.55,6,12.55,11.73-.77,16.88,9.29l61.53-6.93c3.2-.25,6.56,1.33,9.17,3.2,2.92,2.1,4.76,6.93,4.06,12.84-1.39,11.65-13,16.73-22,18.84s-73.37,10.33-93.14,4-23.46-29.56-27-42S39.58,337.82,39.58,337.82Z" style="fill:#455a64"></path><path d="M26.45,255.26s-11.62-2-9.42,12.56,26.26,81.71,26.26,81.71L123.54,377l48.59-18.28-2.42-20.53s-1.53-7.76-7.38-7.69-42.19.18-42.19.18-9.36-66.87-13.84-70.43-12.76-4.2-29.3,1.3-26.3,3.27-30.85,1.55S30.63,255,26.45,255.26Z" style="fill:#455a64"></path><path d="M48.28,331.9a3,3,0,0,1-.35-.64c-.22-.47-.52-1.09-.89-1.86-.77-1.63-1.82-4-3.08-7-2.51-5.92-5.71-14.22-8.68-23.57s-5.11-18-6.45-24.27c-.68-3.15-1.18-5.7-1.49-7.47-.14-.84-.25-1.52-.34-2a3.2,3.2,0,0,1-.09-.72,4,4,0,0,1,.19.7c.11.51.26,1.18.44,2,.37,1.76.93,4.3,1.65,7.43,1.43,6.25,3.64,14.85,6.59,24.19s6.1,17.64,8.52,23.58c1.21,3,2.22,5.38,2.93,7l.8,1.91A4.47,4.47,0,0,1,48.28,331.9Z" style="fill:#263238"></path><polygon points="52.71 437.93 68.13 394.33 75.32 397.02 57.6 437.93 52.71 437.93" style="fill:#8d4032"></polygon><path d="M186.52,372.74s0-.57,0-1.65a12.22,12.22,0,0,0-.86-4.58A11.94,11.94,0,0,0,181,361a14.48,14.48,0,0,0-9.39-2l-57.06,5.49-5.23.5h-.17l-.08-.15a19.81,19.81,0,0,0-6-7.09,16.68,16.68,0,0,0-8.17-3.16h-.17l0-.14c-1.66-3.8-3.35-7.44-5.09-10.86-.87-1.71-1.73-3.39-2.61-5a12.09,12.09,0,0,0-3.27-4.06,10.42,10.42,0,0,0-4.59-1.72,28.84,28.84,0,0,0-4.67-.33c-3,0-5.82.18-8.35.35-5.07.36-9.1.77-11.86,1.05l-3.16.32-.82.08a.87.87,0,0,1-.28,0l.28-.05.81-.12,3.15-.41c2.76-.32,6.78-.78,11.85-1.19,2.54-.19,5.34-.39,8.38-.41a29.81,29.81,0,0,1,4.74.3,11,11,0,0,1,4.77,1.77,12.66,12.66,0,0,1,3.41,4.18c.9,1.61,1.75,3.27,2.64,5,1.75,3.43,3.46,7.07,5.12,10.89l-.22-.15a17.14,17.14,0,0,1,8.46,3.23,20.42,20.42,0,0,1,6.15,7.27l-.26-.14,5.24-.5,57.07-5.34a14.71,14.71,0,0,1,9.58,2.13,11.58,11.58,0,0,1,5.55,10.35A10.63,10.63,0,0,1,186.52,372.74Z" style="fill:#263238"></path><path d="M120.14,330.7a1.6,1.6,0,0,1,.12.47c.07.35.15.8.26,1.36.21,1.24.51,3,.88,5.09.72,4.42,1.72,10.53,2.88,17.61L124,355c3.09,0,6.42.1,9.87.27,9.6.49,18.23,1.54,24.48,2.2l7.4.81,2,.23a3.37,3.37,0,0,1,.7.12,4.76,4.76,0,0,1-.71,0l-2-.13c-1.75-.13-4.29-.35-7.42-.65-6.26-.56-14.89-1.55-24.46-2-3.44-.17-6.77-.26-9.85-.3h-.21l0-.21c-1.09-7.08-2-13.21-2.7-17.63l-.74-5.12c-.07-.56-.13-1-.18-1.37A2.84,2.84,0,0,1,120.14,330.7Z" style="fill:#263238"></path><path d="M94.16,385.75a2.92,2.92,0,0,1-.29-.5l-.75-1.5c-.66-1.38-1.56-3.26-2.67-5.55-2.23-4.77-5.26-11.25-8.62-18.4l-4.68-10.17c-1.43-3.12-2.31-6.26-2-8.92A8.36,8.36,0,0,1,78,335.27a5.7,5.7,0,0,1,1.45-.86,1.9,1.9,0,0,1,.57-.16,7.93,7.93,0,0,0-1.89,1.18,8.31,8.31,0,0,0-2.58,5.32c-.29,2.56.59,5.6,2,8.69l4.71,10.14L90.79,378c1,2.33,1.89,4.23,2.52,5.62.26.63.48,1.14.66,1.54A2.5,2.5,0,0,1,94.16,385.75Z" style="fill:#263238"></path><path d="M186.48,374.84l-.32.1-1,.26-3.77.95c-1.63.42-3.65.86-6,1.37s-5,1.06-8,1.64a353.6,353.6,0,0,1-46.8,5.58c-18.4,1-35.09.77-47.15.44a83.53,83.53,0,0,1-14.23-1.33,38.38,38.38,0,0,1-3.77-.94l-1-.32-.33-.12a1.19,1.19,0,0,1,.34.07l1,.27c.86.22,2.13.54,3.79.84a87.46,87.46,0,0,0,14.2,1.16c12.06.24,28.73.45,47.11-.59a372.66,372.66,0,0,0,46.76-5.43c3-.54,5.65-1,8-1.55s4.36-.9,6-1.29l3.79-.85,1-.21Z" style="fill:#263238"></path></g><g id="freepik--Shelf--inject-30"><rect x="67.14" y="108.9" width="98.41" height="9.48" style="fill:#455a64"></rect><path d="M110.56,54.13l.06-.13.2-.36a15.8,15.8,0,0,1,.85-1.34,14.41,14.41,0,0,1,4.23-4,10.55,10.55,0,0,1,3.79-1.4,9.38,9.38,0,0,1,4.61.49,7.4,7.4,0,0,1,4,3.23A24.52,24.52,0,0,1,130,55.84a9,9,0,0,0,1.1,2.49A7.27,7.27,0,0,0,133,60.17c.7.52,1.44,1,2.11,1.54a9.14,9.14,0,0,1,1.72,1.86,11.33,11.33,0,0,1,1.75,4.29,15.24,15.24,0,0,1,.24,4,31.91,31.91,0,0,1-1,5.74c-.18.67-.33,1.18-.43,1.53a3.82,3.82,0,0,1-.17.52,4.2,4.2,0,0,1,.11-.54l.36-1.54a32,32,0,0,0,.93-5.72,14.83,14.83,0,0,0-.27-4,11.15,11.15,0,0,0-1.74-4.17A8.26,8.26,0,0,0,134.87,62c-.65-.53-1.39-1-2.11-1.52a8.26,8.26,0,0,1-1.95-1.92,9.62,9.62,0,0,1-1.14-2.58,24.5,24.5,0,0,0-1.7-5.15,7.2,7.2,0,0,0-3.77-3.11,9.17,9.17,0,0,0-4.47-.49A10,10,0,0,0,116,48.5a14.83,14.83,0,0,0-4.25,3.88c-.41.55-.7,1-.9,1.29A2.63,2.63,0,0,1,110.56,54.13Z" style="fill:#e0e0e0"></path><path d="M133.78,60.64c-.49-.45-.73-.14-1.39,0a4.07,4.07,0,0,0-1.77.89,7.46,7.46,0,0,0-2.42,7.84,5.83,5.83,0,0,0,5.35-8.76" style="fill:#e0e0e0"></path><path d="M113.7,51.5c-.25-.62-.6-.44-1.24-.61a4.06,4.06,0,0,0-2,0,7.48,7.48,0,0,0-5.56,6,5.83,5.83,0,0,0,8.61-5.6" style="fill:#e0e0e0"></path><path d="M138.2,73a6.73,6.73,0,0,0-10.59.52,8.34,8.34,0,0,0,5.49,2.16,8.46,8.46,0,0,0,5.53-2.23" style="fill:#e0e0e0"></path><path d="M136.55,63.77a6.81,6.81,0,0,0,6.89-8.14,6.13,6.13,0,0,0-7.12,8.08" style="fill:#e0e0e0"></path><path d="M129.48,52.91a6.83,6.83,0,0,0,9.21-5.39,6.13,6.13,0,0,0-9.4,5.25" style="fill:#e0e0e0"></path><path d="M127.11,49.37a6.82,6.82,0,0,0-9.2,5.39,6.12,6.12,0,0,0,9.39-5.25" style="fill:#e0e0e0"></path><path d="M124.29,47.46a6.82,6.82,0,0,0,3.63-10,6.12,6.12,0,0,0-3.87,10" style="fill:#e0e0e0"></path><path d="M117.05,47.8a6.81,6.81,0,0,0-5.57-9.09A6.13,6.13,0,0,0,116.92,48" style="fill:#e0e0e0"></path><polyline points="146.23 96.73 150.09 72.53 120.53 72.88 123.45 96.41" style="fill:#263238"></polyline><path d="M133.48,68.1a5,5,0,0,1-4.91.42,5.32,5.32,0,0,1-2.68-4.24,6,6,0,0,1,4.9-.25A6,6,0,0,1,134,67.67" style="fill:#ECEFF1"></path><path d="M120,73.32a5,5,0,0,1-4.91.41,5.32,5.32,0,0,1-2.68-4.24,6,6,0,0,1,4.9-.25,5.93,5.93,0,0,1,3.25,3.64" style="fill:#ECEFF1"></path><path d="M127.55,61.68a5,5,0,0,1-3.87,3,5.31,5.31,0,0,1-4.57-2.07A5.68,5.68,0,0,1,127.79,61" style="fill:#ECEFF1"></path><path d="M122.62,67.71A5,5,0,0,1,127,69.89a5.29,5.29,0,0,1,.1,5,6,6,0,0,1-4.31-2.32,6,6,0,0,1-.91-4.81" style="fill:#ECEFF1"></path><path d="M117.86,77.23a5,5,0,0,1-.12,4.92,5.28,5.28,0,0,1-4.5,2.21,6,6,0,0,1,.28-4.89A5.53,5.53,0,0,1,117.45,77" style="fill:#ECEFF1"></path><path d="M110,78.35a3.71,3.71,0,0,1,1.17-.74,4.94,4.94,0,0,1,1.6-.28,17.79,17.79,0,0,1,2.18.13,6.45,6.45,0,0,0,2.68-.23,4.09,4.09,0,0,0,2.22-2.15,12.32,12.32,0,0,0,1-3.26A9.48,9.48,0,0,1,122,68.46a12,12,0,0,1,2.5-2.54,11.69,11.69,0,0,0,2.39-2.43A7.93,7.93,0,0,0,128,57.93a7.72,7.72,0,0,0-1.45-3.57,4.86,4.86,0,0,0-.71-.78,1.49,1.49,0,0,0-.27-.24s.07.1.23.28a8.59,8.59,0,0,1,.65.81A8,8,0,0,1,127.81,58a7.83,7.83,0,0,1-1.21,5.37,11.88,11.88,0,0,1-2.35,2.35,12.25,12.25,0,0,0-2.57,2.61,9.45,9.45,0,0,0-1.17,3.47A12.35,12.35,0,0,1,119.6,75a3.9,3.9,0,0,1-2,2,6.24,6.24,0,0,1-2.58.25,19.08,19.08,0,0,0-2.2-.08,5.14,5.14,0,0,0-1.64.34,2.77,2.77,0,0,0-.89.58,1.36,1.36,0,0,0-.18.21S110,78.35,110,78.35Z" style="fill:#ECEFF1"></path><path d="M110,78.35a3.71,3.71,0,0,1,1.17-.74,4.94,4.94,0,0,1,1.6-.28,17.79,17.79,0,0,1,2.18.13,6.45,6.45,0,0,0,2.68-.23,4.09,4.09,0,0,0,2.22-2.15,12.32,12.32,0,0,0,1-3.26A9.48,9.48,0,0,1,122,68.46a12,12,0,0,1,2.5-2.54,11.69,11.69,0,0,0,2.39-2.43A7.93,7.93,0,0,0,128,57.93a7.72,7.72,0,0,0-1.45-3.57,4.86,4.86,0,0,0-.71-.78,1.49,1.49,0,0,0-.27-.24s.07.1.23.28a8.59,8.59,0,0,1,.65.81A8,8,0,0,1,127.81,58a7.83,7.83,0,0,1-1.21,5.37,11.88,11.88,0,0,1-2.35,2.35,12.25,12.25,0,0,0-2.57,2.61,9.45,9.45,0,0,0-1.17,3.47A12.35,12.35,0,0,1,119.6,75a3.9,3.9,0,0,1-2,2,6.24,6.24,0,0,1-2.58.25,19.08,19.08,0,0,0-2.2-.08,5.14,5.14,0,0,0-1.64.34,2.77,2.77,0,0,0-.89.58,1.36,1.36,0,0,0-.18.21S110,78.35,110,78.35Z" style="fill:#ECEFF1"></path><path d="M166.42,80.83a7.48,7.48,0,0,1,10.12-7.36,12.48,12.48,0,0,1-9.86,7.27" style="fill:#ECEFF1"></path><path d="M168.37,81.86c1.44,1.59,1.35,4.14.32,6a13.62,13.62,0,0,1-4.6,4.42,9.71,9.71,0,0,1,4.18-11" style="fill:#ECEFF1"></path><path d="M161.37,74.42a8.62,8.62,0,0,1-9.8,7.69,11.79,11.79,0,0,1,3.28-6.24c1.8-1.58,4.63-2.16,6.61-.84" style="fill:#ECEFF1"></path><path d="M161.42,72.05A5.05,5.05,0,0,1,166,68.21a8.79,8.79,0,0,1,6,2,7.74,7.74,0,0,1-10.57,1" style="fill:#ECEFF1"></path><path d="M172.42,90a6.93,6.93,0,0,1,1.7,7.35,12.21,12.21,0,0,1-5,6,16.08,16.08,0,0,1-.94-7.81,8.2,8.2,0,0,1,4.45-6.2" style="fill:#ECEFF1"></path><path d="M161.74,66.12a6.24,6.24,0,0,0-9.87-.58,5.38,5.38,0,0,0,9.72.25" style="fill:#ECEFF1"></path><path d="M159.26,60a8.09,8.09,0,0,0,10.33-6.33,18.12,18.12,0,0,0-4.88.07,7.87,7.87,0,0,0-4.32,2.13A4.28,4.28,0,0,0,159.26,60" style="fill:#ECEFF1"></path><path d="M154.57,58.45a6.63,6.63,0,0,0,0-10.23,14,14,0,0,0-2.9,6.18,5.16,5.16,0,0,0,0,2.56,2.34,2.34,0,0,0,1.79,1.67" style="fill:#ECEFF1"></path><g style="opacity:0.4"><path d="M166.42,80.83a7.48,7.48,0,0,1,10.12-7.36,12.48,12.48,0,0,1-9.86,7.27"></path></g><g style="opacity:0.4"><path d="M168.37,81.86c1.44,1.59,1.35,4.14.32,6a13.62,13.62,0,0,1-4.6,4.42,9.71,9.71,0,0,1,4.18-11"></path></g><g style="opacity:0.4"><path d="M161.37,74.42a8.62,8.62,0,0,1-9.8,7.69,11.79,11.79,0,0,1,3.28-6.24c1.8-1.58,4.63-2.16,6.61-.84"></path></g><g style="opacity:0.4"><path d="M161.42,72.05A5.05,5.05,0,0,1,166,68.21a8.79,8.79,0,0,1,6,2,7.74,7.74,0,0,1-10.57,1"></path></g><g style="opacity:0.4"><path d="M172.42,90a6.93,6.93,0,0,1,1.7,7.35,12.21,12.21,0,0,1-5,6,16.08,16.08,0,0,1-.94-7.81,8.2,8.2,0,0,1,4.45-6.2"></path></g><g style="opacity:0.4"><path d="M161.74,66.12a6.24,6.24,0,0,0-9.87-.58,5.38,5.38,0,0,0,9.72.25"></path></g><g style="opacity:0.4"><path d="M159.26,60a8.09,8.09,0,0,0,10.33-6.33,18.12,18.12,0,0,0-4.88.07,7.87,7.87,0,0,0-4.32,2.13A4.28,4.28,0,0,0,159.26,60"></path></g><g style="opacity:0.4"><path d="M154.57,58.45a6.63,6.63,0,0,0,0-10.23,14,14,0,0,0-2.9,6.18,5.16,5.16,0,0,0,0,2.56,2.34,2.34,0,0,0,1.79,1.67"></path></g><path d="M146.46,73.3s0,0,0-.16,0-.29,0-.49c0-.43-.06-1.06-.08-1.87a16.78,16.78,0,0,1,1.1-6.71,10.26,10.26,0,0,1,2.7-3.8,7.19,7.19,0,0,1,4.92-1.81,6.23,6.23,0,0,1,2.77.69A5.61,5.61,0,0,1,160,61.2a10.94,10.94,0,0,1,1.24,6.17,44.36,44.36,0,0,0-.14,6.5,9.85,9.85,0,0,0,.8,3,6.42,6.42,0,0,0,1.82,2.38,9.35,9.35,0,0,0,2.53,1.3,12.75,12.75,0,0,1,2.39,1.08,8.61,8.61,0,0,1,3.13,3.42,8.3,8.3,0,0,1,.91,3.73,8.94,8.94,0,0,1-.47,2.89,10.9,10.9,0,0,1-1.12,2.24s0,0,.11-.12.17-.22.28-.4a7.81,7.81,0,0,0,.84-1.68,8.75,8.75,0,0,0,.54-2.93A8.5,8.5,0,0,0,172,85a8.94,8.94,0,0,0-3.2-3.54c-1.46-1-3.39-1.21-4.87-2.38a7.57,7.57,0,0,1-2.5-5.2,44,44,0,0,1,.15-6.45A11.28,11.28,0,0,0,160.25,61,5.86,5.86,0,0,0,158,58.88a6.55,6.55,0,0,0-2.91-.72A7.48,7.48,0,0,0,150,60.07,10.35,10.35,0,0,0,147.24,64a14.46,14.46,0,0,0-.93,3.83,20.8,20.8,0,0,0-.08,3c0,.82.09,1.45.14,1.88q0,.28.06.48Z" style="fill:#ECEFF1"></path><g style="opacity:0.30000000000000004"><path d="M146.46,73.3s0,0,0-.16,0-.29,0-.49c0-.43-.06-1.06-.08-1.87a16.78,16.78,0,0,1,1.1-6.71,10.26,10.26,0,0,1,2.7-3.8,7.19,7.19,0,0,1,4.92-1.81,6.23,6.23,0,0,1,2.77.69A5.61,5.61,0,0,1,160,61.2a10.94,10.94,0,0,1,1.24,6.17,44.36,44.36,0,0,0-.14,6.5,9.85,9.85,0,0,0,.8,3,6.42,6.42,0,0,0,1.82,2.38,9.35,9.35,0,0,0,2.53,1.3,12.75,12.75,0,0,1,2.39,1.08,8.61,8.61,0,0,1,3.13,3.42,8.3,8.3,0,0,1,.91,3.73,8.94,8.94,0,0,1-.47,2.89,10.9,10.9,0,0,1-1.12,2.24s0,0,.11-.12.17-.22.28-.4a7.81,7.81,0,0,0,.84-1.68,8.75,8.75,0,0,0,.54-2.93A8.5,8.5,0,0,0,172,85a8.94,8.94,0,0,0-3.2-3.54c-1.46-1-3.39-1.21-4.87-2.38a7.57,7.57,0,0,1-2.5-5.2,44,44,0,0,1,.15-6.45A11.28,11.28,0,0,0,160.25,61,5.86,5.86,0,0,0,158,58.88a6.55,6.55,0,0,0-2.91-.72A7.48,7.48,0,0,0,150,60.07,10.35,10.35,0,0,0,147.24,64a14.46,14.46,0,0,0-.93,3.83,20.8,20.8,0,0,0-.08,3c0,.82.09,1.45.14,1.88q0,.28.06.48Z"></path></g><path d="M103.44,68a6.18,6.18,0,0,1-.45-2.16,5.46,5.46,0,0,1,.58-2.5A5.24,5.24,0,0,1,106,61a5.34,5.34,0,0,1,1.9-.51,6,6,0,0,1,2.12.25c1.45.38,2.88,1.2,4.6,1.54a5.34,5.34,0,0,0,2.66-.07,4,4,0,0,0,2.17-1.73c1-1.6,1.32-3.61,2.57-5.08a5,5,0,0,1,2.33-1.53,6.52,6.52,0,0,1,2.73-.27A7,7,0,0,1,131.6,56a10.68,10.68,0,0,1,2.25,4.16,12.68,12.68,0,0,1,.5,4.13,44,44,0,0,1-.77,6c-.12.69-.21,1.24-.28,1.64,0,.17-.05.31-.06.43s0,.14,0,.15a1,1,0,0,0,0-.15q0-.16.09-.42c.09-.39.2-.94.35-1.62a41.42,41.42,0,0,0,.87-6,12.6,12.6,0,0,0-.48-4.21,10.82,10.82,0,0,0-2.29-4.29,8,8,0,0,0-2.07-1.66,7.09,7.09,0,0,0-5.51-.53,5.43,5.43,0,0,0-2.48,1.62c-1.31,1.58-1.6,3.6-2.58,5.12a3.71,3.71,0,0,1-2,1.61,5.12,5.12,0,0,1-2.52.07c-1.65-.32-3.09-1.13-4.58-1.51a6.47,6.47,0,0,0-2.21-.24,5.55,5.55,0,0,0-4.45,3,5.49,5.49,0,0,0-.54,2.58,5.12,5.12,0,0,0,.32,1.64A2.17,2.17,0,0,0,103.44,68Z" style="fill:#ECEFF1"></path><path d="M120.72,57.3a5.76,5.76,0,0,1-5.27.35,5.3,5.3,0,0,1-2.68-4.24,5.67,5.67,0,0,1,8.15,3.39" style="fill:#ECEFF1"></path><path d="M115.12,62.38a5.73,5.73,0,0,1-2.45,4.68,5.35,5.35,0,0,1-5,.09A6,6,0,0,1,110,62.83a6,6,0,0,1,4.8-.88" style="fill:#ECEFF1"></path><path d="M105.4,61.25a5.75,5.75,0,0,1-5.28-.21,5.31,5.31,0,0,1-2.21-4.5,5.66,5.66,0,0,1,7.74,4.24" style="fill:#ECEFF1"></path><path d="M128.88,53.93a6,6,0,0,0,2.1-5,5.32,5.32,0,0,0-3.26-3.82A6,6,0,0,0,126,49.75a6,6,0,0,0,2.52,4.18" style="fill:#ECEFF1"></path><path d="M166.83,47l-.06-.13-.19-.37c-.18-.31-.46-.77-.86-1.33a14.42,14.42,0,0,0-4.23-4,10.36,10.36,0,0,0-3.79-1.39,9.37,9.37,0,0,0-4.61.48,7.57,7.57,0,0,0-4,3.23,24.49,24.49,0,0,0-1.72,5.21,9.19,9.19,0,0,1-1.11,2.49A7.47,7.47,0,0,1,144.44,53c-.7.52-1.44,1-2.11,1.53a8.82,8.82,0,0,0-1.71,1.86,11.26,11.26,0,0,0-1.76,4.29,15.34,15.34,0,0,0-.24,4,30.76,30.76,0,0,0,1,5.73c.17.67.32,1.18.42,1.53a3.73,3.73,0,0,0,.17.53,4.11,4.11,0,0,0-.11-.55c-.09-.37-.21-.89-.36-1.54a32.57,32.57,0,0,1-.93-5.72,14.76,14.76,0,0,1,.27-4,11.2,11.2,0,0,1,1.74-4.18,8.77,8.77,0,0,1,1.66-1.79c.66-.53,1.39-1,2.11-1.52a7.73,7.73,0,0,0,2-1.92,9.56,9.56,0,0,0,1.14-2.57,24.13,24.13,0,0,1,1.7-5.15,7.1,7.1,0,0,1,3.77-3.11,9.18,9.18,0,0,1,4.47-.5,10.34,10.34,0,0,1,3.72,1.33,14.75,14.75,0,0,1,4.24,3.87c.41.55.7,1,.9,1.3A4.34,4.34,0,0,0,166.83,47Z" style="fill:#ECEFF1"></path><path d="M143.61,53.49c.49-.46.73-.14,1.39,0a4.16,4.16,0,0,1,1.77.88,7.46,7.46,0,0,1,2.42,7.85,5.84,5.84,0,0,1-5.35-8.77" style="fill:#ECEFF1"></path><path d="M163.69,44.34c.25-.62.6-.43,1.25-.61a4.15,4.15,0,0,1,2,0,7.47,7.47,0,0,1,5.56,6,5.84,5.84,0,0,1-8.61-5.61" style="fill:#ECEFF1"></path><path d="M139.19,65.86a6.74,6.74,0,0,1,10.59.51,8.35,8.35,0,0,1-5.49,2.17,8.52,8.52,0,0,1-5.53-2.24" style="fill:#ECEFF1"></path><path d="M140.84,56.62A6.81,6.81,0,0,1,134,48.48a6.13,6.13,0,0,1,7.12,8.07" style="fill:#ECEFF1"></path><path d="M147.91,45.76a6.83,6.83,0,0,1-9.21-5.39,6.13,6.13,0,0,1,9.4,5.25" style="fill:#ECEFF1"></path><path d="M150.28,42.21a6.82,6.82,0,0,1,9.2,5.39,6.12,6.12,0,0,1-9.39-5.25" style="fill:#ECEFF1"></path><path d="M153.1,40.3a6.82,6.82,0,0,1-3.63-10,6.13,6.13,0,0,1,3.87,10.05" style="fill:#ECEFF1"></path><path d="M160.34,40.65a6.82,6.82,0,0,1,5.57-9.1,6.12,6.12,0,0,1-5.44,9.29" style="fill:#ECEFF1"></path><polygon points="150.46 93.92 148.2 96.73 120.39 96.73 118.5 93.92 150.46 93.92" style="fill:#263238"></polygon><path d="M119.11,93.9c0,.09,6.83.16,15.26.16s15.26-.07,15.26-.16-6.83-.16-15.26-.16S119.11,93.81,119.11,93.9Z" style="fill:#455a64"></path><path d="M122.23,83.34s0,.08.18.23a6.59,6.59,0,0,0,.56.59,10.57,10.57,0,0,0,2.49,1.73A10.92,10.92,0,0,0,129.8,87a10.51,10.51,0,0,0,2.65-.22,15.65,15.65,0,0,0,2.71-.9c1.79-.76,3.42-1.63,5-2.14a8.58,8.58,0,0,1,4.33-.41,5.59,5.59,0,0,1,2.65,1.23c.53.46.73.81.76.79s0-.1-.14-.26a6.07,6.07,0,0,0-.53-.63,5.7,5.7,0,0,0-2.7-1.36,8.67,8.67,0,0,0-4.46.36c-1.62.5-3.27,1.37-5,2.13a15.82,15.82,0,0,1-2.65.88,10.47,10.47,0,0,1-2.58.24,10.94,10.94,0,0,1-4.26-1A13.54,13.54,0,0,1,122.23,83.34Z" style="fill:#455a64"></path><path d="M122,81.17s.05.08.19.21a6.35,6.35,0,0,0,.61.56,11.71,11.71,0,0,0,2.57,1.6,12,12,0,0,0,4.37,1,12.15,12.15,0,0,0,2.66-.18,17.41,17.41,0,0,0,2.75-.78c1.84-.66,3.52-1.43,5.13-1.88a10.18,10.18,0,0,1,4.37-.39,6.51,6.51,0,0,1,2.75,1.05c.58.4.83.71.85.69s-.05-.09-.17-.23a4,4,0,0,0-.61-.56,6.3,6.3,0,0,0-2.79-1.18,10.12,10.12,0,0,0-4.48.34c-1.64.44-3.34,1.2-5.15,1.86a18.06,18.06,0,0,1-2.7.77,11.64,11.64,0,0,1-2.6.19,12.23,12.23,0,0,1-4.29-1A14.79,14.79,0,0,1,122,81.17Z" style="fill:#455a64"></path><rect x="106.74" y="69.85" width="5.57" height="38.13" style="fill:#ECEFF1"></rect><path d="M111.62,75a6,6,0,0,1-2.38.24,6,6,0,0,1-2.39-.24,6.22,6.22,0,0,1,2.39-.24A6.18,6.18,0,0,1,111.62,75Z" style="fill:#fafafa"></path><path d="M111.73,74.21a6,6,0,0,1-2.39.24,6,6,0,0,1-2.39-.24,6.22,6.22,0,0,1,2.39-.24A6.22,6.22,0,0,1,111.73,74.21Z" style="fill:#fafafa"></path><path d="M111.62,105a6.18,6.18,0,0,1-2.38.24,6.22,6.22,0,0,1-2.39-.24,6,6,0,0,1,2.39-.24A6,6,0,0,1,111.62,105Z" style="fill:#fafafa"></path><path d="M111.73,104.2a6.22,6.22,0,0,1-2.39.24,6.22,6.22,0,0,1-2.39-.24,6,6,0,0,1,2.39-.24A6,6,0,0,1,111.73,104.2Z" style="fill:#fafafa"></path><path d="M109.13,99.22c-.13,0-.24-4.37-.24-9.75s.11-9.76.24-9.76.24,4.37.24,9.76S109.26,99.22,109.13,99.22Z" style="fill:#fafafa"></path><rect x="79.19" y="69.73" width="10.19" height="38.13" style="fill:#ECEFF1"></rect><path d="M81.58,108.35a.88.88,0,0,1-.12-.21c-.07-.14-.17-.35-.29-.64a11,11,0,0,1-.74-2.58,6.7,6.7,0,0,1,.6-4.19,5.5,5.5,0,0,1,1.8-2A4.25,4.25,0,0,1,85.77,98a3.08,3.08,0,0,1,1.51.7,2,2,0,0,1,.73,1.61,2.25,2.25,0,0,1-.87,1.61,3.14,3.14,0,0,1-1.74.74,4.63,4.63,0,0,1-3.61-1.31A5.86,5.86,0,0,1,80,97.72a9.84,9.84,0,0,1,.53-4.25A8,8,0,0,1,83,89.75a4.09,4.09,0,0,1,2.2-.86,2.88,2.88,0,0,1,2.29.81A1.86,1.86,0,0,1,88,90.89a2.17,2.17,0,0,1-.35,1.25,3.35,3.35,0,0,1-2.06,1.4A4.78,4.78,0,0,1,81.15,92a7.48,7.48,0,0,1-1.75-4.29,10.55,10.55,0,0,1,.44-4.45,6.12,6.12,0,0,1,2.63-3.39,4.49,4.49,0,0,1,4-.42A2.12,2.12,0,0,1,87.83,81,2.45,2.45,0,0,1,87.37,83a3.17,3.17,0,0,1-3.43.91A5.87,5.87,0,0,1,81.23,82a8.63,8.63,0,0,1-2-5.23,8.31,8.31,0,0,1,.94-4.14,8.2,8.2,0,0,1,1.6-2.16,6.37,6.37,0,0,1,.53-.46c.13-.09.19-.14.2-.13a9.57,9.57,0,0,0-2.16,2.83,8.23,8.23,0,0,0-.84,4,8.39,8.39,0,0,0,2,5A5.62,5.62,0,0,0,84,83.52a2.8,2.8,0,0,0,3-.8,2.06,2.06,0,0,0,.38-1.6,1.74,1.74,0,0,0-1.08-1.25,4.08,4.08,0,0,0-3.65.42,5.68,5.68,0,0,0-2.43,3.15,10.12,10.12,0,0,0-.4,4.26,7,7,0,0,0,1.63,4,4.34,4.34,0,0,0,4,1.35,2.82,2.82,0,0,0,1.75-1.18A1.46,1.46,0,0,0,87.17,90a2.38,2.38,0,0,0-1.91-.67,3.62,3.62,0,0,0-2,.77A7.37,7.37,0,0,0,81,93.62a9.31,9.31,0,0,0-.53,4,5.43,5.43,0,0,0,1.64,3.41,4.25,4.25,0,0,0,3.28,1.23,2.44,2.44,0,0,0,2.28-2A1.61,1.61,0,0,0,87.05,99a2.79,2.79,0,0,0-1.34-.64A3.9,3.9,0,0,0,83,99a5.39,5.39,0,0,0-1.74,1.86,6.6,6.6,0,0,0-.64,4,11.66,11.66,0,0,0,.64,2.58A9,9,0,0,1,81.58,108.35Z" style="fill:#fafafa"></path><rect x="126.28" y="83.82" width="10.19" height="38.13" transform="translate(28.49 234.26) rotate(-90)" style="fill:#e0e0e0"></rect><path d="M150,105.59s-.06,0-.2.12-.34.17-.62.29a10.66,10.66,0,0,1-2.52.74,6.43,6.43,0,0,1-4.1-.6,5.51,5.51,0,0,1-1.94-1.8,4.25,4.25,0,0,1-.68-2.94,3.14,3.14,0,0,1,.69-1.52,2,2,0,0,1,1.57-.73,2.23,2.23,0,0,1,1.57.88,3.09,3.09,0,0,1,.72,1.73,4.68,4.68,0,0,1-1.28,3.61,5.56,5.56,0,0,1-3.58,1.79,9.26,9.26,0,0,1-4.15-.52,7.7,7.7,0,0,1-3.63-2.5,4.18,4.18,0,0,1-.84-2.2,2.9,2.9,0,0,1,.79-2.29,1.8,1.8,0,0,1,1.16-.52,2.07,2.07,0,0,1,1.22.35,3.31,3.31,0,0,1,1.37,2,4.85,4.85,0,0,1-1.47,4.49,7.17,7.17,0,0,1-4.19,1.75,10.06,10.06,0,0,1-4.34-.44,6.07,6.07,0,0,1-3.31-2.63,4.62,4.62,0,0,1-.41-4,2.06,2.06,0,0,1,1.52-1.31,2.35,2.35,0,0,1,1.87.46,3.23,3.23,0,0,1,.89,3.43,6,6,0,0,1-1.88,2.71,8.3,8.3,0,0,1-5.1,2,8.16,8.16,0,0,1-6.16-2.54c-.2-.23-.35-.4-.44-.53s-.14-.19-.13-.2a9.56,9.56,0,0,0,2.77,2.16,7.82,7.82,0,0,0,3.95.84,8.1,8.1,0,0,0,4.9-2,5.61,5.61,0,0,0,1.74-2.55,2.84,2.84,0,0,0-.77-3,2,2,0,0,0-1.57-.38,1.64,1.64,0,0,0-1.21,1.08,4.17,4.17,0,0,0,.4,3.65,5.63,5.63,0,0,0,3.08,2.43,9.79,9.79,0,0,0,4.15.4,6.83,6.83,0,0,0,3.93-1.63,4.37,4.37,0,0,0,1.32-4,2.75,2.75,0,0,0-1.16-1.75,1.38,1.38,0,0,0-1.81.11,2.39,2.39,0,0,0-.65,1.91,3.67,3.67,0,0,0,.75,2,7.21,7.21,0,0,0,3.4,2.34,9,9,0,0,0,4,.53,5.25,5.25,0,0,0,3.33-1.64,4.31,4.31,0,0,0,1.2-3.28,2.43,2.43,0,0,0-1.93-2.29,1.62,1.62,0,0,0-1.3.6,2.83,2.83,0,0,0-.61,1.34,3.94,3.94,0,0,0,.6,2.71,5.2,5.2,0,0,0,1.82,1.74,6.3,6.3,0,0,0,3.94.64,11.85,11.85,0,0,0,2.52-.64C149.72,105.7,150,105.57,150,105.59Z" style="fill:#fafafa"></path><rect x="88.92" y="73.09" width="17.67" height="34.72" style="fill:#263238"></rect><path d="M106,78.86a77.24,77.24,0,0,1-8.56.24,77.13,77.13,0,0,1-8.55-.24,77.13,77.13,0,0,1,8.55-.24A77.24,77.24,0,0,1,106,78.86Z" style="fill:#e0e0e0"></path><path d="M106.21,81.49a75.41,75.41,0,0,1-8.45.24,75.15,75.15,0,0,1-8.44-.24,75.15,75.15,0,0,1,8.44-.24A75.41,75.41,0,0,1,106.21,81.49Z" style="fill:#e0e0e0"></path><path d="M106.77,103.89a83.33,83.33,0,0,1-8.89.24,83.33,83.33,0,0,1-8.89-.24,80.28,80.28,0,0,1,8.89-.24A80.28,80.28,0,0,1,106.77,103.89Z" style="fill:#e0e0e0"></path><path d="M106.53,100.79a79,79,0,0,1-8.66.24,79.13,79.13,0,0,1-8.66-.24,79.13,79.13,0,0,1,8.66-.24A79,79,0,0,1,106.53,100.79Z" style="fill:#e0e0e0"></path></g><g id="freepik--table-2--inject-30"><rect x="675.97" y="244.85" width="2.7" height="26" style="fill:#263238"></rect><rect x="660.66" y="277.73" width="33.31" height="61.71" style="fill:#455a64"></rect><rect x="667.46" y="269.1" width="20.29" height="8.64" style="fill:#455a64"></rect><rect x="639.45" y="224.68" width="73.03" height="39.05" style="fill:#e0e0e0"></rect><path d="M712.48,263.73s0-.25,0-.72,0-1.16,0-2c0-1.81,0-4.44-.05-7.81,0-6.77-.06-16.5-.1-28.48l.19.19-73,.07h0l.26-.26c0,13.79,0,27,0,39.05l-.25-.25,52.46.12,15.12.07,4,0h1l.36,0h-.33l-1,0-4,0-15.06.06-52.62.12h-.24v-.24c0-12.05,0-25.26,0-39.05v-.26h.27l73,.06h.2v.2c0,12-.08,21.81-.11,28.6,0,3.35,0,6,0,7.76q0,1.31,0,2C712.5,263.51,712.48,263.73,712.48,263.73Z" style="fill:#263238"></path><path d="M693.83,277.73c0,.15-7.39.26-16.51.26s-16.51-.11-16.51-.26,7.39-.26,16.51-.26S693.83,277.59,693.83,277.73Z" style="fill:#263238"></path><rect x="627.8" y="339.72" width="95.79" height="31.56" style="fill:#d8765f"></rect><path d="M720.1,368.82s0-.16,0-.47,0-.77,0-1.36c0-1.21,0-3,0-5.24,0-4.57,0-11.21-.09-19.57l.16.16-88.81.1h0l.26-.26c0,9.21,0,18.17,0,26.64l-.25-.25,63.44.12,18.61.07,5,0,1.3,0h.45l-.42,0-1.27,0-5,0L694.9,369l-63.61.12H631V341.92h.26l88.81.09h.17v.17c0,8.41-.07,15.08-.09,19.67,0,2.26,0,4,0,5.2,0,.58,0,1,0,1.33S720.1,368.82,720.1,368.82Z" style="fill:#263238"></path><polygon points="631.28 437.91 638.2 371.28 647.48 371.28 636.68 437.95 631.28 437.91" style="fill:#d8765f"></polygon><polygon points="726.62 437.9 716.23 371.28 706.95 371.28 721.23 437.93 726.62 437.9" style="fill:#d8765f"></polygon><rect x="637.54" y="405.94" width="80.6" height="7.18" style="fill:#d8765f"></rect><path d="M669.52,342.18a6.18,6.18,0,1,0,12.35,0Z" style="fill:#263238"></path><path d="M721.79,371.8c0,.15-21.12.26-47.17.26s-47.17-.11-47.17-.26,21.11-.26,47.17-.26S721.79,371.66,721.79,371.8Z" style="fill:#263238"></path></g><g id="freepik--Picture--inject-30"><rect x="240.95" y="71.39" width="117.51" height="151.77" style="fill:#455a64"></rect><path d="M358.46,71.39a1.93,1.93,0,0,1-.32.41l-1,1.14-4,4.35-.05,0h-.07c-10.22.11-30.3.18-53.34.18s-43.12-.07-53.34-.18h-.07l-.05,0-4-4.35-1-1.14a2.51,2.51,0,0,1-.32-.41,2.69,2.69,0,0,1,.39.35l1.07,1.08,4.08,4.24-.12,0c10.22-.1,30.29-.17,53.34-.17s43.12.07,53.34.17l-.13,0L357,72.82l1.07-1.08A2.41,2.41,0,0,1,358.46,71.39Z" style="fill:#263238"></path><path d="M241,223.17a2.51,2.51,0,0,1,.32-.41l1-1.14,4-4.35.05-.05h.07c10.22-.1,30.29-.17,53.34-.17s43.12.07,53.34.17h.07l.05.05,4,4.35,1,1.14a1.93,1.93,0,0,1,.32.41,2.41,2.41,0,0,1-.38-.35L357,221.74l-4.09-4.24.13.05c-10.22.11-30.29.18-53.34.18s-43.12-.07-53.34-.18l.12-.05-4.08,4.24-1.07,1.08A2.69,2.69,0,0,1,241,223.17Z" style="fill:#263238"></path><rect x="246.37" y="77.18" width="106.67" height="140.21" style="fill:#fff"></rect><path d="M263.06,176.38c3.18-3,7.86-3.88,12.24-3.77s8.72,1,13.1,1c7-.08,14-2.68,20.9-1.48,2.21.38,4.44,1.15,6.63.68,1.92-.41,3.53-1.71,5.41-2.28,4.87-1.44,10.34,2.36,15,.37v31.3H263.06Z" style="fill:#ECEFF1"></path><path d="M264.54,177.64c-.19,0-.34-18.54-.34-41.4s.15-41.41.34-41.41.34,18.53.34,41.41S264.73,177.64,264.54,177.64Z" style="fill:#263238"></path><path d="M267.88,177.64c-.19,0-.34-18.54-.34-41.4s.15-41.41.34-41.41.34,18.53.34,41.41S268.06,177.64,267.88,177.64Z" style="fill:#263238"></path><path d="M271.21,177.64c-.18,0-.34-18.54-.34-41.4s.16-41.41.34-41.41.34,18.53.34,41.41S271.4,177.64,271.21,177.64Z" style="fill:#263238"></path><path d="M274.55,177.64c-.19,0-.34-18.54-.34-41.4s.15-41.41.34-41.41.34,18.53.34,41.41S274.74,177.64,274.55,177.64Z" style="fill:#263238"></path><path d="M277.89,177.64c-.19,0-.34-18.54-.34-41.4s.15-41.41.34-41.41.34,18.53.34,41.41S278.07,177.64,277.89,177.64Z" style="fill:#263238"></path><path d="M281.22,177.64c-.18,0-.34-18.54-.34-41.4s.16-41.41.34-41.41.34,18.53.34,41.41S281.41,177.64,281.22,177.64Z" style="fill:#263238"></path><path d="M284.56,177.64c-.19,0-.34-18.54-.34-41.4s.15-41.41.34-41.41.34,18.53.34,41.41S284.75,177.64,284.56,177.64Z" style="fill:#263238"></path><path d="M287.9,177.64c-.19,0-.34-18.54-.34-41.4s.15-41.41.34-41.41.34,18.53.34,41.41S288.09,177.64,287.9,177.64Z" style="fill:#263238"></path><path d="M291.23,177.64c-.18,0-.34-18.54-.34-41.4s.16-41.41.34-41.41.34,18.53.34,41.41S291.42,177.64,291.23,177.64Z" style="fill:#263238"></path><path d="M294.57,177.64c-.19,0-.34-18.54-.34-41.4s.15-41.41.34-41.41.34,18.53.34,41.41S294.76,177.64,294.57,177.64Z" style="fill:#263238"></path><path d="M297.91,177.64c-.19,0-.34-18.54-.34-41.4s.15-41.41.34-41.41.34,18.53.34,41.41S298.1,177.64,297.91,177.64Z" style="fill:#263238"></path><path d="M301.24,177.64c-.18,0-.34-18.54-.34-41.4s.16-41.41.34-41.41.34,18.53.34,41.41S301.43,177.64,301.24,177.64Z" style="fill:#263238"></path><path d="M304.58,177.64c-.19,0-.34-18.54-.34-41.4s.15-41.41.34-41.41.34,18.53.34,41.41S304.77,177.64,304.58,177.64Z" style="fill:#263238"></path><path d="M307.92,177.64c-.19,0-.34-18.54-.34-41.4s.15-41.41.34-41.41.34,18.53.34,41.41S308.11,177.64,307.92,177.64Z" style="fill:#263238"></path><path d="M311.25,177.64c-.18,0-.34-18.54-.34-41.4s.16-41.41.34-41.41.34,18.53.34,41.41S311.44,177.64,311.25,177.64Z" style="fill:#263238"></path><path d="M314.59,177.64c-.19,0-.34-18.54-.34-41.4s.15-41.41.34-41.41.34,18.53.34,41.41S314.78,177.64,314.59,177.64Z" style="fill:#263238"></path><path d="M317.93,177.64c-.19,0-.34-18.54-.34-41.4s.15-41.41.34-41.41.34,18.53.34,41.41S318.12,177.64,317.93,177.64Z" style="fill:#263238"></path><path d="M321.26,177.64c-.18,0-.34-18.54-.34-41.4s.16-41.41.34-41.41.35,18.53.35,41.41S321.45,177.64,321.26,177.64Z" style="fill:#263238"></path><path d="M324.6,177.64c-.19,0-.34-18.54-.34-41.4s.15-41.41.34-41.41.34,18.53.34,41.41S324.79,177.64,324.6,177.64Z" style="fill:#263238"></path><path d="M327.94,177.64c-.19,0-.34-18.54-.34-41.4s.15-41.41.34-41.41.34,18.53.34,41.41S328.13,177.64,327.94,177.64Z" style="fill:#263238"></path><path d="M331.28,177.64c-.19,0-.35-18.54-.35-41.4s.16-41.41.35-41.41.34,18.53.34,41.41S331.46,177.64,331.28,177.64Z" style="fill:#263238"></path><path d="M334.61,177.64c-.19,0-.34-18.54-.34-41.4s.15-41.41.34-41.41.34,18.53.34,41.41S334.8,177.64,334.61,177.64Z" style="fill:#263238"></path></g><g id="freepik--Character--inject-30"><polygon points="573.47 437.9 567.52 404.17 548.14 404.17 561.13 437.96 573.47 437.9" style="fill:#8d4032"></polygon><polygon points="216.23 437.6 227.39 394.15 246.77 394.15 228.57 437.66 216.23 437.6" style="fill:#8d4032"></polygon><path d="M218.7,298.76a66.71,66.71,0,0,1,37.42-4.37c3.84.72,1.58,40,1.58,40l-15,11.49-24-47.15" style="fill:#455a64"></path><g style="opacity:0.30000000000000004"><path d="M218.7,298.76a66.71,66.71,0,0,1,37.42-4.37c3.84.72,1.58,40,1.58,40l-15,11.49-24-47.15"></path></g><path d="M237.76,388.45s0-31.81,0-32.43h161l1.69,32.5Z" style="fill:#455a64"></path><path d="M221.67,297.54h6.92a14.15,14.15,0,0,1,14.15,14.15v77.55a1.67,1.67,0,0,1-1.67,1.67h-19.4a14.15,14.15,0,0,1-14.15-14.15V311.69a14.15,14.15,0,0,1,14.15-14.15Z" style="fill:#455a64"></path><path d="M398.79,334.42c.12-.71-1.12-4.2-12-3.83-8.31.28-124.63-.57-130.31,4.74-14.42,13.49-17.23,9.35-18.78,21.76l161-1.07Z" style="fill:#455a64"></path><rect x="209.71" y="388.08" width="379.66" height="16.09" rx="6.46" style="fill:#455a64"></rect><path d="M539.87,334.42l2-51.41a8.18,8.18,0,0,0-8.23-8.51l-134.87.77v59.15Z" style="fill:#455a64"></path><path d="M559.81,388.45s0-31.81,0-32.43h-161l.75,32.13Z" style="fill:#455a64"></path><path d="M398.94,334c-.11-.71.95-3.78,11.8-3.41,8.31.28,122.93-.85,129.13,3.83s18.09,9.42,20,22.67l-161-1.07Z" style="fill:#455a64"></path><path d="M578.87,298.76a66.71,66.71,0,0,0-37.42-4.37c-3.84.72-1.58,40-1.58,40l15,11.49,24-47.15" style="fill:#455a64"></path><g style="opacity:0.30000000000000004"><path d="M578.87,298.76a66.71,66.71,0,0,0-37.42-4.37c-3.84.72-1.58,40-1.58,40l15,11.49,24-47.15"></path></g><path d="M569,297.54H590a0,0,0,0,1,0,0v79.22a14.15,14.15,0,0,1-14.15,14.15H569a14.15,14.15,0,0,1-14.15-14.15V311.69A14.15,14.15,0,0,1,569,297.54Z" transform="translate(1144.87 688.45) rotate(180)" style="fill:#455a64"></path><path d="M582.88,388.15c0,.15-81.89.34-182.89.45s-182.9.06-182.9-.08,81.87-.34,182.9-.45S582.88,388,582.88,388.15Z" style="fill:#263238"></path><path d="M403.25,275.25a1.64,1.64,0,0,1,0,.29c0,.22,0,.5,0,.85,0,.79,0,1.89.05,3.29,0,2.89,0,7,.08,12.08,0,10.24.05,24.32.08,39.87s-.06,29.64-.08,39.88c0,5.08-.06,9.19-.08,12.09,0,1.39,0,2.49-.05,3.28,0,.35,0,.63,0,.86a1.64,1.64,0,0,1,0,.29,1.11,1.11,0,0,1,0-.29c0-.23,0-.51,0-.86,0-.79,0-1.89-.05-3.28,0-2.9,0-7-.08-12.09,0-10.24,0-24.32-.07-39.88s.05-29.63.07-39.87c0-5.07.06-9.19.08-12.08,0-1.4,0-2.5.05-3.29,0-.35,0-.63,0-.85A1.11,1.11,0,0,1,403.25,275.25Z" style="fill:#263238"></path><path d="M257.7,334.42l-2-51.41a8.18,8.18,0,0,1,8.23-8.51l134.87.77v59.15Z" style="fill:#455a64"></path><path d="M540.7,335.33l1.63,1.18,4.79,3.56,7.85,5.85a14.24,14.24,0,0,1,4.12,4.72,8.2,8.2,0,0,1,.45,7l0,.06h-.07L257.56,357,238,356.89h-.23l0-.2a10.87,10.87,0,0,1,2-7.23,17.57,17.57,0,0,1,2.44-2.86c.91-.86,1.88-1.6,2.83-2.37l11.32-9.1.07-.05h.09c80.49-1,151.54-1,202.46-.65,25.46.16,45.89.38,60,.56l16.16.23,4.18.08c.94,0,1.42,0,1.42,0L459,334.76c-50.92-.26-122-.18-202.46.82l.16-.05-11.3,9.09c-1,.77-1.94,1.52-2.81,2.35a16.93,16.93,0,0,0-2.37,2.77,12.86,12.86,0,0,0-1.59,3.27,8.35,8.35,0,0,0-.37,3.56l-.26-.2,19.58.05,301.88,1.07-.1.06a8,8,0,0,0-.42-6.83,14.28,14.28,0,0,0-4-4.67l-7.8-5.88-4.76-3.6Z" style="fill:#263238"></path><path d="M237.92,356.25c.14,0,.26,7.16.26,16s-.12,16-.26,16-.26-7.15-.26-16S237.77,356.25,237.92,356.25Z" style="fill:#263238"></path><path d="M559.45,357.09c.15,0,.26,6.93.26,15.49s-.11,15.5-.26,15.5-.26-6.94-.26-15.5S559.31,357.09,559.45,357.09Z" style="fill:#263238"></path><path d="M426.11,340.52s-10,9-16.92,3.3c-13-10.69-19.36-50.14-19.36-50.14l-13.64,26-18.57-7.25,31.64-42.49,20.5,18.55Z" style="fill:#263238"></path><path d="M400.45,248.85c-4.75-3.4-14.08-3.51-19.21-.71-3,1.62-6.14,3.8-8.05,6.45-4.43,6.15-26.18,47.47-26.18,47.47l25.82,14.74s-.41.61.13-.3c3.78-6.39,18-29.52,18-29.52s8.22,35.29,14.89,46.71c3.58,6.13,8.73,16.72,22.27,16.72,4.71,0,36.46-1.73,37.44-1.87s-3.4-25.38-3.4-25.38L436.32,310h0s-23-43.79-28.24-52.62A39.4,39.4,0,0,0,400.45,248.85Z" style="fill:#263238"></path><path d="M432.24,350.44l-.25,0-.75,0-1.21,0-1.66,0a30.19,30.19,0,0,1-4.52-.55,22.68,22.68,0,0,1-5.67-2c-4-2.05-7.88-5.94-11.31-10.73a43.29,43.29,0,0,1-4.74-7.95,90.85,90.85,0,0,1-3.52-9.29c-2.11-6.47-3.66-12.76-4.95-18.51-.65-2.87-1.2-5.61-1.7-8.18s-1-5-1.16-7.19c-.5-4.39-.9-8-1.18-10.48-.12-1.2-.22-2.16-.29-2.85,0-.3-.05-.55-.06-.74a.74.74,0,0,1,0-.26,1,1,0,0,1,.06.25l.11.74c.1.69.23,1.64.39,2.84.32,2.51.78,6.07,1.34,10.45.22,2.21.71,4.59,1.22,7.16s1.09,5.29,1.75,8.16c1.31,5.73,2.87,12,5,18.45a93.77,93.77,0,0,0,3.49,9.24,43.45,43.45,0,0,0,4.67,7.88c3.39,4.77,7.16,8.63,11.09,10.68a22.47,22.47,0,0,0,5.57,2.08,30.38,30.38,0,0,0,4.46.62l1.65.1h2Z" style="fill:#455a64"></path><path d="M578,257.71a5,5,0,0,1,4.43.78c.51.38,1,.89,1.65.88a4.42,4.42,0,0,0,1.27-.46,2.57,2.57,0,0,1,3.26,1.75,3,3,0,0,0,.28,1c.75,1.18,3.05-.17,3.8,1a2.89,2.89,0,0,0-1.72.27,1.35,1.35,0,0,0-.66,1.5c.51,1.47,3.25.42,3.95,1.79.38.75-.11,1.83.49,2.4a3,3,0,0,0,.86.41,2.17,2.17,0,0,1,1.07,2.72c-.37.85-1.31,1.6-1,2.48a2,2,0,0,0,1.3,1,5.33,5.33,0,0,1-1.7,1.83,3.38,3.38,0,0,1-1.2,4.49,7.19,7.19,0,0,1,.7,2.67,2.5,2.5,0,0,1-1.25,2.31,1.79,1.79,0,0,0-.55.28,1.28,1.28,0,0,0-.33.59,11.2,11.2,0,0,1-.79,2.5,1.64,1.64,0,0,1-2.19.78c-.17-.12-.33-.29-.53-.28a.58.58,0,0,0-.37.25,5.9,5.9,0,0,0-.8,1.7,2.53,2.53,0,0,1-1.13,1.46,1.07,1.07,0,0,1-1.49-.63c-.26,1-.52,1.95-.77,2.93-.16.58-.39,1.25-1,1.42-.75.21-1.4-.67-1.44-1.46s.26-1.56.2-2.35a5.17,5.17,0,0,1-.07-1,1.65,1.65,0,0,0,0-.76c-.18-.47-1-.29-1.17.18a2.69,2.69,0,0,0,0,1.51,1.34,1.34,0,0,1-.4,1.38c-.21.12-.48.13-.68.26-.72.44-.13,1.61-.43,2.41a2,2,0,0,1-1.48,1c-.73.2-1.85.07-1.81-.71,0-.26.19-.49.23-.76a2,2,0,0,0-.18-.91,4.09,4.09,0,0,1-.07-2.3c.17,1,.25,2.28-.59,2.86a4.38,4.38,0,0,1-1.2.42c-.8.24-1.49.75-2.29,1a2.55,2.55,0,0,0-4,.94,1.94,1.94,0,0,1-1.86-1.44,1.63,1.63,0,0,0-.23-.65,1.36,1.36,0,0,0-.64-.36,4.11,4.11,0,0,1-2.66-3.36l.78.14a9.54,9.54,0,0,1-3.06-3.2,3.32,3.32,0,0,1,.67-4.07c.53-.37,1.27-.64,1.36-1.28a1.68,1.68,0,0,0-.55-1.18l-3.65-4.24a5.05,5.05,0,0,1-1.36-2.32,1.7,1.7,0,0,1,1.29-2,5,5,0,0,0-.63-2.64c-.5-.9-1.27-1.61-1.81-2.48a2.83,2.83,0,0,1-.27-2.91c.55-.86,2.15-.86,2.39.14.63-1.41-1.69-2.86-1.15-4.31.43-1.18,2.11-1,3.28-1.38.06-.46-.18-.92-.13-1.39.1-1,1.34-1.29,2.29-1.22s2.08.23,2.72-.49.47-2.11,1.33-2.6a1.07,1.07,0,0,1,1.41.4c1.47-1.2,3.7,1.62,5.34.67a.66.66,0,0,0,.3-.32.65.65,0,0,0,0-.39,7.49,7.49,0,0,0-.72-1.71A1.51,1.51,0,0,1,573,253c.47-.4,1.41.16,1.09.7a1.37,1.37,0,0,1,1.55,1.49,1.46,1.46,0,0,1,1.67.76,4.41,4.41,0,0,1,.41,2" style="fill:#263238"></path><path d="M575.8,279a11.4,11.4,0,0,0-1.06-7.62,6.71,6.71,0,0,0-1.86-2.66,2.75,2.75,0,0,0-3-.33l-.71,1.68c-1.54,2.46-.72,5.68-1,8.58-.14,1.26-.46,2.69.32,3.68a2.7,2.7,0,0,0,1.7.91C572.66,283.66,575.1,281.53,575.8,279Z" style="fill:#ECEFF1"></path><path d="M569.83,291a5.88,5.88,0,0,0,2.9-6.89c1.54-.71,2.13-2.73,1.77-4.41a11.45,11.45,0,0,0-2.47-4.45,7.92,7.92,0,0,0-5.46-9.33c-.45-3.6-4-6-7.54-6.71a9,9,0,0,1-2.51-.68A13.27,13.27,0,0,1,555,257.4c-2.89-2-7.08-1.44-9.77.85a6,6,0,0,1-1.34,1,9.1,9.1,0,0,1-2.16.44,5.56,5.56,0,0,0-3.77,2.72c-.66,1.19-.93,2.69-2,3.53-.53.43-1.22.64-1.71,1.11-1.42,1.38-.45,4.05-1.67,5.62-.25.32-.57.57-.84.86a3.51,3.51,0,0,0-.91,2.27,5.29,5.29,0,0,1-.11,1.91,6,6,0,0,1-.89,1.14c-.74.93-.55,6.1.05,7.13l26.35,14.11a5.48,5.48,0,0,0,6-2.31,2,2,0,0,1,.75-.86,2.19,2.19,0,0,1,1-.1c2.17,0,3.57-2.3,4.38-4.35a2.43,2.43,0,0,1,.43-.81A3.16,3.16,0,0,1,569.83,291Z" style="fill:#263238"></path><path d="M562.23,287.06A16.43,16.43,0,0,0,561,270.59a20,20,0,0,0-5.93-5.21,11.89,11.89,0,0,0-6.91-1.94c-1.64-.42-9.49,1.75-12.48,7-3.33,5.83-7.16,13.08-8.66,17.92-3,9.75,3.23,14.38,3.23,14.38l-8.14,14.57,23.69,1Z" style="fill:#ffbf9d"></path><path d="M540.77,294.07a2,2,0,0,0,0-1.4,2,2,0,0,0-2-1.34c-.89.07-1.4.78-1.75,1.7h0c.08.71.06,1.36.64,1.76a2.61,2.61,0,0,0,.28.17,2.16,2.16,0,0,0,1.56.24A2,2,0,0,0,540.77,294.07Z" style="fill:#ff9a6c"></path><path d="M534.08,279.38a1.32,1.32,0,0,0,.53,1.73,1.22,1.22,0,0,0,1.69-.45,1.32,1.32,0,0,0-.53-1.73A1.21,1.21,0,0,0,534.08,279.38Z" style="fill:#263238"></path><path d="M536.06,274.94c.07.22,1.25,0,2.48.65s1.82,1.71,2,1.62.09-.38-.16-.87a3.54,3.54,0,0,0-1.53-1.49,3.3,3.3,0,0,0-2.06-.32C536.29,274.63,536,274.84,536.06,274.94Z" style="fill:#263238"></path><path d="M538.41,288.45a8.64,8.64,0,0,0-1.81-1.39c-.3-.19-.56-.41-.51-.65s.34-.54.67-.84l2.12-1.94a46.72,46.72,0,0,0,5.19-5.28,45.62,45.62,0,0,0-5.6,4.84l-2.08,2a2.07,2.07,0,0,0-.78,1.17.87.87,0,0,0,.29.72,2.26,2.26,0,0,0,.49.35A10,10,0,0,0,538.41,288.45Z" style="fill:#263238"></path><path d="M530.29,302.73a25.12,25.12,0,0,0,13.54,2.88s-6.3,4.75-14.79-.64Z" style="fill:#ff9a6c"></path><path d="M537.21,272.13c.06.41,1.1.68,2.15,1.34s1.82,1.41,2.2,1.26c.17-.08.2-.44,0-.94a3.86,3.86,0,0,0-1.47-1.55,3.6,3.6,0,0,0-2-.54C537.49,271.74,537.2,271.94,537.21,272.13Z" style="fill:#263238"></path><path d="M547,285.86a1.28,1.28,0,1,1-.61-1.67A1.27,1.27,0,0,1,547,285.86Z" style="fill:#263238"></path><path d="M552.62,284c-.22.07-.73-1-1.93-1.71s-2.42-.55-2.47-.77.26-.29.8-.36a3.48,3.48,0,0,1,2.07.44,3.31,3.31,0,0,1,1.43,1.54C552.74,283.64,552.72,284,552.62,284Z" style="fill:#263238"></path><path d="M553.78,280.9c-.39.14-1.16-.66-2.27-1.3s-2.16-1-2.23-1.38c0-.19.28-.39.84-.42a3.92,3.92,0,0,1,2.1.58,4,4,0,0,1,1.52,1.58C554,280.46,554,280.82,553.78,280.9Z" style="fill:#263238"></path><path d="M556.6,294.89c.33-.68,1.87-1.87,2.58-1.64,1.88.62,5,2.37,2.78,6.88-3,6.18-8.48,1.84-8.4,1.66S555.45,297.2,556.6,294.89Z" style="fill:#ffbf9d"></path><path d="M556.32,300.37s.07.13.21.3a1.2,1.2,0,0,0,.79.42,2.89,2.89,0,0,0,2.36-1.78,4,4,0,0,0,.45-1.69,1.42,1.42,0,0,0-.4-1.23.61.61,0,0,0-.77,0c-.16.14-.18.28-.22.27s-.08-.17.09-.4a.74.74,0,0,1,.43-.26.89.89,0,0,1,.66.13,1.75,1.75,0,0,1,.65,1.52,4.2,4.2,0,0,1-.47,1.9c-.64,1.23-1.83,2.08-2.83,1.89a1.26,1.26,0,0,1-.89-.65C556.26,300.53,556.3,300.37,556.32,300.37Z" style="fill:#ff9a6c"></path><path d="M534.33,269.83a3.91,3.91,0,0,0,3.55-2.31c.7.66,2,0,2.87-.45s1.58-.53,2-1.41a1.17,1.17,0,0,1,.31-.47,1.15,1.15,0,0,1,.86-.05,4.49,4.49,0,0,0,4.08-1.5,9.65,9.65,0,0,0,3.81,2.82,3.81,3.81,0,0,0,2.14,2.89,3.69,3.69,0,0,0,3.54-.29,3.4,3.4,0,0,0,1.24,2.48,9.67,9.67,0,0,0,2.45,1.42,4,4,0,0,0,.32,5.17c.19.18.4.37.4.63s-.24.46-.43.64a3.14,3.14,0,0,0,.1,4.47,2.33,2.33,0,0,0-1.42,3.34c.16.25.37.56.2.8a.63.63,0,0,1-.26.19,4.39,4.39,0,0,0-1.95,1.55,1.69,1.69,0,0,0,.39,2.26,2.13,2.13,0,0,0-1.43.95c-.28.53,0,1.35.58,1.41.24,0,3.56,1,3.78.85,2.88-1.49,2-5.2,3.28-8.22a21.56,21.56,0,0,0,1.46-9.65,16,16,0,0,0-.69-4.07,20.83,20.83,0,0,0-2.11-4.19,19,19,0,0,0-3.71-4.84c-2.88-2.46-6.87-3-10.63-3.12a15.58,15.58,0,0,0-4.26.28,14.45,14.45,0,0,0-4.59,2.26,17.89,17.89,0,0,0-5.29,5.18" style="fill:#263238"></path><path d="M534.2,267.07a2.76,2.76,0,0,1,.65-.49c.23-.14.53-.29.85-.5a3.1,3.1,0,0,0,.91-1,9.94,9.94,0,0,0,.72-1.53,7.46,7.46,0,0,1,.95-1.8,5.56,5.56,0,0,1,1.75-1.53,5.63,5.63,0,0,1,1.18-.49,8,8,0,0,1,1.31-.23,4.08,4.08,0,0,0,1.32-.34,5.34,5.34,0,0,0,1.14-.86,8.85,8.85,0,0,1,2.65-1.62,8.75,8.75,0,0,1,3.25-.63,8.56,8.56,0,0,1,1.73.19,7.24,7.24,0,0,1,1.69.64,7.12,7.12,0,0,1,.78.48c.25.18.49.38.73.56a4.33,4.33,0,0,0,1.62.84c.6.17,1.23.24,1.86.39a11.38,11.38,0,0,1,1.86.57,12.43,12.43,0,0,1,1.79.89,10.69,10.69,0,0,1,1.61,1.25,6.84,6.84,0,0,1,2,3.61c0,.14,0,.28.08.41l-.08-.08a7.64,7.64,0,0,1,4.69,3.74,7.84,7.84,0,0,1,.85,5.71l0-.09a21.86,21.86,0,0,1,1.56,2.23,7.47,7.47,0,0,1,1,2.47,4.78,4.78,0,0,1-.26,2.52,3.21,3.21,0,0,1-1.61,1.78l0-.1a6,6,0,0,1-2.3,6.6,4.58,4.58,0,0,1-.71.4c-.24.12-.47.21-.68.34a1.45,1.45,0,0,0-.52.49,4.8,4.8,0,0,0-.3.65,11.26,11.26,0,0,1-1.21,2.3,5.53,5.53,0,0,1-1.47,1.47,3.3,3.3,0,0,1-1.44.51c-.42.05-.73,0-.94,0a1.87,1.87,0,0,0-.31.08.67.67,0,0,1,.3-.1c.22,0,.54,0,.94,0a3.22,3.22,0,0,0,1.4-.53A5.27,5.27,0,0,0,567,294.8a11.14,11.14,0,0,0,1.18-2.29,5,5,0,0,1,.31-.67,1.55,1.55,0,0,1,.55-.53,5.71,5.71,0,0,1,.7-.35,5.17,5.17,0,0,0,.68-.39,5.69,5.69,0,0,0,2.07-2.68,5.61,5.61,0,0,0,.15-3.76l0-.07.07,0a3.07,3.07,0,0,0,1.51-1.69,4.64,4.64,0,0,0,.25-2.43,7.55,7.55,0,0,0-.94-2.4,23.06,23.06,0,0,0-1.55-2.2l0,0v0a7.61,7.61,0,0,0-.84-5.56,7.41,7.41,0,0,0-4.56-3.64l-.06,0v-.07l-.08-.4a6.61,6.61,0,0,0-2-3.5,10.25,10.25,0,0,0-1.58-1.22,10.62,10.62,0,0,0-1.75-.88,10.88,10.88,0,0,0-1.84-.57c-.61-.14-1.25-.22-1.86-.39a4.58,4.58,0,0,1-.89-.35,4.91,4.91,0,0,1-.79-.52l-.73-.56a6.78,6.78,0,0,0-.76-.47,7.12,7.12,0,0,0-1.64-.63,8.11,8.11,0,0,0-1.69-.19,8.85,8.85,0,0,0-5.79,2.19,5.1,5.1,0,0,1-1.19.88,3.94,3.94,0,0,1-1.36.34,10.36,10.36,0,0,0-1.3.22,6.16,6.16,0,0,0-1.15.47,5.69,5.69,0,0,0-1.72,1.49,7.46,7.46,0,0,0-1,1.77,10.53,10.53,0,0,1-.74,1.54,3.41,3.41,0,0,1-.94,1c-.33.21-.64.35-.87.48a5.17,5.17,0,0,0-.51.33Z" style="fill:#455a64"></path><path d="M564.39,263.1s-.11-.17-.33-.47a5.14,5.14,0,0,0-1.13-1.07,4.21,4.21,0,0,0-4.77,0,3.81,3.81,0,0,0-.65.54.85.85,0,0,0-.27.67l0,.28-.21-.19a2.77,2.77,0,0,0-2-.74,2.66,2.66,0,0,0-1.59.61,2.85,2.85,0,0,0-.74.89c-.13.24-.18.39-.19.38s0,0,0-.11a2,2,0,0,1,.11-.3,2.7,2.7,0,0,1,.72-1,2.67,2.67,0,0,1,1.66-.68,2.93,2.93,0,0,1,2.13.76l-.17.09a1.07,1.07,0,0,1,.32-.84,4.17,4.17,0,0,1,.68-.58,4.49,4.49,0,0,1,2.76-.75,4.35,4.35,0,0,1,2.21.8,4.44,4.44,0,0,1,1.11,1.14c.1.16.17.29.22.38S564.4,263.1,564.39,263.1Z" style="fill:#455a64"></path><path d="M570.73,275.21a1,1,0,0,1-.32.11,3.72,3.72,0,0,1-.92.13,3.21,3.21,0,0,1-1.39-.25,2.46,2.46,0,0,1-1.28-1.23l.14,0-.3.17-.32.13a4.06,4.06,0,0,1-2,.18,4.11,4.11,0,0,1-1.53-.56,4,4,0,0,1-.85-.71,1.65,1.65,0,0,1-.23-.33,6.49,6.49,0,0,0,1.15.91,4.18,4.18,0,0,0,3.38.32l.31-.13.28-.15.1-.06,0,.11a2.26,2.26,0,0,0,1.16,1.14,3.22,3.22,0,0,0,1.31.29A11,11,0,0,0,570.73,275.21Z" style="fill:#455a64"></path><path d="M571.11,282.56s0,0-.07.1a1,1,0,0,1-.28.23,1.75,1.75,0,0,1-1.3.16,3.61,3.61,0,0,1-1.64-1.08,11.49,11.49,0,0,1-.76-.88,1.91,1.91,0,0,1-.46-1.2v-.12l.12.12a7.53,7.53,0,0,1-2.33.17,3.38,3.38,0,0,1-1.79-.7,2.48,2.48,0,0,1-.81-1,2.13,2.13,0,0,1-.11-.34c0-.08,0-.12,0-.12a4.52,4.52,0,0,1,.19.43,2.59,2.59,0,0,0,.82.94,3.49,3.49,0,0,0,1.73.62,7.86,7.86,0,0,0,2.27-.18l.14,0v.24a1.72,1.72,0,0,0,.41,1.07,10.57,10.57,0,0,0,.74.87,3.55,3.55,0,0,0,1.53,1.07,1.78,1.78,0,0,0,1.23-.09A2.91,2.91,0,0,0,571.11,282.56Z" style="fill:#455a64"></path><path d="M588.45,263.94s-.11-.05-.32-.09a1.47,1.47,0,0,0-.89.09,2.14,2.14,0,0,0-1,.94,6.44,6.44,0,0,0-.6,1.8l0,.11-.1-.06a3.83,3.83,0,0,0-2.42-.43,3,3,0,0,0-2.21,1.57,2.87,2.87,0,0,0-.13,2.5l.12.26-.26-.13a3.45,3.45,0,0,0-2.8-.16,3.49,3.49,0,0,0-1.71,1.49,3.88,3.88,0,0,0-.46,1.47c0,.36,0,.56,0,.56s0-.05,0-.15a2.59,2.59,0,0,1,0-.42,3.5,3.5,0,0,1,.43-1.52,3.44,3.44,0,0,1,1.75-1.59,3.6,3.6,0,0,1,2.95.14l-.13.13a3.18,3.18,0,0,1,1.14-3.82,3.35,3.35,0,0,1,1.35-.52,4,4,0,0,1,2.53.47l-.13.05a6.82,6.82,0,0,1,.65-1.82,2.22,2.22,0,0,1,1.12-1,1.44,1.44,0,0,1,.95-.05,1.1,1.1,0,0,1,.23.09Z" style="fill:#455a64"></path><path d="M592.68,282.82h-.13a2.47,2.47,0,0,1-.37,0,4.75,4.75,0,0,1-1.36-.35,5.43,5.43,0,0,1-3.16-3.61l.14.06a4.22,4.22,0,0,1-3.66.49,3.34,3.34,0,0,1-2.22-3.17l.16.07a2.61,2.61,0,0,1-1.24.67,3.49,3.49,0,0,1-1.28.06,5.08,5.08,0,0,1-1.94-.75,9.9,9.9,0,0,1-1.09-.81,2.13,2.13,0,0,1-.36-.33l.4.28a11.15,11.15,0,0,0,1.11.76,5,5,0,0,0,1.9.69,2.88,2.88,0,0,0,2.37-.71l.17-.17v.25a3.16,3.16,0,0,0,2.09,3,4.09,4.09,0,0,0,3.5-.47l.11-.07,0,.13a5.22,5.22,0,0,0,1.3,2.34,5.39,5.39,0,0,0,1.72,1.21A6.55,6.55,0,0,0,592.68,282.82Z" style="fill:#455a64"></path><path d="M581.88,288.55s0,0-.12.07a.69.69,0,0,1-.42,0,3.11,3.11,0,0,1-1.23-.91,3.83,3.83,0,0,1-.9-2.1,3.93,3.93,0,0,1,.76-2.68h0l.08.17a4.41,4.41,0,0,1-2.6-.91,5,5,0,0,1-1.44-1.75,5.94,5.94,0,0,1-.5-1.45,2,2,0,0,1-.06-.56,7.85,7.85,0,0,0,.69,1.94,5,5,0,0,0,1.42,1.66,4.27,4.27,0,0,0,2.49.86h.2l-.12.17h0a3.73,3.73,0,0,0-.74,2.53,3.69,3.69,0,0,0,.82,2,3.22,3.22,0,0,0,1.14.93A.72.72,0,0,0,581.88,288.55Z" style="fill:#455a64"></path><path d="M575.1,257.37a5.64,5.64,0,0,0-1.21,1.74,4.72,4.72,0,0,0,.65,4.85,4.68,4.68,0,0,0,1.21,1.07l.11.07-.09.09a6.11,6.11,0,0,0-1.2,1.87,6.5,6.5,0,0,0-.43,1.73,5.5,5.5,0,0,0,0,.68.56.56,0,0,0,.2.42.34.34,0,0,0,.28.05l.09-.05s0,0-.08.08a.36.36,0,0,1-.33,0,.61.61,0,0,1-.26-.47,4.08,4.08,0,0,1,0-.7,6.11,6.11,0,0,1,.39-1.79,5.93,5.93,0,0,1,1.22-1.94l0,.15a4.71,4.71,0,0,1-1.26-1.11,4.76,4.76,0,0,1-.63-5,4.44,4.44,0,0,1,.89-1.31,3.33,3.33,0,0,1,.32-.29C575.05,257.39,575.09,257.36,575.1,257.37Z" style="fill:#455a64"></path><path d="M541.08,291.82c-.16-.12-.89,1-2.34,1.12s-2.51-.78-2.62-.63.11.39.59.74a3.24,3.24,0,0,0,2.15.58,2.77,2.77,0,0,0,1.89-1C541.09,292.22,541.15,291.86,541.08,291.82Z" style="fill:#263238"></path><path d="M441.43,299.64c-.28-.2-1.85.41-1.09,2.33s2.63,2,3.85,4.13.26,3.07,3,5.64,3.83,3,3.83,3l4-4.94-8-8.14Z" style="fill:#ff9a6c"></path><path d="M422.41,293.77,418.73,248a3.32,3.32,0,0,1,2.93-3.56h0l4.37,47.9,35.26,31.78a1.46,1.46,0,0,1-.1,2.25h0a1.46,1.46,0,0,1-1.84-.08Z" style="fill:#e0e0e0"></path><path d="M435.93,292.69s8.82-1.15,9.09-1c1.25.74,9.34,7.63,9.34,7.63L461,311.76l-9.48,5.05s-2.39-3.46-2.83-5.78-3.52-8.71-3.52-8.71l-4-2.88-7.32-.14s-.77.11-1.59-1.56l5.26-2.22,5.37.64,3.67,1.67-3.71-3s-4.89-.15-5.14-.19S435.77,293.9,435.93,292.69Z" style="fill:#ffbf9d"></path><path d="M522.65,308.76A66,66,0,0,0,503.53,311c-12.81,3.63-20.51,7.2-27.36,7.2-8.55,0-24.8-.66-24.8-.66s6.9,11.72,6.64,21.2,2.78,11.7,2.78,11.7l53.85-2.34c9.2-.35,21.65-3.49,26.06-12.74a64.64,64.64,0,0,0,4.49-12.6l4-9.29-20.93-9.67-4,5.25Z" style="fill:#ECEFF1"></path><path d="M519.83,319.37,515,324.44,487,332l-27.1-22.5s-8.43,1-7.46,12.89c.07.84,21.66,26.34,25.88,27.75s18.26.16,20.05.16,30.25-4.77,33.65-7.18,10.89-15.91,10.6-19" style="fill:#ECEFF1"></path><path d="M542.61,324.17s0,.18,0,.53a2.86,2.86,0,0,1-.09.64,6.42,6.42,0,0,1-.22.86,34.89,34.89,0,0,1-2.29,5.44,65.75,65.75,0,0,1-4.75,8.05c-.53.74-1.1,1.5-1.74,2.24a6.6,6.6,0,0,1-2.4,1.87,47.69,47.69,0,0,1-6.28,1.86c-4.46,1.08-9.38,2.07-14.68,3-2.65.48-5.39,1-8.23,1.4a34.45,34.45,0,0,1-4.35.51l-4.48.25c-3,.16-6.13.29-9.31.21a26.47,26.47,0,0,1-4.82-.46,5.27,5.27,0,0,1-1.22-.4,9.93,9.93,0,0,1-1-.7c-.67-.5-1.29-1-1.91-1.59-2.45-2.23-4.76-4.66-7.08-7.15s-4.62-5.07-6.92-7.71q-2.58-3-5-5.91c-.82-1-1.63-2-2.41-3l-.58-.76a4.29,4.29,0,0,1-.57-.89c-.07-.69-.06-1.28-.09-1.93s.06-1.26.09-1.89.2-1.25.3-1.87a11.54,11.54,0,0,1,1.42-3.46,8.86,8.86,0,0,1,5.94-4.07l.1,0,.09.07,27.07,22.53-.18,0,28-7.49-.05,0,3.65-3.75.93-.95a3.53,3.53,0,0,1,.33-.3s-.09.12-.29.34l-.9,1-3.58,3.81,0,0h0l-28,7.7-.1,0-.08-.06-27.13-22.46.19.06a8.42,8.42,0,0,0-5.57,3.85,12.82,12.82,0,0,0-1.73,6.95c0,.6,0,1.28.09,1.83.07.12.3.46.47.68l.58.75c.78,1,1.58,2,2.4,3q2.46,3,5,5.91,3.44,3.94,6.91,7.7c2.31,2.48,4.62,4.91,7,7.12.61.55,1.23,1.08,1.87,1.56a8.41,8.41,0,0,0,1,.66,5.16,5.16,0,0,0,1.09.36,25.76,25.76,0,0,0,4.72.45c3.16.09,6.26,0,9.28-.19l4.47-.24a34,34,0,0,0,4.31-.49c2.83-.44,5.58-.91,8.22-1.38,5.3-.95,10.22-1.91,14.67-3a48,48,0,0,0,6.24-1.8,6.32,6.32,0,0,0,2.3-1.78c.63-.72,1.2-1.47,1.73-2.2a67.38,67.38,0,0,0,4.81-8,38,38,0,0,0,2.37-5.38,8.15,8.15,0,0,0,.24-.85,3.78,3.78,0,0,0,.12-.63C542.59,324.35,542.61,324.17,542.61,324.17Z" style="fill:#263238"></path><path d="M540.42,320.68c-.06.06-.78-.76-2.16-1.79a16.06,16.06,0,0,0-6.06-2.8,16.23,16.23,0,0,0-6.67,0c-1.69.35-2.69.79-2.72.71a2,2,0,0,1,.67-.38,11.88,11.88,0,0,1,2-.69,15,15,0,0,1,6.87-.11,14.71,14.71,0,0,1,6.16,3,12.54,12.54,0,0,1,1.5,1.45C540.3,320.43,540.45,320.66,540.42,320.68Z" style="fill:#263238"></path><path d="M542.69,317.55a12.84,12.84,0,0,1-2.83-.7,57.73,57.73,0,0,1-6.58-2.48,59.38,59.38,0,0,1-6.26-3.23,12.9,12.9,0,0,1-2.41-1.63,20.52,20.52,0,0,1,2.59,1.31c1.59.84,3.79,2,6.29,3.08s4.8,2,6.49,2.6A21.93,21.93,0,0,1,542.69,317.55Z" style="fill:#263238"></path><path d="M371.75,317.38l-13,19.37L357.14,344a4.21,4.21,0,0,1-5,3.21L310,338s.37-5.17,3.62-5.78,26.62-5.33,26.62-5.33l12.12-22Z" style="fill:#e0e0e0"></path><path d="M373.39,319.48,369,325.25a2,2,0,0,1-2.58.48L347,313.85a2,2,0,0,1-.74-2.51l2.75-5.76a2,2,0,0,1,2.78-.84L373,317.51A1.34,1.34,0,0,1,373.39,319.48Z" style="fill:#e0e0e0"></path><path d="M373.39,319.48a1.86,1.86,0,0,0,.23-.68,1.38,1.38,0,0,0-.21-.81,2.49,2.49,0,0,0-.94-.71l-6.69-3.94-9.9-5.89L353,305.74l-1.47-.87a1.72,1.72,0,0,0-1.5,0,1.74,1.74,0,0,0-.63.48,3.33,3.33,0,0,0-.41.73l-.78,1.63c-.52,1.1-1.06,2.22-1.6,3.35a4.06,4.06,0,0,0-.33.81,1.75,1.75,0,0,0,0,.82,1.84,1.84,0,0,0,.39.71,3.15,3.15,0,0,0,.69.5l3.07,1.88,5.8,3.56,9.81,6a2.93,2.93,0,0,0,1,.5,1.8,1.8,0,0,0,1-.1c.66-.24,1-.92,1.41-1.41l2.05-2.63,1.31-1.66a7,7,0,0,1,.48-.56,4.79,4.79,0,0,1-.41.61l-1.24,1.71-2,2.68-.6.81a2.17,2.17,0,0,1-.89.71,2.2,2.2,0,0,1-1.2.13,3.24,3.24,0,0,1-1.13-.52l-9.85-6-5.81-3.53-3.08-1.88a3.6,3.6,0,0,1-.78-.57,2.25,2.25,0,0,1-.53-1.92,2.16,2.16,0,0,1,.16-.49l.21-.42,1.6-3.35.78-1.63a3.6,3.6,0,0,1,.47-.82,2,2,0,0,1,.78-.59,2.14,2.14,0,0,1,1.88.05c.53.3,1,.6,1.49.89l2.85,1.72,9.85,6,6.62,4.06a2.43,2.43,0,0,1,1,.78,1.34,1.34,0,0,1,.18.89,1.23,1.23,0,0,1-.19.53C373.44,319.44,373.4,319.49,373.39,319.48Z" style="fill:#263238"></path><path d="M364.09,323.8a9.9,9.9,0,0,0,4.72-8.8,15.63,15.63,0,0,1-4.72,8.8Z" style="fill:#263238"></path><path d="M356.66,319.76a33.69,33.69,0,0,0,5.6-8.7,39.36,39.36,0,0,0-2.89,4.29A37.18,37.18,0,0,0,356.66,319.76Z" style="fill:#263238"></path><path d="M349.11,314.79a13.32,13.32,0,0,1,6.8-7.61,3.34,3.34,0,0,0-1.51.47,9.87,9.87,0,0,0-5,5.59A3.41,3.41,0,0,0,349.11,314.79Z" style="fill:#263238"></path><path d="M347.39,345.93c.08,0,.34-.73,1-1.81a11.46,11.46,0,0,1,3.31-3.56,11.58,11.58,0,0,1,4.51-1.81c1.24-.21,2-.17,2-.25a4.6,4.6,0,0,0-2.09-.1,10.22,10.22,0,0,0-8.08,5.54A4.94,4.94,0,0,0,347.39,345.93Z" style="fill:#263238"></path><path d="M321.87,340.57a3.25,3.25,0,0,0,.7-1.39,6.58,6.58,0,0,0,.06-3.77,9,9,0,0,0-1.79-3.31c-.61-.73-1.07-1.11-1.12-1.07s.31.52.84,1.29a11.56,11.56,0,0,1,1.58,3.23,7.39,7.39,0,0,1,.09,3.54A9,9,0,0,0,321.87,340.57Z" style="fill:#263238"></path></g><g id="freepik--table-1--inject-30"><polygon points="387.99 475.16 351.46 406.27 339.42 406.27 380.68 475.16 387.99 475.16" style="fill:#8d4032"></polygon><polygon points="441.1 475.16 477.63 406.27 489.67 406.27 448.41 475.16 441.1 475.16" style="fill:#8d4032"></polygon><polygon points="498.63 406.27 366.99 406.27 364.26 406.27 325.12 406.27 325.12 396.14 498.63 396.14 498.63 406.27" style="fill:#d8765f"></polygon><polygon points="336.23 475.16 373.12 406.27 385.16 406.27 343.91 475.16 336.23 475.16" style="fill:#d8765f"></polygon><path d="M364.77,435.78a1.85,1.85,0,1,1-1.84-1.85A1.84,1.84,0,0,1,364.77,435.78Z" style="fill:#263238"></path><polygon points="493.94 475.16 457.82 406.27 445.78 406.27 487.03 475.16 493.94 475.16" style="fill:#d8765f"></polygon><path d="M469.28,434.89a1.85,1.85,0,1,1-1.85-1.85A1.85,1.85,0,0,1,469.28,434.89Z" style="fill:#263238"></path><path d="M498.63,406.6c0,.14-38.62.26-86.25.26s-86.25-.12-86.25-.26,38.61-.26,86.25-.26S498.63,406.45,498.63,406.6Z" style="fill:#263238"></path><polygon points="450.11 396.14 434.99 396.14 434.99 369.22 434.99 369.22 450.11 369.22 450.11 369.22 450.11 396.14 450.11 396.14" style="fill:#ebebeb"></polygon><path d="M448.71,380.6a5.63,5.63,0,0,0-.33-1.67,3.09,3.09,0,0,0-2.95-2.27c-1.44.13-2.5,1.59-3.94,1.67-.95.06-1.85-.51-2.8-.47a2.56,2.56,0,0,0-2.31,2.4v13.31A1.43,1.43,0,0,0,437.8,395h9.48a1.43,1.43,0,0,0,1.43-1.43V381A1.48,1.48,0,0,0,448.71,380.6Z" style="fill:#f5f5f5"></path><path d="M439.94,396.14a4.52,4.52,0,0,1,0-.67c0-.48,0-1.1,0-1.85s0-1.71,0-2.72a2.37,2.37,0,0,0-.65-1.37,2.38,2.38,0,0,0-3-.34,2.39,2.39,0,0,0-.94,1.2,4,4,0,0,0-.14,1.41c0,.46,0,.88,0,1.28,0,.74,0,1.36,0,1.84a4.52,4.52,0,0,1,0,.67,3.63,3.63,0,0,1-.05-.67c0-.48,0-1.1,0-1.84,0-.4,0-.82,0-1.28,0-.23,0-.46,0-.71a2.67,2.67,0,0,1,.14-.77,2.63,2.63,0,0,1,1-1.31,2.67,2.67,0,0,1,1.72-.42,2.63,2.63,0,0,1,1.59.79,2.56,2.56,0,0,1,.69,1.5c0,1.05,0,2,0,2.74s0,1.37,0,1.85A3.26,3.26,0,0,1,439.94,396.14Z" style="fill:#e0e0e0"></path><path d="M445,396.14a3.38,3.38,0,0,1,0-.69c0-.49,0-1.13,0-1.91,0-.4,0-.84,0-1.31v-.73a3.84,3.84,0,0,0,0-.76,2.43,2.43,0,0,0-.78-1.35,2.38,2.38,0,0,0-1.57-.59,2.4,2.4,0,0,0-2.34,1.94,3.83,3.83,0,0,0-.05.76v.73c0,.47,0,.91,0,1.31,0,.78,0,1.42,0,1.91a3.75,3.75,0,0,1-.05.69,4.67,4.67,0,0,1,0-.69c0-.49,0-1.13,0-1.91,0-.4,0-.84,0-1.31v-.73a3.55,3.55,0,0,1,0-.79,2.57,2.57,0,0,1,.83-1.49,2.59,2.59,0,0,1,4.26,1.49,5.36,5.36,0,0,1,0,.79c0,.25,0,.49,0,.73,0,.47,0,.91,0,1.31,0,.78,0,1.42,0,1.91A4.67,4.67,0,0,1,445,396.14Z" style="fill:#e0e0e0"></path><path d="M450,395.44a3.63,3.63,0,0,1-.05-.67c0-.47,0-1.09,0-1.83,0-.39,0-.81,0-1.26a3.7,3.7,0,0,0-.18-1.39,2.39,2.39,0,0,0-4.6.66c0,1,0,1.93,0,2.7s0,1.35,0,1.82a3.5,3.5,0,0,1-.05.67,4.36,4.36,0,0,1,0-.67c0-.47,0-1.08,0-1.82s0-1.68,0-2.72a2.61,2.61,0,0,1,.66-1.5,2.6,2.6,0,0,1,3.27-.47,2.52,2.52,0,0,1,1.05,1.26,2.21,2.21,0,0,1,.17.75c0,.26,0,.48,0,.71,0,.45,0,.87,0,1.26,0,.74,0,1.36,0,1.83A4.52,4.52,0,0,1,450,395.44Z" style="fill:#e0e0e0"></path><path d="M449.58,369.21a2.77,2.77,0,0,1-.51.29,6.36,6.36,0,0,1-.63.3c-.24.1-.52.23-.84.34a16.57,16.57,0,0,1-2.29.65,19.24,19.24,0,0,1-2.9.34,17.9,17.9,0,0,1-2.91-.18,17.25,17.25,0,0,1-2.32-.52c-.32-.09-.61-.2-.86-.29a6.41,6.41,0,0,1-.64-.26,4.58,4.58,0,0,1-.53-.26s.78.3,2.08.66a17.46,17.46,0,0,0,2.3.47,20.08,20.08,0,0,0,2.88.16,20.31,20.31,0,0,0,2.86-.32,16.69,16.69,0,0,0,2.27-.6C448.82,369.56,449.56,369.18,449.58,369.21Z" style="fill:#e0e0e0"></path></g><g id="freepik--Footrest--inject-30"><path d="M275.61,451.12H209.88V419.51a6.37,6.37,0,0,1,5.12-6.26c18.68-3.71,37.12-3.29,55.39.08a6.38,6.38,0,0,1,5.22,6.27Z" style="fill:#ECEFF1"></path><path d="M210.51,475.16c0-.43,4.84-24,4.84-24h7.05l-8.18,24Z" style="fill:#d8765f"></path><path d="M273.87,475.16c0-.43-4.07-24-4.07-24h-7l7.41,24Z" style="fill:#d8765f"></path><polygon points="239.59 451.12 241.05 475.16 244.45 475.16 245.75 451.12 239.59 451.12" style="fill:#d8765f"></polygon><path d="M275.17,416a3.42,3.42,0,0,1-.62.18l-1.82.42c-1.58.37-3.88.82-6.74,1.3s-6.28.95-10.1,1.34-8,.62-12.46.7-8.64-.07-12.47-.3-7.26-.61-10.14-1-5.19-.76-6.78-1.08l-1.83-.36a4.14,4.14,0,0,1-.63-.16,2.88,2.88,0,0,1,.65.05l1.85.27c1.59.26,3.92.58,6.79.92s6.3.66,10.12.89,8,.32,12.44.26,8.61-.33,12.41-.66,7.23-.78,10.09-1.22,5.17-.83,6.76-1.14l1.84-.32A2.82,2.82,0,0,1,275.17,416Z" style="fill:#263238"></path><path d="M275.61,451.12c0,.14-14.75.26-32.93.26s-32.94-.12-32.94-.26,14.74-.26,32.94-.26S275.61,451,275.61,451.12Z" style="fill:#263238"></path></g></svg>
